<svg xmlns="http://www.w3.org/2000/svg" viewBox="0 0 153.071 153.071"><defs><style>.cls-1{fill:#fff;}</style></defs><g id="レイヤー_2" data-name="レイヤー 2"><g id="デザイン"><circle cx="76.535" cy="76.535" r="76.535"/><path class="cls-1" d="M36.422,94.362,36.1,93.6H34.444l-.321.759h-.757l1.5-3.343H35.7l1.5,3.343ZM35.27,91.669l-.578,1.34h1.156Z"/><path class="cls-1" d="M38.4,94.362V91.019h.735v3.343Z"/><path class="cls-1" d="M41.612,94.362V91.641H40.327v-.622h3.3v.622H42.346v2.721Z"/><path class="cls-1" d="M50.042,94.362V92.081L49,94.362h-.565L47.385,92.1v2.262H46.71V91.019h.854l1.166,2.538,1.161-2.538h.835v3.343Z"/><path class="cls-1" d="M52.268,94.362V91.019h2.744v.613H53v.7h1.914v.613H53v.8h2.111l-.092.613Z"/><path class="cls-1" d="M56.5,94.362V91.019h.734v3.343Z"/><path class="cls-1" d="M58.78,94.362V91.019h1.468a2.126,2.126,0,0,1,1.435.428,1.557,1.557,0,0,1,.493,1.243,1.525,1.525,0,0,1-.521,1.237,2.248,2.248,0,0,1-1.48.435Zm1.427-.623a1.339,1.339,0,0,0,.906-.267.987.987,0,0,0,.306-.786q0-1.044-1.148-1.045H59.51v2.1Z"/><path class="cls-1" d="M63.562,94.362V91.019h2.744v.613H64.3v.7H66.21v.613H64.3v.8h2.111l-.092.613Z"/><path class="cls-1" d="M70.349,94.362l-1.9-2.336v2.336h-.7V91.019h.67l1.895,2.336V91.019h.7v3.343Z"/><path class="cls-1" d="M77.127,94.362v-1.4H75.338v1.4H74.6V91.019h.735v1.292h1.789V91.019h.735v3.343Z"/><path class="cls-1" d="M79.4,94.362V91.019h.735v3.343Z"/><path class="cls-1" d="M84.383,93.116h-.9v-.58h1.583v1.452a2.372,2.372,0,0,1-.72.339,3.138,3.138,0,0,1-.868.12,2.074,2.074,0,0,1-1.434-.462,1.628,1.628,0,0,1-.516-1.281,1.884,1.884,0,0,1,.222-.932,1.533,1.533,0,0,1,.647-.618,2.163,2.163,0,0,1,1-.22,1.891,1.891,0,0,1,1.046.267,1.3,1.3,0,0,1,.556.764l-.735.089a.7.7,0,0,0-.314-.387,1.146,1.146,0,0,0-.571-.124,1.07,1.07,0,0,0-.81.3,1.17,1.17,0,0,0-.287.849,1.132,1.132,0,0,0,.3.857,1.236,1.236,0,0,0,.89.291,2.032,2.032,0,0,0,.909-.178Z"/><path class="cls-1" d="M89,94.362v-1.4H87.21v1.4h-.735V91.019h.735v1.292H89V91.019h.734v3.343Z"/><path class="cls-1" d="M95.543,91.96a.648.648,0,0,0-.289-.344,1.117,1.117,0,0,0-.536-.106,1.422,1.422,0,0,0-.6.1.308.308,0,0,0-.207.285.3.3,0,0,0,.126.263,1.24,1.24,0,0,0,.462.135l.674.108a1.762,1.762,0,0,1,.881.344.929.929,0,0,1-.126,1.433,2.088,2.088,0,0,1-1.158.27,2.663,2.663,0,0,1-.907-.132,1.125,1.125,0,0,1-.551-.4,1.369,1.369,0,0,1-.227-.679h.739a.652.652,0,0,0,.271.48,1.206,1.206,0,0,0,.675.152,1.313,1.313,0,0,0,.608-.11.35.35,0,0,0,.2-.325.319.319,0,0,0-.136-.272.989.989,0,0,0-.429-.14l-.551-.08a2.039,2.039,0,0,1-.979-.339.831.831,0,0,1-.31-.691.788.788,0,0,1,.183-.52,1.161,1.161,0,0,1,.535-.339,2.6,2.6,0,0,1,.838-.12,1.982,1.982,0,0,1,1.037.227,1.093,1.093,0,0,1,.482.715Z"/><path class="cls-1" d="M101.065,93.205a1.284,1.284,0,0,1-.526.918,1.97,1.97,0,0,1-1.182.324,2.128,2.128,0,0,1-.964-.207,1.464,1.464,0,0,1-.637-.6,1.889,1.889,0,0,1-.225-.946,1.87,1.87,0,0,1,.218-.915,1.528,1.528,0,0,1,.631-.618,2.026,2.026,0,0,1,.973-.223,1.5,1.5,0,0,1,1.656,1.147l-.729.089a.908.908,0,0,0-.333-.477,1.059,1.059,0,0,0-.594-.145,1.01,1.01,0,0,0-.776.3,1.383,1.383,0,0,0,0,1.679,1.034,1.034,0,0,0,.789.3,1.165,1.165,0,0,0,.643-.154.757.757,0,0,0,.312-.474Z"/><path class="cls-1" d="M104.919,94.362v-1.4H103.13v1.4H102.4V91.019h.735v1.292h1.789V91.019h.734v3.343Z"/><path class="cls-1" d="M110.835,92.69a1.82,1.82,0,0,1-.228.925,1.536,1.536,0,0,1-.656.614,2.482,2.482,0,0,1-2.014.009,1.541,1.541,0,0,1-.661-.6,1.8,1.8,0,0,1-.237-.944,1.823,1.823,0,0,1,.228-.925,1.539,1.539,0,0,1,.656-.613,2.482,2.482,0,0,1,2.014-.009,1.529,1.529,0,0,1,.661.6A1.8,1.8,0,0,1,110.835,92.69Zm-.762,0a1.039,1.039,0,0,0-1.138-1.142,1.12,1.12,0,0,0-.836.3,1.337,1.337,0,0,0,0,1.683,1.317,1.317,0,0,0,1.676,0A1.146,1.146,0,0,0,110.073,92.69Z"/><path class="cls-1" d="M115.631,92.69a1.82,1.82,0,0,1-.228.925,1.536,1.536,0,0,1-.656.614,2.482,2.482,0,0,1-2.014.009,1.535,1.535,0,0,1-.661-.6,1.8,1.8,0,0,1-.237-.944,1.833,1.833,0,0,1,.227-.925,1.542,1.542,0,0,1,.657-.613,2.482,2.482,0,0,1,2.014-.009,1.54,1.54,0,0,1,.661.6A1.8,1.8,0,0,1,115.631,92.69Zm-.762,0a1.039,1.039,0,0,0-1.138-1.142,1.12,1.12,0,0,0-.836.3,1.143,1.143,0,0,0,.84,1.983,1.126,1.126,0,0,0,.836-.3A1.15,1.15,0,0,0,114.869,92.69Z"/><path class="cls-1" d="M116.97,94.362V91.019h.735v2.72h2l-.091.623Z"/><path class="cls-1" d="M37.637,100.635v-3.01H38.3v3.01Z"/><path class="cls-1" d="M41.982,100.635l-1.706-2.1v2.1h-.631v-3.01h.6l1.705,2.1v-2.1h.632v3.01Z"/><path class="cls-1" d="M44.593,99.425v1.21h-.661v-3.01h2.354v.553H44.593v.7H46.2v.552Z"/><path class="cls-1" d="M50.511,99.13a1.642,1.642,0,0,1-.2.832,1.388,1.388,0,0,1-.591.553,2.236,2.236,0,0,1-1.813.008,1.387,1.387,0,0,1-.595-.544,1.621,1.621,0,0,1-.212-.849,1.644,1.644,0,0,1,.2-.832,1.377,1.377,0,0,1,.59-.552,2.244,2.244,0,0,1,1.814-.009,1.385,1.385,0,0,1,.594.544A1.624,1.624,0,0,1,50.511,99.13Zm-.685,0A.935.935,0,0,0,48.8,98.1a1.007,1.007,0,0,0-.751.272,1.029,1.029,0,0,0,.755,1.785,1.009,1.009,0,0,0,.752-.272A1.033,1.033,0,0,0,49.826,99.13Z"/><path class="cls-1" d="M53.571,100.635l-.644-1.125h-.863v1.125h-.636v-3.01h1.45q1.234,0,1.235.941a.876.876,0,0,1-.139.5.888.888,0,0,1-.423.316l.743,1.248Zm-.743-1.644a.882.882,0,0,0,.481-.1.363.363,0,0,0,.155-.327.355.355,0,0,0-.147-.32.9.9,0,0,0-.481-.1h-.772v.847Z"/><path class="cls-1" d="M58.334,100.635V98.582l-.942,2.053h-.508L55.942,98.6v2.036h-.607v-3.01H56.1l1.05,2.285L58.2,97.625h.751v3.01Z"/><path class="cls-1" d="M62.53,100.635l-.293-.683H60.75l-.289.683h-.682l1.351-3.01h.748l1.35,3.01Zm-1.036-2.423-.521,1.2h1.041Z"/><path class="cls-1" d="M64.781,100.635V98.186H63.624v-.561H66.6v.561H65.442v2.449Z"/><path class="cls-1" d="M67.635,100.635v-3.01H68.3v3.01Z"/><path class="cls-1" d="M72.876,99.13a1.632,1.632,0,0,1-.2.832,1.382,1.382,0,0,1-.591.553,2.236,2.236,0,0,1-1.813.008,1.379,1.379,0,0,1-.594-.544,1.622,1.622,0,0,1-.213-.849,1.644,1.644,0,0,1,.2-.832,1.38,1.38,0,0,1,.591-.552,2.242,2.242,0,0,1,1.813-.009,1.393,1.393,0,0,1,.595.544A1.624,1.624,0,0,1,72.876,99.13Zm-.685,0A.935.935,0,0,0,71.167,98.1a1.011,1.011,0,0,0-.752.272,1.029,1.029,0,0,0,.756,1.785,1.007,1.007,0,0,0,.751-.272A1.029,1.029,0,0,0,72.191,99.13Z"/><path class="cls-1" d="M76.131,100.635l-1.706-2.1v2.1h-.632v-3.01h.6l1.706,2.1v-2.1h.632v3.01Z"/><path class="cls-1" d="M79.836,100.635v-3.01h1.321a1.914,1.914,0,0,1,1.291.386,1.4,1.4,0,0,1,.444,1.119,1.37,1.37,0,0,1-.468,1.113,2.025,2.025,0,0,1-1.332.392Zm1.284-.561a1.208,1.208,0,0,0,.816-.24.89.89,0,0,0,.275-.708q0-.941-1.033-.94h-.685v1.888Z"/><path class="cls-1" d="M83.809,100.635v-3.01h2.47v.553H84.47v.632h1.722v.552H84.47v.721h1.9l-.082.552Z"/><path class="cls-1" d="M89.5,98.473a.578.578,0,0,0-.26-.31,1.016,1.016,0,0,0-.483-.095,1.271,1.271,0,0,0-.537.089.278.278,0,0,0-.186.257.264.264,0,0,0,.114.236,1.124,1.124,0,0,0,.415.122l.607.1a1.581,1.581,0,0,1,.793.31.836.836,0,0,1-.113,1.289,1.883,1.883,0,0,1-1.044.243,2.426,2.426,0,0,1-.815-.118,1.012,1.012,0,0,1-.5-.359,1.218,1.218,0,0,1-.2-.611h.665a.584.584,0,0,0,.244.432,1.08,1.08,0,0,0,.606.137,1.19,1.19,0,0,0,.548-.1.315.315,0,0,0,.183-.293.286.286,0,0,0-.121-.244.887.887,0,0,0-.386-.126l-.5-.072a1.837,1.837,0,0,1-.882-.306.747.747,0,0,1-.279-.621.713.713,0,0,1,.165-.468,1.057,1.057,0,0,1,.482-.306,2.365,2.365,0,0,1,.753-.107,1.781,1.781,0,0,1,.934.2.98.98,0,0,1,.433.643Z"/><path class="cls-1" d="M91.347,100.635v-3.01h.66v3.01Z"/><path class="cls-1" d="M95.746,99.514h-.814v-.523h1.425V100.3a2.1,2.1,0,0,1-.649.3,2.773,2.773,0,0,1-.78.108,1.874,1.874,0,0,1-1.291-.415,1.465,1.465,0,0,1-.464-1.153,1.688,1.688,0,0,1,.2-.839,1.366,1.366,0,0,1,.582-.556,1.94,1.94,0,0,1,.9-.2,1.7,1.7,0,0,1,.941.24,1.17,1.17,0,0,1,.5.687l-.661.08a.639.639,0,0,0-.283-.348,1.039,1.039,0,0,0-.514-.112.967.967,0,0,0-.729.268,1.06,1.06,0,0,0-.258.765,1.022,1.022,0,0,0,.273.772,1.116,1.116,0,0,0,.8.261,1.819,1.819,0,0,0,.818-.16Z"/><path class="cls-1" d="M99.884,100.635l-1.706-2.1v2.1h-.632v-3.01h.6l1.706,2.1v-2.1h.632v3.01Z"/><path class="cls-1" d="M106.381,99.594a1.16,1.16,0,0,1-.473.826,1.778,1.778,0,0,1-1.064.291,1.915,1.915,0,0,1-.867-.186,1.316,1.316,0,0,1-.574-.543,1.7,1.7,0,0,1-.2-.852,1.679,1.679,0,0,1,.2-.824,1.378,1.378,0,0,1,.568-.556,1.82,1.82,0,0,1,.875-.2,1.349,1.349,0,0,1,1.491,1.032l-.656.08a.818.818,0,0,0-.3-.43.964.964,0,0,0-.535-.13.909.909,0,0,0-.7.274,1.243,1.243,0,0,0,0,1.511.931.931,0,0,0,.711.272,1.036,1.036,0,0,0,.578-.14.674.674,0,0,0,.281-.425Z"/><path class="cls-1" d="M107.5,100.635v-3.01h.661v2.449h1.8l-.083.561Z"/><path class="cls-1" d="M113.035,97.625h.661v1.746a1.31,1.31,0,0,1-.358,1.007,1.944,1.944,0,0,1-2.176,0,1.314,1.314,0,0,1-.357-1.007V97.625h.66v1.783a.757.757,0,0,0,.19.569,1.064,1.064,0,0,0,1.19,0,.757.757,0,0,0,.19-.569Z"/><path class="cls-1" d="M114.8,100.635v-3.01h1.434q1.209,0,1.21.776a.641.641,0,0,1-.479.641.734.734,0,0,1,.59.716.743.743,0,0,1-.32.653,1.628,1.628,0,0,1-.935.224Zm1.438-1.808a.807.807,0,0,0,.429-.089.3.3,0,0,0,.137-.274.269.269,0,0,0-.141-.255.993.993,0,0,0-.458-.078h-.781v.7Zm.016,1.3a1,1,0,0,0,.5-.095.329.329,0,0,0,.157-.305.343.343,0,0,0-.157-.312.935.935,0,0,0-.5-.1h-.834v.814Z"/><path class="cls-1" d="M41.623,84.415v.073H32.2v-.073c1.239-.513,1.653-1.357,1.089-2.9l-1.052-2.86H21.567l-1.052,2.86c-.564,1.541-.151,2.385,1.089,2.9v.073h-9.68v-.073a4.645,4.645,0,0,0,2.654-2.861l7.7-19.8c.6-1.5.327-2.347-.913-2.861v-.073H32.539v.073C31.3,59.4,31,60.246,31.6,61.749l7.7,19.805C40,83.154,40.383,83.9,41.623,84.415ZM30.434,73.779,26.9,64.133,23.37,73.779Z"/><path class="cls-1" d="M42.676,84.415a2.991,2.991,0,0,0,1.941-3.044V61.933a3.1,3.1,0,0,0-2.075-3.045v-.073h7.716l8.425,14.23,8.389-14.23h7.716v.073a3.1,3.1,0,0,0-2.075,3.045V81.371a3.2,3.2,0,0,0,2.209,3.044v.073h-9.5v-.073a2.992,2.992,0,0,0,1.942-3.044V68.425l-8.682,14.23-8.718-14.23V81.371a2.992,2.992,0,0,0,1.942,3.044v.073H42.676Z"/><path class="cls-1" d="M77.5,84.415a3.059,3.059,0,0,0,2.069-3.044V61.933a3.071,3.071,0,0,0-2.082-3.045v-.073h9.841v.073a3.071,3.071,0,0,0-2.082,3.045V81.371a3.059,3.059,0,0,0,2.069,3.044v.073H77.5Z"/><path class="cls-1" d="M89.768,84.415a3.1,3.1,0,0,0,2.116-3.044V61.933a3.1,3.1,0,0,0-2.116-3.045v-.073H103.2c7.619,0,13.073,5.318,13.073,12.837S110.821,84.488,103.2,84.488H89.768Zm12.911-5.024a7.739,7.739,0,1,0,0-15.478H97.561V79.391Z"/><path class="cls-1" d="M131.57,79.66a8.008,8.008,0,1,1,0-16.016,11.539,11.539,0,0,1,9.2,4.624l.148-.073-1.017-7.479s-2.921-2.182-8.7-2.182c-8.045,0-13.47,5.762-13.47,13.118s5.425,13.117,13.47,13.117c5.783,0,8.939-2.07,8.939-2.07l.893-7.591-.147-.072A11.763,11.763,0,0,1,131.57,79.66Z"/></g></g></svg>