<svg xmlns="http://www.w3.org/2000/svg" viewBox="0 0 154.57 154.57"><g id="レイヤー_2" data-name="レイヤー 2"><g id="デザイン"><path d="M77.29.75A76.54,76.54,0,1,1,.75,77.29,76.54,76.54,0,0,1,77.29.75m0-.75a77.29,77.29,0,1,0,77.28,77.29A77.37,77.37,0,0,0,77.29,0Z"/><path d="M37.44,95.41l-.33-.77H35.42l-.33.77h-.77L35.85,92h.85l1.53,3.41Zm-1.18-2.74L35.67,94h1.18Z"/><path d="M39.45,95.41V92h.75v3.41Z"/><path d="M42.73,95.41V92.64H41.42V92h3.37v.64H43.48v2.77Z"/><path d="M51.34,95.41V93.09l-1.07,2.32h-.58L48.62,93.1v2.31h-.68V92h.87L50,94.59,51.18,92H52v3.41Z"/><path d="M53.61,95.41V92h2.8v.63h-2v.71h2V94h-2v.82h2.15l-.09.62Z"/><path d="M57.93,95.41V92h.75v3.41Z"/><path d="M60.25,95.41V92h1.5a2.16,2.16,0,0,1,1.46.44,1.8,1.8,0,0,1,0,2.53,2.34,2.34,0,0,1-1.51.44Zm1.46-.63a1.35,1.35,0,0,0,.92-.27,1,1,0,0,0,.31-.81c0-.71-.39-1.06-1.17-1.06H61v2.14Z"/><path d="M65.13,95.41V92h2.8v.63H65.88v.71h2V94h-2v.82H68l-.09.62Z"/><path d="M72.06,95.41,70.12,93v2.38h-.71V92h.68L72,94.39V92h.72v3.41Z"/><path d="M79,95.41V94H77.15v1.43H76.4V92h.75v1.32H79V92h.75v3.41Z"/><path d="M81.3,95.41V92h.75v3.41Z"/><path d="M86.38,94.14h-.92v-.59h1.61V95a2.35,2.35,0,0,1-.73.35,3.3,3.3,0,0,1-.89.12A2.13,2.13,0,0,1,84,95a1.68,1.68,0,0,1-.53-1.31,1.94,1.94,0,0,1,.23-1,1.55,1.55,0,0,1,.66-.63,2.19,2.19,0,0,1,1-.22,2,2,0,0,1,1.07.27A1.34,1.34,0,0,1,87,93l-.75.09a.81.81,0,0,0-.32-.4,1.26,1.26,0,0,0-.59-.12,1.09,1.09,0,0,0-.82.3,1.39,1.39,0,0,0,0,1.74,1.26,1.26,0,0,0,.91.3,2.08,2.08,0,0,0,.93-.18Z"/><path d="M91.09,95.41V94H89.26v1.43h-.75V92h.75v1.32h1.83V92h.75v3.41Z"/><path d="M97.77,93a.7.7,0,0,0-.3-.35,1.16,1.16,0,0,0-.55-.11,1.61,1.61,0,0,0-.61.1.32.32,0,0,0-.21.29.31.31,0,0,0,.13.27,1.14,1.14,0,0,0,.47.14l.69.11a1.8,1.8,0,0,1,.9.35.88.88,0,0,1,.29.69.87.87,0,0,1-.42.77A2.06,2.06,0,0,1,97,95.5a2.76,2.76,0,0,1-.93-.14,1.11,1.11,0,0,1-.56-.4,1.41,1.41,0,0,1-.23-.69H96a.73.73,0,0,0,.28.49,1.26,1.26,0,0,0,.69.15,1.43,1.43,0,0,0,.62-.11.37.37,0,0,0,.21-.33.34.34,0,0,0-.14-.28.87.87,0,0,0-.44-.14L96.67,94a2.11,2.11,0,0,1-1-.35.86.86,0,0,1-.32-.71.84.84,0,0,1,.19-.53,1.2,1.2,0,0,1,.55-.34,2.68,2.68,0,0,1,.85-.12,2,2,0,0,1,1.06.23,1.09,1.09,0,0,1,.49.73Z"/><path d="M103.4,94.23a1.28,1.28,0,0,1-.54.94,2,2,0,0,1-1.2.33,2.22,2.22,0,0,1-1-.21,1.55,1.55,0,0,1-.65-.62,2,2,0,0,1-.23-1,1.9,1.9,0,0,1,.23-.94,1.5,1.5,0,0,1,.64-.63,2.07,2.07,0,0,1,1-.22,1.53,1.53,0,0,1,1.69,1.17l-.74.09a.92.92,0,0,0-.34-.49,1.08,1.08,0,0,0-.61-.15,1,1,0,0,0-.79.31,1.22,1.22,0,0,0-.29.86,1.2,1.2,0,0,0,.29.85,1,1,0,0,0,.81.31,1.23,1.23,0,0,0,.65-.15.78.78,0,0,0,.32-.49Z"/><path d="M107.33,95.41V94h-1.82v1.43h-.75V92h.75v1.32h1.82V92h.75v3.41Z"/><path d="M113.37,93.71a1.9,1.9,0,0,1-.23.94,1.63,1.63,0,0,1-.67.63,2.38,2.38,0,0,1-1,.22,2.32,2.32,0,0,1-1-.21,1.61,1.61,0,0,1-.67-.62,2.06,2.06,0,0,1,0-1.91,1.55,1.55,0,0,1,.67-.62,2.55,2.55,0,0,1,2,0,1.61,1.61,0,0,1,.68.61A1.86,1.86,0,0,1,113.37,93.71Zm-.78,0a1.17,1.17,0,0,0-.3-.86,1.15,1.15,0,0,0-.86-.31,1.13,1.13,0,0,0-.85.31,1.17,1.17,0,0,0-.31.86,1.19,1.19,0,0,0,.31.86,1.17,1.17,0,0,0,.86.3,1.14,1.14,0,0,0,.85-.31A1.16,1.16,0,0,0,112.59,93.71Z"/><path d="M118.26,93.71a1.8,1.8,0,0,1-.23.94,1.57,1.57,0,0,1-.67.63,2.38,2.38,0,0,1-1,.22,2.25,2.25,0,0,1-1-.21,1.63,1.63,0,0,1-.68-.62,1.85,1.85,0,0,1-.24-1,1.94,1.94,0,0,1,.23-.95,1.61,1.61,0,0,1,.67-.62,2.25,2.25,0,0,1,1-.22,2.32,2.32,0,0,1,1,.21,1.59,1.59,0,0,1,.67.61A1.86,1.86,0,0,1,118.26,93.71Zm-.77,0a1.17,1.17,0,0,0-.31-.86,1.33,1.33,0,0,0-1.71,0,1.17,1.17,0,0,0-.3.86,1.18,1.18,0,0,0,.3.86,1.17,1.17,0,0,0,.86.3,1.13,1.13,0,0,0,.85-.31A1.16,1.16,0,0,0,117.49,93.71Z"/><path d="M119.63,95.41V92h.75v2.78h2l-.09.63Z"/><path d="M37.59,101.81V98.74h.68v3.07Z"/><path d="M42,101.81l-1.74-2.14v2.14h-.65V98.74h.62L42,100.89V98.74h.64v3.07Z"/><path d="M44.69,100.58v1.23H44V98.74h2.4v.57H44.69V100h1.64v.56Z"/><path d="M50.73,100.28a1.67,1.67,0,0,1-.21.85,1.41,1.41,0,0,1-.6.56,2.1,2.1,0,0,1-.94.2,2,2,0,0,1-.91-.19,1.43,1.43,0,0,1-.61-.56,1.69,1.69,0,0,1-.21-.86,1.75,1.75,0,0,1,.2-.85,1.38,1.38,0,0,1,.61-.56,1.93,1.93,0,0,1,.93-.2,2,2,0,0,1,.92.19,1.33,1.33,0,0,1,.6.55A1.61,1.61,0,0,1,50.73,100.28Zm-.7,0a1.09,1.09,0,0,0-.27-.78,1,1,0,0,0-.77-.27,1,1,0,0,0-.77.28,1.23,1.23,0,0,0,0,1.54,1.2,1.2,0,0,0,1.54,0A1,1,0,0,0,50,100.28Z"/><path d="M53.85,101.81l-.65-1.14h-.88v1.14h-.65V98.74h1.48q1.26,0,1.26,1a.81.81,0,0,1-.58.84l.76,1.27Zm-.75-1.67a.91.91,0,0,0,.49-.11.44.44,0,0,0,0-.66,1,1,0,0,0-.49-.1h-.78v.87Z"/><path d="M58.71,101.81V99.72l-1,2.09h-.52l-1-2.07v2.07h-.62V98.74h.79l1.07,2.33,1.06-2.33h.77v3.07Z"/><path d="M63,101.81l-.3-.69H61.18l-.3.69h-.69l1.38-3.07h.76l1.38,3.07Zm-1.06-2.47-.53,1.23h1.06Z"/><path d="M65.29,101.81v-2.5H64.11v-.57h3v.57H66v2.5Z"/><path d="M68.2,101.81V98.74h.68v3.07Z"/><path d="M73.55,100.28a1.67,1.67,0,0,1-.21.85,1.36,1.36,0,0,1-.6.56,2.07,2.07,0,0,1-.94.2,2,2,0,0,1-.91-.19,1.43,1.43,0,0,1-.61-.56,1.69,1.69,0,0,1-.21-.86,1.65,1.65,0,0,1,.21-.85,1.41,1.41,0,0,1,.6-.56,2,2,0,0,1,.94-.2,2,2,0,0,1,.91.19,1.41,1.41,0,0,1,.61.55A1.7,1.7,0,0,1,73.55,100.28Zm-.7,0a1.09,1.09,0,0,0-.27-.78,1,1,0,0,0-.77-.27,1,1,0,0,0-.77.28,1.23,1.23,0,0,0,0,1.54,1.2,1.2,0,0,0,1.54,0A1,1,0,0,0,72.85,100.28Z"/><path d="M76.87,101.81l-1.74-2.14v2.14h-.64V98.74h.61l1.74,2.15V98.74h.65v3.07Z"/><path d="M80.65,101.81V98.74H82a1.91,1.91,0,0,1,1.32.4,1.43,1.43,0,0,1,.45,1.14,1.38,1.38,0,0,1-.48,1.13,2,2,0,0,1-1.35.4Zm1.32-.57a1.26,1.26,0,0,0,.83-.24,1,1,0,0,0,.28-.73c0-.64-.35-1-1.06-1h-.7v1.93Z"/><path d="M84.71,101.81V98.74h2.52v.57H85.38V100h1.76v.56H85.38v.74h1.94l-.08.56Z"/><path d="M90.52,99.61a.62.62,0,0,0-.27-.32,1.09,1.09,0,0,0-.49-.1,1.17,1.17,0,0,0-.55.1.27.27,0,0,0-.19.26.26.26,0,0,0,.12.24,1.06,1.06,0,0,0,.42.12l.62.1a1.61,1.61,0,0,1,.81.32.79.79,0,0,1,.26.62.78.78,0,0,1-.38.69,1.87,1.87,0,0,1-1.06.25,2.43,2.43,0,0,1-.83-.12,1.08,1.08,0,0,1-.51-.36,1.24,1.24,0,0,1-.21-.63h.68a.6.6,0,0,0,.25.44,1.05,1.05,0,0,0,.62.14,1.19,1.19,0,0,0,.56-.1.33.33,0,0,0,.18-.3.3.3,0,0,0-.12-.25.93.93,0,0,0-.39-.13l-.51-.07a1.92,1.92,0,0,1-.9-.31.76.76,0,0,1-.28-.64.71.71,0,0,1,.16-.47,1,1,0,0,1,.5-.31,2.18,2.18,0,0,1,.76-.11,1.85,1.85,0,0,1,1,.2,1,1,0,0,1,.44.66Z"/><path d="M92.4,101.81V98.74h.67v3.07Z"/><path d="M96.89,100.67h-.83v-.53h1.45v1.33a2.23,2.23,0,0,1-.66.31,3,3,0,0,1-.8.11,1.89,1.89,0,0,1-1.31-.42,1.51,1.51,0,0,1-.48-1.18,1.65,1.65,0,0,1,.21-.85,1.3,1.3,0,0,1,.59-.57,1.92,1.92,0,0,1,.92-.2,1.75,1.75,0,0,1,1,.24,1.14,1.14,0,0,1,.51.7l-.67.08a.64.64,0,0,0-.29-.35,1,1,0,0,0-.52-.12,1,1,0,0,0-.75.28,1.1,1.1,0,0,0-.26.78,1,1,0,0,0,.28.79,1.14,1.14,0,0,0,.81.26,1.88,1.88,0,0,0,.84-.16Z"/><path d="M101.11,101.81l-1.74-2.14v2.14h-.64V98.74h.61l1.74,2.15V98.74h.65v3.07Z"/><path d="M107.74,100.75a1.16,1.16,0,0,1-.48.84,1.83,1.83,0,0,1-1.09.3,1.9,1.9,0,0,1-.88-.19,1.36,1.36,0,0,1-.59-.55,1.75,1.75,0,0,1-.2-.87,1.63,1.63,0,0,1,.2-.84,1.39,1.39,0,0,1,.58-.57,1.8,1.8,0,0,1,.89-.2,1.38,1.38,0,0,1,1.52,1l-.67.08a.82.82,0,0,0-.31-.44.94.94,0,0,0-.54-.13.91.91,0,0,0-.71.28,1.27,1.27,0,0,0,0,1.54.91.91,0,0,0,.72.28,1.09,1.09,0,0,0,.59-.14.69.69,0,0,0,.29-.44Z"/><path d="M108.88,101.81V98.74h.67v2.5h1.84l-.08.57Z"/><path d="M114.53,98.74h.68v1.78a1.36,1.36,0,0,1-.37,1,2,2,0,0,1-2.22,0,1.36,1.36,0,0,1-.36-1V98.74h.67v1.82a.75.75,0,0,0,.19.58,1.07,1.07,0,0,0,1.22,0,.75.75,0,0,0,.19-.58Z"/><path d="M116.33,101.81V98.74h1.47c.82,0,1.23.27,1.23.79a.66.66,0,0,1-.49.66.75.75,0,0,1,.61.73.78.78,0,0,1-.33.67,1.71,1.71,0,0,1-1,.22ZM117.8,100a.83.83,0,0,0,.44-.09.31.31,0,0,0,.14-.28.28.28,0,0,0-.14-.26,1.1,1.1,0,0,0-.47-.08H117V100Zm0,1.33a1,1,0,0,0,.51-.1.35.35,0,0,0,.16-.31.38.38,0,0,0-.16-.32,1,1,0,0,0-.51-.1H117v.83Z"/><path d="M41.66,85.26v.08H32.05v-.08c1.26-.52,1.68-1.38,1.11-3l-1.08-2.92H21.2l-1.08,2.92c-.57,1.57-.15,2.43,1.11,3v.08H11.36v-.08a4.71,4.71,0,0,0,2.7-2.92l7.86-20.21c.62-1.53.34-2.39-.93-2.91v-.08h11.4v.08c-1.26.52-1.57,1.38-1,2.91l7.86,20.21C40,84,40.4,84.74,41.66,85.26ZM30.24,74.41l-3.6-9.84L23,74.41Z"/><path d="M42.74,85.26a3.05,3.05,0,0,0,2-3.1V62.32a3.15,3.15,0,0,0-2.12-3.1v-.08h7.87l8.6,14.52,8.56-14.52H75.5v.08a3.14,3.14,0,0,0-2.11,3.1V82.16a3.27,3.27,0,0,0,2.25,3.1v.08H66v-.08a3.05,3.05,0,0,0,2-3.1V69L59.07,83.47,50.17,69V82.16a3,3,0,0,0,2,3.1v.08H42.74Z"/><path d="M78.27,85.26a3.13,3.13,0,0,0,2.11-3.1V62.32a3.12,3.12,0,0,0-2.13-3.1v-.08h10v.08a3.12,3.12,0,0,0-2.12,3.1V82.16a3.11,3.11,0,0,0,2.11,3.1v.08h-10Z"/><path d="M90.79,85.26A3.15,3.15,0,0,0,93,82.16V62.32a3.14,3.14,0,0,0-2.16-3.1v-.08H104.5c7.77,0,13.34,5.43,13.34,13.1s-5.57,13.1-13.34,13.1H90.79ZM104,80.14a7.9,7.9,0,1,0,0-15.8H98.74v15.8Z"/><path d="M133.44,80.41a8.17,8.17,0,1,1,0-16.34,11.78,11.78,0,0,1,9.4,4.72l.15-.08-1-7.63s-3-2.23-8.88-2.23c-8.21,0-13.75,5.88-13.75,13.39s5.54,13.38,13.75,13.38c5.9,0,9.12-2.11,9.12-2.11l.91-7.74-.15-.08A12,12,0,0,1,133.44,80.41Z"/></g></g></svg>