<svg xmlns="http://www.w3.org/2000/svg" viewBox="0 0 153.07 153.07"><defs><style>.cls-1{fill:#fff;}</style></defs><g id="レイヤー_2" data-name="レイヤー 2"><g id="デザイン"><circle cx="76.54" cy="76.54" r="76.54"/><path class="cls-1" d="M36.42,94.36l-.32-.76H34.44l-.32.76h-.75L34.87,91h.83l1.5,3.34Zm-1.15-2.69L34.69,93h1.16Z"/><path class="cls-1" d="M38.4,94.36V91h.73v3.34Z"/><path class="cls-1" d="M41.61,94.36V91.64H40.33V91h3.3v.62H42.35v2.72Z"/><path class="cls-1" d="M50,94.36V92.08l-1,2.28h-.57l-1-2.26v2.26h-.68V91h.85l1.17,2.54L49.89,91h.84v3.34Z"/><path class="cls-1" d="M52.27,94.36V91H55v.61H53v.7h1.92V93H53v.8h2.11l-.09.61Z"/><path class="cls-1" d="M56.5,94.36V91h.74v3.34Z"/><path class="cls-1" d="M58.78,94.36V91h1.47a2.09,2.09,0,0,1,1.43.43,1.76,1.76,0,0,1,0,2.48,2.27,2.27,0,0,1-1.48.43Zm1.43-.62a1.31,1.31,0,0,0,.9-.27,1,1,0,0,0,.31-.78c0-.7-.38-1-1.15-1h-.76v2.1Z"/><path class="cls-1" d="M63.56,94.36V91h2.75v.61h-2v.7h1.91V93H64.3v.8h2.11l-.09.61Z"/><path class="cls-1" d="M70.35,94.36,68.45,92v2.33h-.7V91h.67l1.9,2.34V91H71v3.34Z"/><path class="cls-1" d="M77.13,94.36V93H75.34v1.4H74.6V91h.74v1.29h1.79V91h.73v3.34Z"/><path class="cls-1" d="M79.4,94.36V91h.74v3.34Z"/><path class="cls-1" d="M84.38,93.12h-.9v-.58h1.58V94a2.4,2.4,0,0,1-.72.34,3,3,0,0,1-.87.12A2.1,2.1,0,0,1,82,94a1.66,1.66,0,0,1-.52-1.29,1.89,1.89,0,0,1,.23-.93,1.53,1.53,0,0,1,.64-.62,2.28,2.28,0,0,1,1-.22,1.85,1.85,0,0,1,1,.27A1.31,1.31,0,0,1,85,92l-.74.09a.7.7,0,0,0-.31-.38,1.09,1.09,0,0,0-.57-.13,1.06,1.06,0,0,0-.81.3,1.18,1.18,0,0,0-.29.85,1.15,1.15,0,0,0,.3.86,1.27,1.27,0,0,0,.89.29,2,2,0,0,0,.91-.18Z"/><path class="cls-1" d="M89,94.36V93H87.21v1.4h-.73V91h.73v1.29H89V91h.73v3.34Z"/><path class="cls-1" d="M95.54,92a.62.62,0,0,0-.29-.34,1.07,1.07,0,0,0-.53-.11,1.38,1.38,0,0,0-.6.1.3.3,0,0,0-.21.28.32.32,0,0,0,.13.27,1.29,1.29,0,0,0,.46.13l.68.11a1.86,1.86,0,0,1,.88.34.89.89,0,0,1,.28.68.86.86,0,0,1-.41.76,2.09,2.09,0,0,1-1.16.27,2.86,2.86,0,0,1-.9-.13,1.1,1.1,0,0,1-.55-.4,1.31,1.31,0,0,1-.23-.68h.74a.65.65,0,0,0,.27.48,1.21,1.21,0,0,0,.67.15,1.38,1.38,0,0,0,.61-.11.33.33,0,0,0,.2-.32.33.33,0,0,0-.13-.28A1.07,1.07,0,0,0,95,93l-.55-.08a2,2,0,0,1-1-.34.81.81,0,0,1-.31-.69.8.8,0,0,1,.18-.52,1.26,1.26,0,0,1,.54-.34,2.57,2.57,0,0,1,.84-.12,2,2,0,0,1,1,.23,1,1,0,0,1,.48.72Z"/><path class="cls-1" d="M101.06,93.21a1.25,1.25,0,0,1-.52.91,1.94,1.94,0,0,1-1.18.33,2.13,2.13,0,0,1-1-.21,1.52,1.52,0,0,1-.63-.6,1.91,1.91,0,0,1-.23-1,1.84,1.84,0,0,1,.22-.92,1.43,1.43,0,0,1,.63-.61,2,2,0,0,1,1-.23A1.51,1.51,0,0,1,101,92.08l-.73.09a1,1,0,0,0-.33-.48,1.16,1.16,0,0,0-.6-.14,1,1,0,0,0-.77.3,1.19,1.19,0,0,0-.29.84,1.17,1.17,0,0,0,.29.84,1,1,0,0,0,.79.3,1.19,1.19,0,0,0,.64-.15.76.76,0,0,0,.31-.47Z"/><path class="cls-1" d="M104.92,94.36V93h-1.79v1.4h-.73V91h.73v1.29h1.79V91h.73v3.34Z"/><path class="cls-1" d="M110.83,92.69a1.88,1.88,0,0,1-.22.93,1.56,1.56,0,0,1-.66.61,2.29,2.29,0,0,1-1,.22,2.19,2.19,0,0,1-1-.21,1.45,1.45,0,0,1-.66-.61,1.75,1.75,0,0,1-.24-.94,1.82,1.82,0,0,1,.23-.92,1.56,1.56,0,0,1,.65-.62,2.32,2.32,0,0,1,1-.22,2.26,2.26,0,0,1,1,.21,1.55,1.55,0,0,1,.66.61A1.75,1.75,0,0,1,110.83,92.69Zm-.76,0a1.14,1.14,0,0,0-.3-.84,1.1,1.1,0,0,0-.84-.3,1.14,1.14,0,1,0,0,2.28,1.1,1.1,0,0,0,.83-.3A1.14,1.14,0,0,0,110.07,92.69Z"/><path class="cls-1" d="M115.63,92.69a1.89,1.89,0,0,1-.23.93,1.6,1.6,0,0,1-.65.61,2.32,2.32,0,0,1-1,.22,2.26,2.26,0,0,1-1-.21,1.55,1.55,0,0,1-.66-.61,1.75,1.75,0,0,1-.23-.94,1.82,1.82,0,0,1,.22-.92,1.53,1.53,0,0,1,.66-.62,2.29,2.29,0,0,1,1-.22,2.19,2.19,0,0,1,1,.21,1.45,1.45,0,0,1,.66.61A1.75,1.75,0,0,1,115.63,92.69Zm-.76,0a1,1,0,0,0-1.14-1.14,1.1,1.1,0,0,0-.83.3,1.33,1.33,0,0,0,0,1.68,1.1,1.1,0,0,0,.84.3,1,1,0,0,0,1.13-1.14Z"/><path class="cls-1" d="M117,94.36V91h.73v2.72h2l-.1.62Z"/><path class="cls-1" d="M37.64,100.63v-3h.66v3Z"/><path class="cls-1" d="M42,100.63l-1.7-2.1v2.1h-.64v-3h.61l1.7,2.1v-2.1h.64v3Z"/><path class="cls-1" d="M44.59,99.43v1.2h-.66v-3h2.36v.55h-1.7v.69H46.2v.56Z"/><path class="cls-1" d="M50.51,99.13a1.67,1.67,0,0,1-.2.83,1.42,1.42,0,0,1-.59.55,1.92,1.92,0,0,1-.92.2,2,2,0,0,1-.9-.19,1.34,1.34,0,0,1-.59-.54,1.65,1.65,0,0,1-.21-.85,1.6,1.6,0,0,1,.2-.83,1.37,1.37,0,0,1,.59-.55,2,2,0,0,1,.92-.2,1.91,1.91,0,0,1,.89.19,1.31,1.31,0,0,1,.6.54A1.65,1.65,0,0,1,50.51,99.13Zm-.68,0a1.07,1.07,0,0,0-1.78-.76,1,1,0,0,0-.27.76,1.07,1.07,0,0,0,1.78.76A1,1,0,0,0,49.83,99.13Z"/><path class="cls-1" d="M53.57,100.63l-.64-1.12h-.87v1.12h-.63v-3h1.45c.82,0,1.23.31,1.23.94a.8.8,0,0,1-.14.5.88.88,0,0,1-.42.32l.74,1.24ZM52.83,99a.86.86,0,0,0,.48-.1.37.37,0,0,0,.15-.33.35.35,0,0,0-.14-.32,1,1,0,0,0-.48-.1h-.78V99Z"/><path class="cls-1" d="M58.33,100.63v-2l-.94,2h-.51l-.94-2v2h-.61v-3h.77l1,2.28,1.05-2.28H59v3Z"/><path class="cls-1" d="M62.53,100.63l-.29-.68H60.75l-.29.68h-.68l1.35-3h.75l1.35,3Zm-1-2.42L61,99.42h1Z"/><path class="cls-1" d="M64.78,100.63V98.19H63.62v-.56h3v.56H65.44v2.44Z"/><path class="cls-1" d="M67.63,100.63v-3h.67v3Z"/><path class="cls-1" d="M72.88,99.13a1.57,1.57,0,0,1-.21.83,1.31,1.31,0,0,1-.59.55,1.89,1.89,0,0,1-.92.2,1.91,1.91,0,0,1-.89-.19,1.36,1.36,0,0,1-.6-.54,1.65,1.65,0,0,1-.21-.85,1.6,1.6,0,0,1,.21-.83,1.31,1.31,0,0,1,.59-.55,2.2,2.2,0,0,1,1.81,0,1.34,1.34,0,0,1,.59.54A1.56,1.56,0,0,1,72.88,99.13Zm-.69,0a1.07,1.07,0,0,0-1.78-.76,1.08,1.08,0,0,0-.26.76,1.06,1.06,0,0,0,.26.76,1,1,0,0,0,.76.27,1,1,0,0,0,.75-.27A1,1,0,0,0,72.19,99.13Z"/><path class="cls-1" d="M76.13,100.63l-1.7-2.1v2.1h-.64v-3h.61l1.7,2.1v-2.1h.63v3Z"/><path class="cls-1" d="M79.84,100.63v-3h1.32a1.91,1.91,0,0,1,1.29.38,1.42,1.42,0,0,1,.44,1.12,1.34,1.34,0,0,1-.47,1.11,2,2,0,0,1-1.33.39Zm1.28-.56a1.23,1.23,0,0,0,.82-.24.88.88,0,0,0,.27-.7c0-.63-.34-.94-1-.94h-.69v1.88Z"/><path class="cls-1" d="M83.81,100.63v-3h2.47v.55H84.47v.63h1.72v.55H84.47v.72h1.9l-.08.55Z"/><path class="cls-1" d="M89.5,98.47a.62.62,0,0,0-.26-.31,1.08,1.08,0,0,0-.48-.09,1.25,1.25,0,0,0-.54.09.28.28,0,0,0-.19.25.26.26,0,0,0,.12.24,1.06,1.06,0,0,0,.41.12l.61.1a1.53,1.53,0,0,1,.79.31.76.76,0,0,1,.25.61.77.77,0,0,1-.36.68,1.88,1.88,0,0,1-1,.24,2.41,2.41,0,0,1-.82-.12,1,1,0,0,1-.49-.36,1.14,1.14,0,0,1-.21-.61H88a.57.57,0,0,0,.24.44,1.5,1.5,0,0,0,1.15,0,.3.3,0,0,0,.19-.29.27.27,0,0,0-.12-.24.85.85,0,0,0-.39-.13l-.5-.07a1.87,1.87,0,0,1-.88-.31.76.76,0,0,1-.28-.62.71.71,0,0,1,.17-.47,1,1,0,0,1,.48-.3,2.37,2.37,0,0,1,.75-.11,1.85,1.85,0,0,1,.94.2,1,1,0,0,1,.43.65Z"/><path class="cls-1" d="M91.35,100.63v-3H92v3Z"/><path class="cls-1" d="M95.75,99.51h-.82V99h1.43v1.31a2.16,2.16,0,0,1-.65.3,2.88,2.88,0,0,1-.78.11,1.9,1.9,0,0,1-1.29-.41,1.49,1.49,0,0,1-.47-1.16,1.74,1.74,0,0,1,.2-.84,1.43,1.43,0,0,1,.59-.55,1.93,1.93,0,0,1,.9-.2,1.7,1.7,0,0,1,.94.24,1.18,1.18,0,0,1,.5.69l-.66.08a.62.62,0,0,0-.28-.35,1,1,0,0,0-.52-.11,1,1,0,0,0-.73.27,1,1,0,0,0-.26.76,1,1,0,0,0,.28.77,1.09,1.09,0,0,0,.8.26,1.82,1.82,0,0,0,.82-.16Z"/><path class="cls-1" d="M99.88,100.63l-1.7-2.1v2.1h-.63v-3h.6l1.7,2.1v-2.1h.64v3Z"/><path class="cls-1" d="M106.38,99.59a1.15,1.15,0,0,1-.47.83,1.83,1.83,0,0,1-1.07.29,1.91,1.91,0,0,1-.86-.18,1.4,1.4,0,0,1-.58-.55,1.75,1.75,0,0,1-.2-.85,1.66,1.66,0,0,1,.2-.82,1.37,1.37,0,0,1,.56-.56,1.87,1.87,0,0,1,.88-.2,1.35,1.35,0,0,1,1.49,1l-.66.08a.77.77,0,0,0-.29-.43,1.05,1.05,0,0,0-.54-.13.9.9,0,0,0-.7.28,1,1,0,0,0-.25.75,1.07,1.07,0,0,0,.25.76.93.93,0,0,0,.71.27,1.06,1.06,0,0,0,.58-.14.7.7,0,0,0,.28-.43Z"/><path class="cls-1" d="M107.5,100.63v-3h.66v2.44H110l-.09.56Z"/><path class="cls-1" d="M113,97.63h.67v1.74a1.31,1.31,0,0,1-.36,1,2,2,0,0,1-2.18,0,1.31,1.31,0,0,1-.36-1V97.63h.67v1.78a.74.74,0,0,0,.19.57,1.06,1.06,0,0,0,1.18,0,.74.74,0,0,0,.19-.57Z"/><path class="cls-1" d="M114.8,100.63v-3h1.44c.8,0,1.21.25,1.21.77A.64.64,0,0,1,117,99a.74.74,0,0,1,.59.72.76.76,0,0,1-.32.65,1.65,1.65,0,0,1-.94.22Zm1.44-1.8a.79.79,0,0,0,.43-.09.31.31,0,0,0,.14-.28.27.27,0,0,0-.14-.25,1.05,1.05,0,0,0-.46-.08h-.78v.7Zm0,1.3a1,1,0,0,0,.5-.1.32.32,0,0,0,.15-.3.34.34,0,0,0-.15-.31.94.94,0,0,0-.5-.1h-.83v.81Z"/><path class="cls-1" d="M41.62,84.42v.07H32.2v-.07c1.24-.52,1.65-1.36,1.09-2.9l-1-2.86H21.57l-1.06,2.86c-.56,1.54-.15,2.38,1.09,2.9v.07H11.92v-.07a4.67,4.67,0,0,0,2.66-2.87l7.7-19.8c.6-1.5.33-2.35-.91-2.86v-.07H32.54v.07c-1.24.51-1.54,1.36-.94,2.86l7.7,19.8C40,83.15,40.38,83.9,41.62,84.42ZM30.43,73.78,26.9,64.13l-3.53,9.65Z"/><path class="cls-1" d="M42.68,84.42a3,3,0,0,0,1.94-3V61.93a3.09,3.09,0,0,0-2.08-3v-.07h7.72l8.42,14.23,8.39-14.23h7.72v.07a3.09,3.09,0,0,0-2.08,3V81.37a3.22,3.22,0,0,0,2.21,3v.07h-9.5v-.07a3,3,0,0,0,1.94-3v-13L58.68,82.65,50,68.42v13a3,3,0,0,0,1.94,3v.07H42.68Z"/><path class="cls-1" d="M77.5,84.42a3.07,3.07,0,0,0,2.06-3V61.93a3.05,3.05,0,0,0-2.08-3v-.07h9.84v.07a3.07,3.07,0,0,0-2.08,3V81.37a3.08,3.08,0,0,0,2.07,3v.07H77.5Z"/><path class="cls-1" d="M89.77,84.42a3.11,3.11,0,0,0,2.11-3V61.93a3.09,3.09,0,0,0-2.11-3v-.07H103.2c7.62,0,13.07,5.31,13.07,12.83s-5.45,12.84-13.07,12.84H89.77Zm12.91-5a7.74,7.74,0,1,0,0-15.48H97.56V79.39Z"/><path class="cls-1" d="M131.57,79.66a8,8,0,1,1,0-16,11.54,11.54,0,0,1,9.2,4.63l.15-.07-1-7.48s-2.93-2.19-8.71-2.19c-8,0-13.47,5.77-13.47,13.12s5.43,13.12,13.47,13.12c5.78,0,8.94-2.07,8.94-2.07l.89-7.59-.14-.07A11.79,11.79,0,0,1,131.57,79.66Z"/></g></g></svg>