<svg xmlns="http://www.w3.org/2000/svg" viewBox="0 0 271.28 166.66"><defs><style>.cls-1,.cls-3{fill:none;stroke-miterlimit:10;stroke-width:3px;}.cls-1{stroke:#040000;}.cls-2{fill:#fff;}.cls-3{stroke:red;}.cls-4{fill:#4ac8f4;}</style></defs><g id="レイヤー_2" data-name="レイヤー 2"><g id="レイヤー_1-2" data-name="レイヤー 1"><path d="M104.05,0,62,76.63a16.21,16.21,0,0,0,0,14l42,75.78Z"/><path class="cls-1" d="M107.51,2.34H262.9a6.89,6.89,0,0,1,6.89,6.89V158.28a6.89,6.89,0,0,1-6.89,6.89H107.51a0,0,0,0,1,0,0V2.34A0,0,0,0,1,107.51,2.34Z"/><ellipse class="cls-2" cx="87.18" cy="83.54" rx="9.26" ry="9.62"/><path class="cls-3" d="M63.3,80.1c-1.85-6.87-4.63,0-4.63,2.75s2.11,8.07,4,2.58"/><path class="cls-3" d="M79.45,80.79s-2.57.06-28.8.48c-.92,0-1.82.07-2.73.16-2.92.29-12.12.63-23.44-4.77-11.74-5.61-12.24-27.4,10.25-27.4,22.66,0,17.92,29.3-3.71,33.42C8.8,86.9,6.57,67.05,6.54,65.34"/><path class="cls-3" d="M79.45,84.28s-4.4.06-30.14-.06c0,0-10.7-.24-24.74-6.23-11.83-5-12.33-27.36,10.16-27.36S52.21,82.58,30.4,84.09,1.24,74.71,1.24,74.71"/><path class="cls-4" d="M163.91,67.66h-7.15L146,85.76l-1.61-18.1h-8.56L123.5,100.28h7.56s4.76-12.62,5.81-15.39c.19,2.91,1,15.39,1,15.39h5.46l9.1-14.9-2,14.9H160l4.78-32.62Z"/><path class="cls-4" d="M187.07,73.09h0a4.2,4.2,0,0,0,.8,3.36,2.87,2.87,0,0,0,2.23,1c2.61,0,5.29-2.91,5.74-6.22a4.45,4.45,0,0,0-.84-3.56,2.81,2.81,0,0,0-2.18-1c-2.64,0-5.27,2.94-5.75,6.42"/><path class="cls-4" d="M253.87,93.26l-.3.46c-.75,1.15-2.18,3-3.46,2.62a1,1,0,0,1-.55-1,1.76,1.76,0,0,1,0-.38s2.21-8.26,2.21-8.26a14,14,0,0,0,.31-1.6,9.48,9.48,0,0,0,.09-1.27,5,5,0,0,0-1.11-3.38A4.8,4.8,0,0,0,247.34,79a6.87,6.87,0,0,0-3.85,1.29c0-.22-.15-.78-.15-.78h-7.47L233.05,90a11.9,11.9,0,0,1-9.75,6.13,2.86,2.86,0,0,1-1.64-.46,3.1,3.1,0,0,1-.73-2.2l10.26-4.81.05-.17a4.1,4.1,0,0,0,.22-1l.06-.54a14.42,14.42,0,0,0,.15-2,6.7,6.7,0,0,0-1.41-4.55,5.53,5.53,0,0,0-4.4-1.71c-6.65,0-11.51,6.57-12.38,12.92a13.86,13.86,0,0,0-.13,1.89,10.19,10.19,0,0,0,.16,1.79,4.59,4.59,0,0,1-2.92,1,.27.27,0,0,1-.24-.09c-.33-.45.12-2.06.38-3h0l0,0,6.82-25.38h-7.84L206.46,80a3.47,3.47,0,0,0-2.71-1c-9.15,0-11.06,12-11.24,13.39a12.92,12.92,0,0,0-.13,1.83,9.33,9.33,0,0,0,.09,1.32,4.81,4.81,0,0,1-2.74.8.28.28,0,0,1-.2-.13c-.28-.44-.15-1.7.31-3.21,0,0,3.62-13.49,3.62-13.49h-7.82l-2.81,10.58c-1.8,3.76-6.5,6.09-9.82,6.1a2.79,2.79,0,0,1-1.65-.46,3.15,3.15,0,0,1-.73-2.2l10.28-4.82.05-.17a3.63,3.63,0,0,0,.22-1l.06-.53a14.56,14.56,0,0,0,.15-2A6.73,6.73,0,0,0,180,80.43a5.55,5.55,0,0,0-4.41-1.71c-6.66,0-11.53,6.58-12.4,12.94a14.15,14.15,0,0,0-.13,1.91,9.29,9.29,0,0,0,.51,3.17l.22.54c1.15,2.51,3.43,3.7,7.16,3.72a14.21,14.21,0,0,0,10.41-4.7v.17a4.55,4.55,0,0,0,.8,2.73c.86,1.18,2.36,1.78,4.45,1.78a9.17,9.17,0,0,0,5.51-1.64,13.84,13.84,0,0,0,1.24-1,5.39,5.39,0,0,0,4.79,2.64,8.87,8.87,0,0,0,6.4-2,4.38,4.38,0,0,0,3.71,2,7.22,7.22,0,0,0,4.82-1.12,6.4,6.4,0,0,0,1.57-1.69c1.27,1.91,3.39,2.82,6.64,2.83a14.14,14.14,0,0,0,10-4.3c-.37,1.41-1,3.64-1,3.64h7.86l3.55-13.29c.59-2.13,1.24-3.17,2-3.17a.49.49,0,0,1,.4.14c.09.11.23.41.13,1.2a7.59,7.59,0,0,1-.24,1.06l-1.63,6.11c-.92,3.23-.84,5.5.24,6.93.83,1.1,2.26,1.66,4.24,1.66a9.55,9.55,0,0,0,4.86-1.53,16.46,16.46,0,0,0,3.68-3.72l.19-.24Zm-31.74-5.92h0c.74-2.75,2.09-4.75,2.63-4.75.32,0,.36.54.36,1.2a9.55,9.55,0,0,1-.11,1.37c-.08.64-.23,1.52-.37,2.17l-2.87,1.35c.17-.62.35-1.31.36-1.34h0m-50.28,0h0c.74-2.75,2.09-4.75,2.63-4.75.32,0,.36.54.36,1.2a9.55,9.55,0,0,1-.11,1.37c-.08.64-.23,1.52-.37,2.17l-2.87,1.35c.17-.62.35-1.3.36-1.34h0m32.86-1.51c-.46,3.56-2.54,10.36-4.4,10.36a.18.18,0,0,1-.15-.07,2.59,2.59,0,0,1-.29-1.5,12.18,12.18,0,0,1,.11-1.56c.4-3.06,2.29-10.22,4.15-10.22a.42.42,0,0,1,.35.16c.16.18.5.81.23,2.83"/></g></g></svg>