<svg id="レイヤー_1" data-name="レイヤー 1" xmlns="http://www.w3.org/2000/svg" viewBox="0 0 500 500"><defs><style>.cls-1{fill:#83baba;}.cls-2{fill:#fff;}.cls-3{fill:#35858b;}.cls-4{fill:#14555e;}.cls-5{fill:#4fbdba;}</style></defs><rect class="cls-1" x="250" y="249.878" width="248.878" height="248.878"/><rect class="cls-2" x="284.843" y="353.162" width="22.399" height="145.594"/><rect class="cls-2" x="446.613" y="247.389" width="22.399" height="82.13" transform="translate(169.359 746.267) rotate(-90)"/><rect class="cls-2" x="391.86" y="261.077" width="22.399" height="191.636" transform="translate(46.165 759.955) rotate(-90)"/><rect class="cls-2" x="421.726" y="364.362" width="22.399" height="134.394"/><rect class="cls-3" x="250" y="1" width="248.878" height="248.878"/><polygon class="cls-2" points="498.878 122.95 476.479 122.95 476.479 70.434 272.399 70.434 272.399 122.95 250 122.95 250 48.035 498.878 48.035 498.878 122.95"/><rect class="cls-2" x="250" y="167.873" width="248.878" height="22.399"/><polygon class="cls-2" points="392.726 249.878 250 249.878 250 227.479 370.184 227.479 370.184 153.898 476.848 101.614 486.434 121.887 392.726 168.122 392.726 249.878"/><rect class="cls-2" x="272.399" y="100.338" width="204.929" height="22.399"/><polygon class="cls-2" points="296.761 1 270.897 1 311.231 70.861 330.629 59.662 296.761 1"/><polygon class="cls-2" points="362.714 1 336.849 1 377.184 70.861 396.582 59.662 362.714 1"/><polygon class="cls-2" points="454.413 1 421.982 57.173 441.38 68.372 480.277 1 454.413 1"/><rect class="cls-4" x="1.122" y="1" width="248.878" height="248.878"/><polygon class="cls-2" points="16.055 64.464 38.454 25.888 38.454 249.878 16.164 249.878 16.055 64.464"/><rect class="cls-2" x="167.87" y="-11.444" width="22.399" height="141.86" transform="translate(119.584 238.556) rotate(-90)"/><polygon class="cls-2" points="67.766 163.104 58.918 142.527 179.688 90.595 212.05 54.318 231.922 64.655 195.873 108.018 67.766 163.104"/><rect class="cls-2" x="125.664" y="73.49" width="22.399" height="180.879" transform="translate(232 -27.26) rotate(66.314)"/><polygon class="cls-2" points="250 130.001 160.203 90.635 130.308 54.318 110.437 64.655 143.976 107.979 250 154.458 250 130.001"/><polygon class="cls-2" points="120.097 252.367 175.853 252.367 250 219.839 250 195.38 120.097 252.367"/><polyline class="cls-2" points="250 174.078 250 149.619 50.36 234.469 57.337 249.878 57.946 251.122 68.432 251.122"/><polygon class="cls-2" points="127.768 1 49.551 136.476 71.104 148.92 156.506 1 127.768 1"/><rect class="cls-5" x="1.122" y="249.878" width="248.878" height="248.878"/><rect class="cls-2" x="1.122" y="285.965" width="248.878" height="22.399"/><rect class="cls-2" x="48.843" y="1" width="22.399" height="296.165"/><rect class="cls-2" x="19.788" y="297.165" width="22.399" height="201.591"/><polygon class="cls-2" points="103.175 498.756 80.776 498.756 80.776 385.516 38.454 385.516 38.454 363.117 103.175 363.117 103.175 498.756"/><rect class="cls-2" x="133.027" y="384.272" width="22.399" height="115.728"/><polygon class="cls-2" points="230.578 498.756 203.958 454.099 203.958 356.895 181.559 356.895 181.559 460.269 204.501 498.756 230.578 498.756"/><polygon class="cls-2" points="155.337 249.878 78.766 377.038 98.164 388.237 181.559 249.878 155.337 249.878"/><polygon class="cls-2" points="498.878 249.878 457.824 249.878 190.265 404.353 201.464 423.751 498.878 252.04 498.878 249.878"/><polygon class="cls-2" points="347.83 249.878 92.019 397.57 103.219 416.968 392.628 249.878 347.83 249.878"/><polygon class="cls-2" points="1.122 114.46 66.628 1 40.764 1 1.122 69.662 1.122 114.46"/></svg>