<svg xmlns="http://www.w3.org/2000/svg" viewBox="0 0 364.25 538.58"><defs><style>.cls-1{isolation:isolate;}.cls-2{fill:#ece5e1;}.cls-3{mix-blend-mode:luminosity;opacity:0.58;}.cls-4,.cls-6{font-size:28px;stroke-width:0.25px;font-family:VDL-LogoJrBlack-Black-83pv-RKSJ-H, VDL-LogoJrBlack;}.cls-4{fill:#b6b6db;stroke:#b6b6db;}.cls-10,.cls-11,.cls-4,.cls-6,.cls-8,.cls-9{stroke-miterlimit:10;}.cls-5{letter-spacing:0.35em;}.cls-6{fill:#32b3b5;stroke:#0f74b5;}.cls-7{font-size:17px;font-family:TsukuBRdGothic-Bold-83pv-RKSJ-H, Tsukushi B Round Gothic;}.cls-13,.cls-7{fill:#231815;}.cls-10,.cls-11,.cls-12,.cls-18,.cls-19,.cls-8,.cls-9{fill:none;}.cls-8{stroke:#e73118;}.cls-10,.cls-11,.cls-12,.cls-18,.cls-8,.cls-9{stroke-linecap:round;}.cls-10,.cls-11,.cls-8,.cls-9{stroke-width:1.5px;}.cls-9{stroke:#db9a46;}.cls-10{stroke:#e3d141;}.cls-11{stroke:#7ebf36;}.cls-12{stroke:#231815;}.cls-12,.cls-18,.cls-19{stroke-linejoin:round;}.cls-13{font-size:8px;font-family:KozGoPr6N-Regular-83pv-RKSJ-H, Kozuka Gothic Pr6N;}.cls-14{letter-spacing:-0.5em;}.cls-15{letter-spacing:-0.46em;}.cls-16{letter-spacing:-0.43em;}.cls-17{letter-spacing:0.25em;}.cls-18,.cls-19{stroke:#040000;stroke-width:0.1px;}</style></defs><g class="cls-1"><g id="レイヤー_2" data-name="レイヤー 2"><g id="イラスト"><rect class="cls-2" width="364.25" height="538.58"/><g class="cls-3"><text class="cls-4" transform="translate(114.34 43.82)"><tspan class="cls-5">注意事</tspan><tspan x="113.24" y="0">項</tspan></text></g><text class="cls-6" transform="translate(111.5 40.99)"><tspan class="cls-5">注意事</tspan><tspan x="113.24" y="0">項</tspan></text><text class="cls-7" transform="translate(30.21 76.35)">行動</text><line class="cls-8" x1="31.91" y1="78.93" x2="62.26" y2="78.93"/><text class="cls-7" transform="translate(30.21 236.84)">服装</text><line class="cls-9" x1="30.21" y1="239.88" x2="63.54" y2="239.88"/><text class="cls-7" transform="translate(30.21 325.65)">持ち物</text><line class="cls-10" x1="30.21" y1="328.24" x2="80.17" y2="328.24"/><text class="cls-7" transform="translate(30.98 414.22)">飛行機</text><line class="cls-11" x1="30.21" y1="417.17" x2="82.45" y2="417.17"/><line class="cls-12" x1="46.53" y1="56.68" x2="277.65" y2="56.68"/><line class="cls-12" x1="37.53" y1="218.34" x2="308.89" y2="218.34"/><line class="cls-12" x1="37.53" y1="305.69" x2="308.89" y2="305.69"/><line class="cls-12" x1="37.53" y1="393.39" x2="308.89" y2="393.39"/><line class="cls-12" x1="37.53" y1="517.1" x2="308.89" y2="517.1"/><line class="cls-8" x1="31.6" y1="84.53" x2="31.6" y2="88.82"/><line class="cls-8" x1="33.75" y1="86.68" x2="29.46" y2="86.68"/><line class="cls-8" x1="33.06" y1="85.1" x2="30.15" y2="88.25"/><line class="cls-8" x1="33.18" y1="88.14" x2="30.03" y2="85.22"/><line class="cls-8" x1="31.6" y1="96.57" x2="31.6" y2="100.87"/><line class="cls-8" x1="33.75" y1="98.72" x2="29.46" y2="98.72"/><line class="cls-8" x1="33.06" y1="97.15" x2="30.15" y2="100.29"/><line class="cls-8" x1="33.18" y1="100.18" x2="30.03" y2="97.26"/><line class="cls-8" x1="31.6" y1="120.65" x2="31.6" y2="124.95"/><line class="cls-8" x1="33.75" y1="122.8" x2="29.46" y2="122.8"/><line class="cls-8" x1="33.06" y1="121.23" x2="30.15" y2="124.37"/><line class="cls-8" x1="33.18" y1="124.26" x2="30.03" y2="121.34"/><line class="cls-8" x1="31.6" y1="132.7" x2="31.6" y2="136.99"/><line class="cls-8" x1="33.75" y1="134.84" x2="29.46" y2="134.84"/><line class="cls-8" x1="33.06" y1="133.27" x2="30.15" y2="136.42"/><line class="cls-8" x1="33.18" y1="136.3" x2="30.03" y2="133.38"/><line class="cls-8" x1="31.6" y1="145.31" x2="31.6" y2="149.6"/><line class="cls-8" x1="33.74" y1="147.46" x2="29.45" y2="147.46"/><line class="cls-8" x1="33.06" y1="145.88" x2="30.14" y2="149.03"/><line class="cls-8" x1="33.17" y1="148.91" x2="30.02" y2="146"/><line class="cls-8" x1="31.6" y1="156.35" x2="31.6" y2="160.64"/><line class="cls-8" x1="33.74" y1="158.5" x2="29.45" y2="158.5"/><line class="cls-8" x1="33.06" y1="156.92" x2="30.14" y2="160.07"/><line class="cls-8" x1="33.17" y1="159.96" x2="30.02" y2="157.04"/><line class="cls-8" x1="31.6" y1="168.56" x2="31.6" y2="172.85"/><line class="cls-8" x1="33.74" y1="170.71" x2="29.45" y2="170.71"/><line class="cls-8" x1="33.06" y1="169.13" x2="30.14" y2="172.28"/><line class="cls-8" x1="33.17" y1="172.16" x2="30.02" y2="169.25"/><line class="cls-8" x1="31.6" y1="180.6" x2="31.6" y2="184.89"/><line class="cls-8" x1="33.74" y1="182.74" x2="29.45" y2="182.74"/><line class="cls-8" x1="33.06" y1="181.17" x2="30.14" y2="184.31"/><line class="cls-8" x1="33.17" y1="184.2" x2="30.02" y2="181.28"/><line class="cls-8" x1="31.6" y1="192.44" x2="31.6" y2="196.73"/><line class="cls-8" x1="33.74" y1="194.58" x2="29.45" y2="194.58"/><line class="cls-8" x1="33.06" y1="193.01" x2="30.14" y2="196.16"/><line class="cls-8" x1="33.17" y1="196.04" x2="30.02" y2="193.13"/><line class="cls-8" x1="31.6" y1="204.56" x2="31.6" y2="208.85"/><line class="cls-8" x1="33.74" y1="206.71" x2="29.45" y2="206.71"/><line class="cls-8" x1="33.06" y1="205.13" x2="30.14" y2="208.28"/><line class="cls-8" x1="33.17" y1="208.17" x2="30.02" y2="205.25"/><line class="cls-11" x1="31.6" y1="422.69" x2="31.6" y2="426.98"/><line class="cls-11" x1="33.75" y1="424.83" x2="29.46" y2="424.83"/><line class="cls-11" x1="33.06" y1="423.26" x2="30.15" y2="426.41"/><line class="cls-11" x1="33.18" y1="426.29" x2="30.03" y2="423.37"/><line class="cls-11" x1="31.6" y1="434.73" x2="31.6" y2="439.02"/><line class="cls-11" x1="33.75" y1="436.87" x2="29.46" y2="436.87"/><line class="cls-11" x1="33.06" y1="435.3" x2="30.15" y2="438.45"/><line class="cls-11" x1="33.18" y1="438.33" x2="30.03" y2="435.42"/><line class="cls-11" x1="31.6" y1="458.38" x2="31.6" y2="462.68"/><line class="cls-11" x1="33.74" y1="460.53" x2="29.45" y2="460.53"/><line class="cls-11" x1="33.06" y1="458.96" x2="30.14" y2="462.1"/><line class="cls-11" x1="33.17" y1="461.99" x2="30.02" y2="459.07"/><line class="cls-11" x1="31.6" y1="482.63" x2="31.6" y2="486.92"/><line class="cls-11" x1="33.74" y1="484.77" x2="29.45" y2="484.77"/><line class="cls-11" x1="33.06" y1="483.2" x2="30.14" y2="486.35"/><line class="cls-11" x1="33.17" y1="486.23" x2="30.02" y2="483.32"/><line class="cls-11" x1="31.6" y1="494.47" x2="31.6" y2="498.76"/><line class="cls-11" x1="33.74" y1="496.62" x2="29.45" y2="496.62"/><line class="cls-11" x1="33.06" y1="495.04" x2="30.14" y2="498.19"/><line class="cls-11" x1="33.17" y1="498.08" x2="30.02" y2="495.16"/><line class="cls-11" x1="31.6" y1="506.59" x2="31.6" y2="510.89"/><line class="cls-11" x1="33.74" y1="508.74" x2="29.45" y2="508.74"/><line class="cls-11" x1="33.06" y1="507.17" x2="30.14" y2="510.31"/><line class="cls-11" x1="33.17" y1="510.2" x2="30.02" y2="507.28"/><line class="cls-10" x1="31.6" y1="334.11" x2="31.6" y2="338.4"/><line class="cls-10" x1="33.75" y1="336.26" x2="29.46" y2="336.26"/><line class="cls-10" x1="33.06" y1="334.68" x2="30.15" y2="337.83"/><line class="cls-10" x1="33.18" y1="337.71" x2="30.03" y2="334.8"/><line class="cls-10" x1="31.6" y1="358.15" x2="31.6" y2="362.44"/><line class="cls-10" x1="33.75" y1="360.3" x2="29.46" y2="360.3"/><line class="cls-10" x1="33.06" y1="358.72" x2="30.15" y2="361.87"/><line class="cls-10" x1="33.18" y1="361.76" x2="30.03" y2="358.84"/><line class="cls-10" x1="31.6" y1="370.23" x2="31.6" y2="374.52"/><line class="cls-10" x1="33.75" y1="372.38" x2="29.46" y2="372.38"/><line class="cls-10" x1="33.06" y1="370.8" x2="30.15" y2="373.95"/><line class="cls-10" x1="33.18" y1="373.84" x2="30.03" y2="370.92"/><line class="cls-10" x1="31.6" y1="382.27" x2="31.6" y2="386.57"/><line class="cls-10" x1="33.75" y1="384.42" x2="29.46" y2="384.42"/><line class="cls-10" x1="33.06" y1="382.85" x2="30.15" y2="385.99"/><line class="cls-10" x1="33.18" y1="385.88" x2="30.03" y2="382.96"/><line class="cls-9" x1="31.6" y1="244.61" x2="31.6" y2="248.9"/><line class="cls-9" x1="33.75" y1="246.76" x2="29.46" y2="246.76"/><line class="cls-9" x1="33.06" y1="245.18" x2="30.15" y2="248.33"/><line class="cls-9" x1="33.18" y1="248.22" x2="30.03" y2="245.3"/><line class="cls-9" x1="31.6" y1="256.63" x2="31.6" y2="260.92"/><line class="cls-9" x1="33.75" y1="258.78" x2="29.46" y2="258.78"/><line class="cls-9" x1="33.06" y1="257.2" x2="30.15" y2="260.35"/><line class="cls-9" x1="33.18" y1="260.24" x2="30.03" y2="257.32"/><line class="cls-9" x1="31.6" y1="280.73" x2="31.6" y2="285.02"/><line class="cls-9" x1="33.75" y1="282.88" x2="29.46" y2="282.88"/><line class="cls-9" x1="33.06" y1="281.31" x2="30.15" y2="284.45"/><line class="cls-9" x1="33.18" y1="284.34" x2="30.03" y2="281.42"/><line class="cls-9" x1="31.6" y1="292.77" x2="31.6" y2="297.07"/><line class="cls-9" x1="33.75" y1="294.92" x2="29.46" y2="294.92"/><line class="cls-9" x1="33.06" y1="293.35" x2="30.15" y2="296.49"/><line class="cls-9" x1="33.18" y1="296.38" x2="30.03" y2="293.46"/><text class="cls-13" transform="translate(36.76 89.52)">団体で行動するので自分勝手な行動をしない<tspan class="cls-14" x="160" y="0">。</tspan><tspan x="0" y="12">集合や点呼は５分前集合を守り、速やかに行動する。一人でも揃わなければ</tspan><tspan class="cls-14" x="272" y="12">、</tspan><tspan x="0" y="24">全体に迷惑をかけ重大な支障をきたすことになるので、自覚を持って行動すること</tspan><tspan class="cls-14" x="296" y="24">。</tspan><tspan x="0" y="36">公共の場では見学場所の規則や係員の指示に従って行動すること</tspan><tspan class="cls-14" x="232" y="36">。</tspan><tspan x="0" y="48">お礼をきちんとし、礼儀正しくすること</tspan><tspan class="cls-14" x="144" y="48">。</tspan><tspan x="0" y="60">他校の生徒や旅行者とのトラブルに注意し、特に服装や言動には気をつけること</tspan><tspan class="cls-14" x="288" y="60">。</tspan><tspan x="0" y="72">班長・部屋長の指示に必ず従うこと</tspan><tspan class="cls-14" x="128" y="72">。</tspan><tspan x="0" y="84">食事</tspan><tspan class="cls-15" x="16" y="84">、</tspan><tspan x="20.29" y="84">入浴</tspan><tspan class="cls-15" x="36.29" y="84">、</tspan><tspan x="40.59" y="84">就寝時以外は終日マスクを着用すること</tspan><tspan class="cls-14" x="184.59" y="84">。</tspan><tspan x="188.59" y="84">（ホテルの部屋内でも着用する</tspan><tspan class="cls-14" x="300.59" y="84">）</tspan><tspan x="0" y="96">朝食前と夕食後に検温して</tspan><tspan class="cls-16" x="96" y="96">、</tspan><tspan x="100.59" y="96">発熱や体調不良があれば必ず担任の先生に連絡すること</tspan><tspan class="cls-14" x="300.59" y="96">。</tspan><tspan x="0" y="108">ホテルや訪問施設などでは、可能な範囲で密をさけるようにすること</tspan><tspan class="cls-14" x="248" y="108">。</tspan><tspan x="0" y="120">食事の前後や訪問先では、消毒や手洗いを徹底すること</tspan><tspan class="cls-14" x="200" y="120">。</tspan></text><text class="cls-13" transform="translate(36.76 250)">服装は本校指定の制服とする<tspan class="cls-14" x="104" y="0">。</tspan><tspan x="0" y="12">靴は学校指定のローファー又は華美ではない運動靴とする</tspan><tspan class="cls-14" x="208" y="12">。</tspan><tspan x="212" y="12">（ガマの見学があるため</tspan><tspan x="0" y="24">運動靴が望ましい</tspan><tspan class="cls-14" x="64" y="24">）</tspan><tspan x="0" y="36">民家、ホテル内の私服着用は認める。ただし常識の範囲内とする</tspan><tspan class="cls-14" x="232" y="36">。</tspan><tspan x="0" y="48">装飾品（ピアス、指輪等）は見つけ次第没収する</tspan><tspan class="cls-14" x="176" y="48">。</tspan></text><text class="cls-13" transform="translate(36.76 338.82)">ガマの用意は移動用のリュックや袋に入れ<tspan class="cls-17" x="152" y="0">て1</tspan><tspan x="168.41" y="0">つにまとめ、沖縄到着後すぐに取り出</tspan><tspan x="0" y="12">せるようにしておくこと</tspan><tspan class="cls-14" x="88" y="12">。</tspan><tspan x="0" y="24">金銭は必要最小限にすること。また、友人間での貸し借りをしないこと</tspan><tspan class="cls-14" x="256" y="24">。</tspan><tspan x="0" y="36">貴重品の管理は各自で行うこと</tspan><tspan class="cls-14" x="112" y="36">。</tspan><tspan x="0" y="48">鞄は各自持っている旅行用鞄でよいが、必ずクラス別ネームプレートつけること</tspan><tspan class="cls-14" x="288" y="48">。</tspan></text><text class="cls-13" transform="translate(37.53 427.38)"><tspan class="cls-17">X</tspan><tspan x="6.88" y="0">線検査で身体チェックを受けるので、貴金属は身に着けないこと</tspan><tspan class="cls-14" x="238.88" y="0">。</tspan><tspan x="0" y="12">貴重品やカメラ、予備バッテリー類（スマホ用バッテリーやデジカメなどのリチウム</tspan><tspan x="0" y="24">電池・リチウムイオン電池）は手荷物として機内に持ち込むこと</tspan><tspan class="cls-14" x="232" y="24">。</tspan><tspan x="0" y="36">手荷物として機内に持ち込めないもの（例：カッターナイフ、ハサミ、爪切り、安全</tspan><tspan x="0" y="48">ピン等）は必要な場合は預ける荷物に入れる</tspan><tspan class="cls-14" x="160" y="48">。</tspan><tspan x="0" y="60">勝手に席を替わったり、むやみに立ち歩かないこと</tspan><tspan class="cls-14" x="184" y="60">。</tspan><tspan x="0" y="72">機内では携帯電話などの通信機器の電源を切ること</tspan><tspan class="cls-14" x="184" y="72">。</tspan><tspan x="0" y="84">機内放送や客席乗務員の指示に従うこと</tspan><tspan class="cls-14" x="144" y="84">。</tspan></text><path id="path01" class="cls-18" d="M93.93,71.3s0,.16,0,.17a.75.75,0,0,0,.16.13.38.38,0,0,1,.19.06.07.07,0,0,1,0,.06.07.07,0,0,1-.07,0,.67.67,0,0,1-.3-.06h0M93.7,70.5v0c0,.1,0,.34,0,.47a1.86,1.86,0,0,0,.11.53s.1.11.15.16m0,0h0l.09.09a.5.5,0,0,0,.3,0h0s0-.06,0-.09m0,.1.11,0s0,0,0,0a.08.08,0,0,0,0-.1l-.24-.13-.11-.19m.14-.37a.62.62,0,0,0,0,.29,1,1,0,0,0,.06.23s.25.14.28.18.06.1-.06.09M94,71.4l0,.16m.11-.64a.21.21,0,0,0,.08.11l0,0a1,1,0,0,1,0,.37c0,.19.16.2.21.16s0-.35,0-.42a2.07,2.07,0,0,0,0-.35c0-.07,0-.17-.08-.25m-.47.49L94,70.9a1.28,1.28,0,0,0,.09-.28M98,62.81l-.19-.46-.08,0h0a4.05,4.05,0,0,0-.64-.09,2,2,0,0,0-.69.08h0l-.11,0-.14.43-1.45.62a.24.24,0,0,0-.08.06.37.37,0,0,0,0,.11l-.24,1.11a.2.2,0,0,1,0,.08l0,.06a.15.15,0,0,0,0,.18l0,.06a.22.22,0,0,1,0,.16c-.13.59-.25,1.86-.31,2.36s-.24,2.29-.26,2.6a.27.27,0,0,0,.07.22.25.25,0,0,0,.16.1l.1,0a1.11,1.11,0,0,0,.63-.12l0,0a.14.14,0,0,0,0-.1c0-.41.14-1.86.31-3.23,0-.15,0-.3.06-.43m-.2-2.2a2.35,2.35,0,0,0-.29-1h0M99,64.83s0,.17,0,.34,0,.25,0,.4,0,.22,0,.33M95,65.21c0,.14,0,.86.06,1.42h0c0,.25,0,.46,0,.59,0,.39-.11,1.72-.15,2.06l-.09.87.06,0a7.56,7.56,0,0,0,2.2.47,9.33,9.33,0,0,0,1.81-.24H99v0c0-.12,0-.7-.08-1.27m-2,0,0-1.48m0-2.65,0-1.09m2.5-.35a1.75,1.75,0,0,0-.26.75m-5.27,5.43a.08.08,0,0,0-.07.08.07.07,0,0,0,.07.07.08.08,0,0,0,.08-.07S93.86,69.67,93.81,69.66Zm0,.27a.08.08,0,0,0-.08.07.08.08,0,0,0,.07.08.08.08,0,0,0,.08-.08A.07.07,0,0,0,93.79,69.93Zm5.74-.31a.07.07,0,0,0-.07.07.07.07,0,1,0,.14,0A.07.07,0,0,0,99.53,69.62Zm0,.25a.07.07,0,0,0-.07.06.07.07,0,0,0,.07.06s.06,0,.06-.06A.06.06,0,0,0,99.52,69.87Zm-5.83.54v.12h0a1.7,1.7,0,0,0,.42.09h0a.76.76,0,0,0,.27-.05l.15-.06v-.1m4.56,0,.22,0h.07c.14,0,.16-.08.16-.08v-.08m-.37-5-.2.26M94.27,65a1.37,1.37,0,0,0,.43.45m.17,4.68a11.43,11.43,0,0,0-.07,1.46c0,.32,0,1,.07,1.63,0,.41,0,.76,0,.89s0,.4,0,.78c0,.8,0,1.94,0,2.17s-.06,1.35-.06,1.45-.07.56-.07.72h0a.9.9,0,0,0,.3.53,2.77,2.77,0,0,0,.74.32.23.23,0,0,0,.14,0h0A.18.18,0,0,0,96,80a3.36,3.36,0,0,0,.14-.78c0-.15.13-.65.13-.79s.15-.84.15-.93.15-1.94.26-2.5c0-.2.11-.73.19-1.33M97,72.05l-.13,1.64c0,.06,0,.1,0,.12,0,.28.2,1.71.23,1.91s.24,1.86.32,2a6.14,6.14,0,0,1,0,1.21A3.78,3.78,0,0,0,97.71,80l0,0c.08.07.2.06.39,0a1.47,1.47,0,0,0,.81-.68l0,0a.37.37,0,0,0,0-.18c0-.06,0-.65-.06-.93s.16-1.37.1-1.93,0-1.06,0-1.46m-4.25,4.5-.21,0c-.08,0-.19,0-.24.23a.54.54,0,0,0,0,.2.23.23,0,0,0,.06.16.92.92,0,0,0,.45.17.87.87,0,0,1,.31.11c.09.06.65.21.78.07a.33.33,0,0,0,.06-.1m-1.66-.41a.37.37,0,0,0,0,.18c0,.12.15.2.25.23s.26,0,.31.05v.07s0,.06.2.17a1.46,1.46,0,0,0,.61.15l.25,0a.12.12,0,0,0,.07-.1v-.29M97.74,80a.19.19,0,0,0,0,.08h0a.37.37,0,0,0,.07.14c.13.14.7,0,.79-.07a.75.75,0,0,1,.3-.11,1,1,0,0,0,.46-.17.28.28,0,0,0,0-.16.39.39,0,0,0,0-.2c0-.2-.16-.23-.24-.23l-.19,0m-1.21.82h0v.33a.12.12,0,0,0,.07.1l.25,0a1.46,1.46,0,0,0,.61-.15c.2-.11.21-.17.21-.17v-.07c.05,0,.21,0,.31-.05s.24-.11.25-.23a.37.37,0,0,0,0-.18M97.7,62.33h0a1,1,0,0,0-.63-.16,1.42,1.42,0,0,0-.69.12h0l0,0m1.36,0a1.28,1.28,0,0,1,0-.22c0-.12.06-.26.06-.26a.51.51,0,0,0,.26-.16.76.76,0,0,0,.06-.49c0-.06,0-.07-.08-.06m-2,0s0,0,0,.06a.76.76,0,0,0,.06.49.53.53,0,0,0,.27.16s0,.15.06.27v.17m-.06-.44-.08-.16m1.53.16.07-.21m1.56,7.93v.76M94,69.61l-.07.92m5.77-3.76c0-.57,0-1.1,0-1.5A4.45,4.45,0,0,0,99.55,64l-.13-.44a.39.39,0,0,0-.08-.1.24.24,0,0,0-.11-.06A1,1,0,0,1,99,63.3m-.17-.1c-.3-.16-.86-.39-.86-.39a4.3,4.3,0,0,0-1-.13,2.8,2.8,0,0,0-.94.11M99,70.36h.32l.11,0,.05,0,.15-.08,0,0s0-.89.06-2m-2.56-7.35.12.14,0-.09.17.09v-.11m.45-.77a1.43,1.43,0,0,0-.64-.39s0-.09,0-.07-.1.07-.09,0,0-.14,0-.1-.17.11-.16.09,0-.13,0-.08-.09.08-.13.11a1,1,0,0,0-.5.24.82.82,0,0,0-.32.42h0a1.3,1.3,0,0,1-.18.35c-.06,0,.06.05.12,0h0c.05,0,0,.13,0,.17s0,.09.06,0A.12.12,0,0,0,96,61l0,.14a3.52,3.52,0,0,0,.25.53.71.71,0,0,0,.1.14.32.32,0,0,1,.06.23l.06-.17a1.13,1.13,0,0,1,.07.15s.06-.1.06-.1a.8.8,0,0,0,.18.15l.06-.07.07.1.14-.11,0,.1.2-.14v.12l.2-.09c0,.06.12.1.12.1v0a.68.68,0,0,1,.1-.27,1.19,1.19,0,0,0,.08-.16l.09-.2c0-.11.08-.21.11-.29a2,2,0,0,0,.07-.21.94.94,0,0,0,0-.48c.06,0,.2-.09.11-.09s-.16-.1-.23-.17h0l-.07-.07m.31,5-.33-.36-.09-.09a.34.34,0,0,0-.09-.08l-.12,0a.38.38,0,0,0-.15,0l-.2,0a.41.41,0,0,0-.29.22l-.06.13-.75,1.48a.39.39,0,0,0,.07.46l.72.71L98.39,69a.33.33,0,0,0,.3.09l.18,0,.48-.1a.27.27,0,0,0,.16-.1.22.22,0,0,0,0-.11l.11-.58h0l.2-1a.41.41,0,0,0-.1-.34l-.06-.07-.66-.72m-.69-.75.43.47.09.1,0,0h0m-1.39-1.28L97,66.22a.43.43,0,0,0,.11.43l.38.36.25.23.94.89.22.21.51.48M96.2,66.56l.62-.08m.69.53.68-1.9.64-1.81,0-.08h0m-.16,4.92L98.91,66h0v0h0a1.22,1.22,0,0,0,0-.32v0m0,2.77.13-2.29V66a4.21,4.21,0,0,0,0-.45L99,65.17m-.12-1.87h0a5.28,5.28,0,0,0-.44.62c-.18.27-.37.57-.53.83m-.1,2.49.6-1.94.64-2h0a.08.08,0,0,0,0-.09h0a.09.09,0,0,0-.1,0l0,0a6,6,0,0,0-1.15,1.38m1.75,5.79-.06.74v.09m-.49-.8c.12.26.34.73.49.8h0M98.94,75s0-.12,0-.26c.09-.58.31-1.91.35-2.13a8.4,8.4,0,0,0,.12-1.22,1.29,1.29,0,0,0-.07-.31M98.28,73a15.19,15.19,0,0,0,.94-1.46m-.39,2.06c.09-.19.36-1.31.36-1.31M95.3,70.71s.86.24,1.18.3m-1.62,3.92a10.13,10.13,0,0,0,.86,1.87"/><path id="path02" class="cls-18" d="M83.11,70.74a.68.68,0,0,1-.17-.17,2,2,0,0,1-.11-.55c0-.14,0-.41,0-.53m.25,1.25h0a.77.77,0,0,0,.32.07.08.08,0,0,0,.07,0s0,0,0-.07a.3.3,0,0,0-.19,0,.7.7,0,0,1-.18-.14s0-.17,0-.18m0,.41h0a.3.3,0,0,0,.09.1.63.63,0,0,0,.31,0h0s0-.07,0-.1m0,.11.12,0a0,0,0,0,0,.06,0,.12.12,0,0,0,0-.11l-.25-.14-.12-.19m.15-.4a.6.6,0,0,0,0,.31.71.71,0,0,0,.06.24s.26.15.3.19,0,.11-.06.1m-.5-.44,0,.16m.11-.67a.23.23,0,0,0,.09.11s0,0,0,0a2,2,0,0,1,0,.39c0,.2.16.2.21.16s0-.36,0-.44a2.4,2.4,0,0,0,0-.37c0-.07-.08-.27-.12-.37m-.46.62a1.54,1.54,0,0,0,.19-.5m6,.76a.55.55,0,0,1,0,.18.7.7,0,0,1-.18.14.3.3,0,0,0-.19,0s0,0,0,.07a.07.07,0,0,0,.06,0,.78.78,0,0,0,.33-.07h0a.68.68,0,0,0,.17-.17,2,2,0,0,0,.11-.55c0-.09,0-.24,0-.36M89,70.77s0,.08,0,.1h0a.63.63,0,0,0,.31,0,.3.3,0,0,0,.09-.1m-.17-.3-.12.19-.25.14a.12.12,0,0,0,0,.11,0,0,0,0,0,.06,0l.12,0m-.18,0c-.12,0-.1-.06-.06-.1s.28-.15.3-.19a1.05,1.05,0,0,0,.06-.24A.6.6,0,0,0,89,70m.24.4,0,.16m-.41-1c0,.08,0,.17-.06.21a2.4,2.4,0,0,0,0,.37c0,.08,0,.4,0,.44s.19,0,.21-.16a2,2,0,0,1,0-.39l0,0a.23.23,0,0,0,.09-.11m.05-.24a1.38,1.38,0,0,0,.17.38M84.14,78.2s0-.09,0-.15c0-.49,0-1.73,0-2s.14-.91.16-1.16.07-1.45.06-1.73S84.2,72,84.14,71.3a9.24,9.24,0,0,1,0-1.39m1.06,8.4a.49.49,0,0,1,0-.12,9,9,0,0,1,.21-1.06,10.75,10.75,0,0,0,.15-1.31c0-.28.23-1.12.28-1.5S86,72.88,86,72.6s.18-1.45.23-1.9c0-.06,0-.1,0-.13a5,5,0,0,0,0-.51m-.51,4-.2.16m.16.2-.09,0m-1.26-.25.21.06m0,.1-.18,0m2.18-3.82c.16,0,.88-.29.88-.29m-1.24.43c.06.53.18,1.5.24,1.7s.11,1.51.21,2,.28,1.61.35,2.07a13.54,13.54,0,0,0,.34,1.81l0,0m1-8.37c0,.26,0,.89-.07,1.51-.08.8-.22,2.45-.2,2.76s.17.9.22,1.41.06,2,0,2.46v.07m-4.28-.11a.84.84,0,0,0-.08.31.37.37,0,0,0,.15.26l.08,0a1.3,1.3,0,0,0,.5.12.64.64,0,0,0,.3,0,.79.79,0,0,0,.18-.12c.06-.06,0-.32,0-.39l0,0m-1.13-.06a.28.28,0,0,0,0,.07.67.67,0,0,0,.43.15c.43.05.58,0,.65,0h0m2.18,0a2.16,2.16,0,0,0,0,.36s0,.09.18.11h.06a2,2,0,0,0,.71-.09h0a.28.28,0,0,0,.14-.16s0-.37-.12-.4m-1,.22h0a1.29,1.29,0,0,0,.42,0,1.34,1.34,0,0,0,.56-.17l0,0M84.09,62.42l-.07,0a3.61,3.61,0,0,0-.3.25.8.8,0,0,0-.2.29,10.89,10.89,0,0,0-.34,1.41c-.08.49-.42,2.65-.46,3.1s-.07.77-.07.86a.25.25,0,0,0,.11.16l.08,0a1.43,1.43,0,0,0,.64.1c.12-.05.22-.34.26-.71s.22-1.26.36-2c0-.17.06-.33.09-.46m.27,1.11a1.09,1.09,0,0,1-.09-.25l-.18-.86c-.07-.29-.14-.62-.21-.92a2.88,2.88,0,0,0-.28-.91m.63,2.87a2.39,2.39,0,0,0-.2.56c-.09.42-.2,1.68-.21,1.79s.13.33.16.47a.07.07,0,0,0,0,0,.58.58,0,0,0,.23.06m.23,0h.17m-.63-.1c0,.11,0,.28,0,.4a.11.11,0,0,0,.06.1l0,0h.14m.24,0,1.7.11h.47A12.92,12.92,0,0,0,88.39,70h0a.11.11,0,0,0,.08-.13l0-.39m-.11-4c0,.2.06.44.09.67s.08.6.09.71.06.81.09,1.19c0,.13,0,.23,0,.28a.76.76,0,0,0,.15.4.28.28,0,0,0,.11.08.91.91,0,0,0,.76-.08l0,0c.2-.19.11-1.3,0-1.91s-.39-2.38-.47-3a2.31,2.31,0,0,0-.34-1,1.08,1.08,0,0,0-.47-.42h0l0,0m.35.84a4.93,4.93,0,0,0-.3,1.32c0,.34-.08.68-.1.89h0v.06a8.19,8.19,0,0,1-.13,1m-.37,3,.38,0a.58.58,0,0,0,.23-.1.29.29,0,0,0,.11-.2,8,8,0,0,0,0-1.19,6.09,6.09,0,0,0-.31-1.33m-5.51,1.83c0,.16,0,.84,0,.89a.18.18,0,0,0,.08.06,1.27,1.27,0,0,0,.34.05.84.84,0,0,0,.38-.09v0a3.94,3.94,0,0,0-.08-.61.25.25,0,0,0,0-.14m5.31,0a2.78,2.78,0,0,1,0,.39c0,.16,0,.43,0,.47s0,0,0,0a1.4,1.4,0,0,0,.35.08h0a1.76,1.76,0,0,0,.41,0s0,0,0,0,0-.69,0-.91M84,64.59a3,3,0,0,0-.43-.34m5.2-.18a5.3,5.3,0,0,0-.3.5m-.64-2.51c.06-.07.09-.13.08-.16s-.17-.24-.18-.35a.42.42,0,0,0-.13-.39.93.93,0,0,0-.23-.19,2.09,2.09,0,0,0-.87-.29,1.91,1.91,0,0,0-1,0,2.21,2.21,0,0,0-.27.12h0a1.37,1.37,0,0,0-.41.35,4,4,0,0,0-.24.52c0,.07-.18.21-.1.38h0a2,2,0,0,0,1.1.59,2.4,2.4,0,0,0,.4.06,2.15,2.15,0,0,0,1.41-.28l.08-.06a2,2,0,0,0,.39-.37m-.7-.93a2.62,2.62,0,0,0-1-.25A1.88,1.88,0,0,0,85,61.2m-.57.92a1.55,1.55,0,0,0-.37.26.36.36,0,0,0,0,.09m1.07,1.13-.73-1a.56.56,0,0,0-.27-.22h0m1.85.85c-.12-.19-.31-.45-.38-.56m1.89-.28-.58.84m1.6-.84h0c0-.08-.15-.19-.24-.25a1.27,1.27,0,0,0-.39-.12h0m.6.33v0c-.07.09-.43.56-.5.69a2.14,2.14,0,0,0-.16.51m-3.15,5.74.17.16a1.38,1.38,0,0,0,.28.19,4.49,4.49,0,0,0,1.72.3h.13a2.21,2.21,0,0,0,1-.44,1.25,1.25,0,0,0,.48-.59,4.78,4.78,0,0,0,0-.56c0-.41,0-1-.09-1.62a2,2,0,0,1,0-.25h0a26.07,26.07,0,0,0-.31-2.7.61.61,0,0,0-.17-.23,1.07,1.07,0,0,0-.38-.23,2.18,2.18,0,0,0-.52-.1l-.48,0a4,4,0,0,0-.45,0,1.83,1.83,0,0,0-.39.09,1.46,1.46,0,0,0-.43.24.54.54,0,0,0-.19.22c0,.16-.26,1.56-.44,2.8v.11c-.1.68-.19,1.3-.23,1.62,0,.12,0,.2,0,.22a.92.92,0,0,0,.18.5,2.55,2.55,0,0,0,.21.28m-.37-1h0a5.29,5.29,0,0,0,2.24.46,4.06,4.06,0,0,0,1.87-.4m-3.12-1.06.06,0,.11,0a4.74,4.74,0,0,0,1.08.12,5.44,5.44,0,0,0,1.29-.16m.16-2.68s0-1.16-1.5-1.16-1.49,1-1.49,1m2.19,9.54L86.86,74m.8.33.32.1m-.22-.28h.16m-2.65-6.74-.06.27a.07.07,0,0,0,.05.09.06.06,0,0,0,.08-.06l0-.28M84.1,66a3.5,3.5,0,0,0,.23.58,1.4,1.4,0,0,0,.12.18m3.79.06h0l0-.08c.06-.17.12-.39.17-.57m-4.06,2.93,0,.4v.47l0,.72h.27V69.35h0M87.35,61a1.88,1.88,0,0,1,.23-.36h.11l0-.16s.15,0,.1-.06a1.47,1.47,0,0,1-.32-.66,1.87,1.87,0,0,0-.59-1,.55.55,0,0,0-.53-.08,1.05,1.05,0,0,0-.83.09A3.22,3.22,0,0,0,85,60c-.1.38-.25.42-.2.42a.47.47,0,0,1,.23.12s0,.19.12.3h0m1.29-.38.08.09.11-.07.25.09L87,60.5l.13.09.09-.08m-3,18.59a.19.19,0,0,0,0-.08s0-.06,0-.09a2.54,2.54,0,0,0,0-.26m.8.08v.55m-.81-.37a1.12,1.12,0,0,0-.32.24,1,1,0,0,1-.35.2.42.42,0,0,0-.24.34v.07h0a.21.21,0,0,0,.14.23c.14.06.37.1.49.16a.4.4,0,0,0,.35.1c.24,0,.68-.19.9-.11s0-.35,0-.6a.61.61,0,0,0-.15-.31m-1.72.53h0c0,.12,0,.24.09.31a1.59,1.59,0,0,0,.4.16.57.57,0,0,1,.25.17,1,1,0,0,0,.44.14,2.7,2.7,0,0,0,.65-.07.18.18,0,0,0,.12-.22.33.33,0,0,0-.07-.11m0,.22a.62.62,0,0,0-.26,0,1.11,1.11,0,0,0-.42.15M84.24,79a.16.16,0,0,0-.11.09.35.35,0,0,0,0,.3.31.31,0,0,0,.25.11c.06,0,.11-.15.2-.16s.24,0,.35,0l.14,0h0m3.29-.64c0,.06,0,.18,0,.28s0,.06,0,.09l0,.08m-.85.2v-.56m0,.51a.69.69,0,0,0-.16.31c0,.25-.08.63,0,.6s.66.09.9.11a.4.4,0,0,0,.35-.1c.12-.06.35-.1.49-.16s.13-.11.14-.21v-.09a.42.42,0,0,0-.24-.34,1,1,0,0,1-.35-.2,1.12,1.12,0,0,0-.32-.24m-1,1.23a.33.33,0,0,0-.07.11.18.18,0,0,0,.12.22,2.7,2.7,0,0,0,.65.07,1,1,0,0,0,.44-.14.57.57,0,0,1,.25-.17,1.59,1.59,0,0,0,.4-.16c.14-.07.14-.17.09-.29m-1.2.72a1.11,1.11,0,0,0-.42-.15.62.62,0,0,0-.26,0m.14-1.09h0l.14,0c.11,0,.26,0,.35,0s.13.15.2.16a.31.31,0,0,0,.25-.11.35.35,0,0,0,0-.3A.15.15,0,0,0,88.4,79"/><path id="path03" class="cls-18" d="M72.26,70.61c-.05,0-.14-.11-.15-.16a1.86,1.86,0,0,1-.11-.52c0-.12,0-.33,0-.44m.24,1.12,0,0a1.07,1.07,0,0,0,.3.06.08.08,0,0,0,.07,0,.06.06,0,0,0,0-.06.32.32,0,0,0-.18-.06,1.25,1.25,0,0,1-.17-.12,1.15,1.15,0,0,1,0-.18m0,.39h0l.09.1a.59.59,0,0,0,.3,0h0s0-.07,0-.1m0,.1.11,0s0,0,0,0a.09.09,0,0,0,0-.11l-.24-.13-.11-.18m.13-.38a.86.86,0,0,0,0,.3.66.66,0,0,0,.06.22s.24.14.28.18,0,.11-.06.1m-.47-.43,0,.16m.1-.63a.35.35,0,0,0,.08.1l0,0a2,2,0,0,1,.05.38c0,.18.16.19.21.15s0-.34,0-.42,0-.27,0-.35a2.14,2.14,0,0,0-.09-.27m-.47.51a1,1,0,0,0,.09-.16,1.48,1.48,0,0,0,.09-.28m.66-6.2a1.74,1.74,0,0,0-.31-.89m.45,1.67c0,.15,0,.86.07,1.42,0,.25,0,.47,0,.59,0,.4-.11,1.72-.16,2.06S73,69.53,73,69.83a.08.08,0,0,0,.08.09h0l2,.13v-.15l0-2.62m.1-4.33,0,2m-.1,4.91c.24,0,.49,0,.76.06a8.89,8.89,0,0,0,1.52-.08s.08,0,.08-.09c0-.59-.3-3.93-.31-4.21,0-.09,0-.24,0-.4s.06-.34.09-.51.11-.51.14-.64m.44-1.65a1.78,1.78,0,0,0-.27.75M72,68.71a.07.07,0,0,0-.07.07s0,.07.07.07.07,0,.07-.07A.07.07,0,0,0,72,68.71Zm0-.26a.07.07,0,0,0-.07.07.08.08,0,0,0,.07.08.07.07,0,0,0,.07-.07A.07.07,0,0,0,72,68.45ZM72,69a.08.08,0,1,0,.07.08A.08.08,0,0,0,72,69Zm6.58-.33a.06.06,0,0,0-.07.06.07.07,0,0,0,.07.07.06.06,0,0,0,.07-.06A.07.07,0,0,0,78.53,68.65Zm0,.22a.06.06,0,0,0-.06.06s0,.07.06.07a.06.06,0,0,0,.06-.06A.06.06,0,0,0,78.55,68.87Zm0,.2a.06.06,0,0,0-.06.06s0,.07.06.07a.06.06,0,0,0,.06-.06A.06.06,0,0,0,78.58,69.07Zm-6.7.27v.11l.13,0a2,2,0,0,0,.36.05h.07l.29-.07.08,0v-.11m5,.1v.1l.08,0h0a1.15,1.15,0,0,0,.25.06h.1a1.25,1.25,0,0,0,.29,0,.52.52,0,0,0,.13,0v-.07M77.2,65.19c.13.7.4,2.25.41,2.53s.07,1.27.08,1.57a.16.16,0,0,0,.09.13h0a2.32,2.32,0,0,0,.4.1.72.72,0,0,0,.25,0,.77.77,0,0,0,.2-.07h0a.1.1,0,0,0,0-.08,5.55,5.55,0,0,0,0-.85l-.48-4.63-.29-1.4a.16.16,0,0,0,0-.11.24.24,0,0,0-.11-.06l-.23-.06c-.12,0-1.11-.55-1.11-.55h0l-.29-.28,0,0h0a2.08,2.08,0,0,0-.78-.12,1.22,1.22,0,0,0-.59.12l0,0h0l-.31.28h0l-1.42.66-.09.07a.31.31,0,0,0,0,.1l-.26,1.05a.23.23,0,0,1-.09.14.14.14,0,0,0-.06.11.19.19,0,0,0,0,.07l0,.06a.18.18,0,0,1,0,.16c-.14.59-.28,1.86-.34,2.36s-.26,2.29-.28,2.61a.27.27,0,0,0,.08.23.38.38,0,0,0,.15.09h0l.11,0a1.22,1.22,0,0,0,.67-.12l0,0a.21.21,0,0,0,.06-.1c0-.41.14-1.87.33-3.23,0-.15,0-.3.07-.44m3.1-3.82h0a7.64,7.64,0,0,0-1.15-.09,2.88,2.88,0,0,0-1,.09h0m3.43,2.44-.45.52M72.5,64a1.42,1.42,0,0,0,.45.45m.18,5.53c0,.45,0,1,0,1.47,0,.36.09,1.29.12,2h0c0,.35,0,.63,0,.74,0,.32-.18,1.77-.19,2.11s0,2.07,0,2.17-.06.69-.06.86v0c0,.14.18.19.34.26a1.86,1.86,0,0,0,.57.13.4.4,0,0,0,.22-.07l0,0s.06-.44.08-.58a5.46,5.46,0,0,0,.1-.69c0-.14-.07-.46-.07-.56s.34-2.27.46-2.83.35-3.35.43-4.34m0-.23,0,.23h0c.09.69.34,2.65.38,2.87s.19,1.65.22,1.84.39,2.17.4,2.34,0,.79,0,.93.1.85.12,1a.14.14,0,0,0,0,.07c0,.06.1.08.28.08a1.81,1.81,0,0,0,.8-.35.14.14,0,0,0,0-.06.33.33,0,0,0,0-.17c0-.07,0-.69-.08-1s.09-1.41,0-2-.2-1.37-.23-1.77.09-2.27.14-3,0-1.48,0-1.48m-4.32,9.38-.23,0c-.08,0-.19,0-.25.23a.4.4,0,0,0,0,.18.32.32,0,0,0,.05.18,1,1,0,0,0,.46.17.71.71,0,0,1,.31.11c.09.06.65.21.78.07a.27.27,0,0,0,.07-.14.39.39,0,0,0,0-.15c0-.09,0-.17,0-.21s0-.1,0-.14m-1.63.11h0a.5.5,0,0,0,0,.2c0,.12.14.2.25.23s.26,0,.31.05v.07s0,.06.21.17a1.46,1.46,0,0,0,.62.15l.24,0a.12.12,0,0,0,.07-.1v-.33m2.13-.5,0,.14s0,.12,0,.21a.77.77,0,0,0,0,.15.27.27,0,0,0,.07.14c.13.14.7,0,.79-.07a.67.67,0,0,1,.3-.11,1,1,0,0,0,.46-.17.31.31,0,0,0,0-.17.45.45,0,0,0,0-.19c-.06-.2-.16-.23-.25-.23l-.26,0m-1.14.83v.33a.12.12,0,0,0,.07.1l.25,0a1.53,1.53,0,0,0,.62-.15c.19-.11.2-.17.2-.17v-.07c.05,0,.21,0,.31-.05S78,80,78,79.9a.36.36,0,0,0,0-.19m-1.92-18.3a.26.26,0,0,0,0-.09.93.93,0,0,0-.66-.18,1.05,1.05,0,0,0-.66.14l0,0a.21.21,0,0,0-.05.13m1.4-.11c0-.13,0-.26,0-.32s.06-.26.06-.26a.49.49,0,0,0,.27-.15.79.79,0,0,0,.06-.5c0-.06-.06-.07-.09-.06m-1.72.53.09.16c0,.07.12.29.18.33a.2.2,0,0,0,.13,0l0,0a1.26,1.26,0,0,1,.61,0,.17.17,0,0,0,.12,0,.33.33,0,0,0,.15-.14l.19-.38c.08-.18.15-.36.2-.49s.08-.21.08-.21a.86.86,0,0,0-.2-.8,1.2,1.2,0,0,0-.85-.42,1,1,0,0,0-.7.25,1,1,0,0,0-.32.42,1.73,1.73,0,0,0,0,.62l0,.14C74.42,60.17,74.52,60.39,74.61,60.56ZM74.36,60a.08.08,0,0,0,0,.06.79.79,0,0,0,.06.5.49.49,0,0,0,.27.15s0,.16.06.27a1.09,1.09,0,0,1,0,.29m0-.56-.07-.15m1.52.15.07-.2m1.68,9.91,0,.06c0,.09-.13.14-.18.12s0-.13,0-.22a3.38,3.38,0,0,0,.13-.37.81.81,0,0,1,0-.25c0-.07.1-.19.12-.23h0m.27,1h0m.12-.06.17-.13m-.37-.08h0s.07-.15,0-.21-.08,0-.13,0l0,0c0,.08-.07.09,0,.14a.75.75,0,0,0,.12.2m.22-.26a.16.16,0,0,0,0-.15,1.57,1.57,0,0,1-.13-.4m0,1,.08,0m.12-.08a.67.67,0,0,0,.15-.13.32.32,0,0,0,.14-.23c0-.08-.06-.51-.08-.65M78,70.7l-.06-.07-.1-.18a.37.37,0,0,1,0-.09.31.31,0,0,1,.19-.2m.27.88H78a.27.27,0,0,0-.12,0,.21.21,0,0,0-.1.18l-.09,2.82a.22.22,0,0,0,.22.22h.45a.22.22,0,0,0,.22-.22l-.09-2.82a.21.21,0,0,0-.07-.15A.19.19,0,0,0,78.28,71Zm-.13,0V73.2m0-2.9h0a.06.06,0,0,0-.07,0h0l-.07.21,0,.15-.11.37M78,71l.09-.33,0-.11v0m.25.54-.1-.51,0,0,0-.25h-.07a.08.08,0,0,0,0,.09l0,.17v0l0,.07.07.37m0-2.35.13.85m-6.31-.09.08-.92m3.68,3.68c.26-.26,1-1.29,1-1.29m-2.59,6.82-.23.54m-.82-4.91h0L74,74.86"/><path id="path" class="cls-18" d="M75.09,229.5l-.34,0-.17,0m1.64.08h.48m.09,0h.52m-2.13,0,.24,0m-2.19-7.76.84-.44a2.22,2.22,0,0,1,.31-.13,1.47,1.47,0,0,0,.35-.16.46.46,0,0,0,.14-.15m3.38,19.18c0-.65-.47-3.6-.52-3.75s-.65-3.52-.65-3.52m-2.21,1.87c0,.22.07,4.4.11,5.43m-.12-18.43.38-.23,0-.06-.13-.25c-.06-.12-.19-.2-.2-.24h0v0l0-.07-.27.11-.28.14-.55.29c-.2.1-.87.35-.91.64a14.92,14.92,0,0,0,.71,2.45,10.33,10.33,0,0,0,.56,1,.9.9,0,0,1,.08.19,2.92,2.92,0,0,1,.11.66c0,.35,0,2.48,0,2.73a3.22,3.22,0,0,0,0,.49m-.3-7.21a1.5,1.5,0,0,0-.15.23.3.3,0,0,0,0,.16,1.43,1.43,0,0,0,.13.31c.07.15.17.34.25.52a.83.83,0,0,1,.07.13m0,0c.09.17.17.31.18.34s.27.2.31.25.11,0,.16,0m-.64-3,0-.09m.07.15v0c0,.06.17.31.3.49m.13,2.89a4.91,4.91,0,0,0-.62,1m2.36-1.42a.85.85,0,0,1,.21.07c.14.06.61-.27.82-.27s.27.13.41.17a2.38,2.38,0,0,0,.88,0A.34.34,0,0,0,79,224c.09-.07.14-.17.26-.17a1.54,1.54,0,0,0,.71-.12m.51.82-.16.15a7.61,7.61,0,0,1-1.27.57,5.28,5.28,0,0,0-.93.5l-.1.09a4.56,4.56,0,0,0-.11.7c0,.41-.07.88-.07,1a9,9,0,0,1,0,1.36,2.52,2.52,0,0,1-.24.57m.57-3.72a5.57,5.57,0,0,0-.41-1.27.72.72,0,0,1-.1-.38M76,225.63a6.51,6.51,0,0,0,1.55-.59M77,227a4.34,4.34,0,0,0,.65-1m.78-.87A5.8,5.8,0,0,0,79,224m0,.85a5,5,0,0,0,.13-.66m-3.31.19a1,1,0,0,1-.13.11l.26.22.17.15a1.82,1.82,0,0,1,.24-.4.68.68,0,0,0,.16-.27v-.07c0-.12-.08-.4-.33-.43m-.18.53.07-.07m-1.09,0a1.7,1.7,0,0,0,.16.6,3.87,3.87,0,0,0,.26.29.69.69,0,0,1,0-.15.59.59,0,0,1,.14-.34s-.09-.05-.17-.11l-.16-.12h0m.84-.16a2.7,2.7,0,0,0,.22-.23l0,0a.1.1,0,0,0,0-.14s0,0-.09,0m-.77,1.16.06.15a1.78,1.78,0,0,0,0,.2s0,.17,0,.41,0,.63,0,1,0,.87,0,1.32,0,1.1,0,1.51v.41c0,.19,0,.31,0,.31l.36.35.49-.35s0-.12,0-.32,0-.24,0-.39c0-.78-.13-2-.18-2.88,0-.49-.05-.84-.05-.89a.78.78,0,0,0,0-.14,4.62,4.62,0,0,0-.15-.57s.09-.25.16-.33m-.91.38a2.22,2.22,0,0,0,.43.55m-1.58-3.2a3,3,0,0,0-.64-.33m.6.49a.48.48,0,0,0-.41.06m1.4-1.83a1.09,1.09,0,0,0,.44-.18l.13-.09m-.24.8a2.64,2.64,0,0,1,.34-.17c.11,0,.23-.07.29,0a1.7,1.7,0,0,0,.36.11c.1,0,.32-.08.41-.07s.3,0,.31-.06-.13-.16-.24-.14-.18,0-.2,0h0a.12.12,0,0,1,0-.1l.2-.15m1.25,5.8c.37.17,1.18.44,1.18.44l.1,0a.14.14,0,0,0,.08.08c.06,0,1.78.93,2.14,1.15s.67.33.86.17.16-.47.13-.64a1.09,1.09,0,0,1,0-.27c-.05-.76-.14-2.81-.17-3.26,0-.15,0-.3,0-.43a5.26,5.26,0,0,1,0-.6s0-.09,0-.12a.46.46,0,0,1,0-.09h0l1.34.09a4.22,4.22,0,0,0-.13.81,10.28,10.28,0,0,0,.24,1.31,1.22,1.22,0,0,0,.72.07c.32,0,.54-.2.52-.3s-.74-3.05-.78-3.14a1.92,1.92,0,0,0-.61-.36,5.35,5.35,0,0,0-1.38,0,4.66,4.66,0,0,1-1.13,0,2.08,2.08,0,0,0-.58-.22h0c-.12,0-.59.1-.64.1s-.1,0-.41-.16l-.08,0a2.89,2.89,0,0,1-.38-.26c-.42-.31-.92-.76-1-.86a.58.58,0,0,0-.25-.13.65.65,0,0,0-.55.05,3.14,3.14,0,0,1-.42.25l-.32,0a1.78,1.78,0,0,0-.41.14l-.59.25a.4.4,0,0,0-.13.13m1.45-.55.07.24,0,0,.16.44h0m5.22,6.42a2.17,2.17,0,0,1-.16-.4,4.43,4.43,0,0,0-.57-.91l-.27-.33c-.18-.23-.39-.51-.48-.64s-.17-.25-.28-.44-.36-.59-.42-.7l-.07-.12c-.15-.29-.44-.88-.5-1a1.73,1.73,0,0,0-.23-.29l-.46-.5a6.52,6.52,0,0,0-1.07-.82,3.67,3.67,0,0,0-.6-.22l-.11,0-.36-.09-.72-.18a1.84,1.84,0,0,0-.49,0h0m4.1,1.66.08-.28s0,0-.14-.06a3.79,3.79,0,0,1-.69-.51l-.16-.14-.12-.08c-.2-.15-.63-.25-.84-.44l-.12-.09c-.19-.15-.52-.38-.52-.38l-.18.15m4.38,5.22a8.25,8.25,0,0,0-.8-1.6l-.09-.14c0-.08-.08-.14-.09-.17-.08-.18-.45-.72-.49-.86a5.31,5.31,0,0,1-.09-.7l-.13.08h0l-.29.18M79.18,227s.38-1.44.39-1.68m-1.84-5.39-.18.74m3,.53s-.24.05-.29.19a1,1,0,0,0,.16.74,11.22,11.22,0,0,0,1.46.87.87.87,0,0,0,.43,0h0m1.34.09s.27-1,.3-1.15M74.68,226a10.5,10.5,0,0,0,.77,2m.72-4.44c0-.24,0-.44,0-.44s0,0,.06,0a1,1,0,0,0,0-.38c0-.07,0-.17-.12-.2h0l0,0a0,0,0,0,0,0,0,.08.08,0,0,0,0,0m-1.6.73h0l0,0h-.07a.18.18,0,0,0,0,.13.23.23,0,0,0,0,.1l0,0h0c.06.08.18.25.29.28s.1,0,.1,0,.12.15.26.29l0,0a.53.53,0,0,0,.12.1.4.4,0,0,0,.13.07,1.55,1.55,0,0,0,.47.08h.15a.31.31,0,0,0,.15-.15,1.12,1.12,0,0,0,.13-.53v-.13m-.18-1,0,.27-.19-.28c-.16,0-.07-.17-.21-.24a.42.42,0,0,0-.41.09.49.49,0,0,1-.44.23.48.48,0,0,0-.24.09m-.15.57.16.19-.09-.27s.05,0,0-.18m1.54-.52c0-.12-.1-.28-.17-.45s-.28-.45-.47-.45a2.17,2.17,0,0,0-.3,0l0,0h-.16a.62.62,0,0,0-.18,0,.94.94,0,0,0-.43.24.8.8,0,0,0-.18.3,1.1,1.1,0,0,0,0,.67,2.49,2.49,0,0,0,.26.41m.13-.23c.1.06.26,0,.19,0a.24.24,0,0,1-.12-.31m1.06,1.79a.11.11,0,0,0,.12-.05m.1.55a.54.54,0,0,0-.19-.07.14.14,0,0,0-.11.06m2,4.8h-.14a.92.92,0,0,0,0-.23v0a.3.3,0,0,0,0-.1h-.08l0,.1s0,0,0,0,0,.16,0,.23l-.54,0a2.06,2.06,0,0,0,0-.21s0,0,0-.06a.36.36,0,0,0,0-.1H76.7a.62.62,0,0,1,0,.1v.05a1.8,1.8,0,0,1,0,.22l-.47,0m-.82,0-.25,0a1.6,1.6,0,0,1,0-.23s0,0,0-.06l0-.11h-.09s0,.07,0,.11,0,0,0,.07a.86.86,0,0,0,0,.22l-.54-.07a1.48,1.48,0,0,1,0-.2s0,0,0,0a.83.83,0,0,1,0-.12H74.5s0,.08,0,.12v0a1.33,1.33,0,0,0,0,.2l-.18,0m.52,1.7a17.15,17.15,0,0,0,0,2.19M80.43,224a2,2,0,0,0,.38-.17,2,2,0,0,0,.33-.27l-.08-.12a1.4,1.4,0,0,1-.33.26,1.6,1.6,0,0,1-.39.16m3-2.43a8.27,8.27,0,0,0-1.37.71m-.41,2.42a3.5,3.5,0,0,0,.59-.82m-3.4-2.38h.58l.51-.11m-1.25,0a6.69,6.69,0,0,0,.84-.14M78,220.25s.61.34,1.05.56m-1.32,19.13c0,.09,0,.28,0,.32v.05s0,.05,0,.08,0,.29,0,.29a.18.18,0,0,1,.06.09h0m.77-.81a.06.06,0,0,0,0,0,4.33,4.33,0,0,0,.17.51,2,2,0,0,1,.16.37.94.94,0,0,1,0,.18s0,0,0,.07a.5.5,0,0,1-.16.28,1.73,1.73,0,0,1-.56.06.47.47,0,0,1-.45-.27.92.92,0,0,1,0-.15h0a.09.09,0,0,0,0-.05c0-.06,0-.17,0-.22h0c0-.08,0-.3,0-.36a.17.17,0,0,0,0-.1m0,.69a.18.18,0,0,0,0,.05.16.16,0,0,0,0,.09.91.91,0,0,0,.45.16,1.31,1.31,0,0,0,.45,0,.6.6,0,0,0,.19-.2m-3.17-1.18s0,0,0,0a1,1,0,0,1,.11.32,1.24,1.24,0,0,1,0,.2,2.42,2.42,0,0,1,0,.27.26.26,0,0,1,0,.09,2.56,2.56,0,0,1-.23.16h-.07v.12h0v.13a.33.33,0,0,1-.13.15,1.18,1.18,0,0,1-.52.17,1.48,1.48,0,0,1-.5,0,.15.15,0,0,1-.1-.17l0-.1a.91.91,0,0,1,0-.27,2,2,0,0,1,.28-.32,1.55,1.55,0,0,0,.19-.36,1,1,0,0,0,.08-.28m-.6,1.23a.22.22,0,0,0,.1.1,1.38,1.38,0,0,0,.43.05,1.87,1.87,0,0,0,.56-.17.4.4,0,0,0,.13-.13m.35-.63a.7.7,0,0,0-.19.1.56.56,0,0,0-.12.16,1.29,1.29,0,0,0,0,.25m1.2-17.44a6,6,0,0,0,.63-2.19M77,229.52a3.56,3.56,0,0,0,.44-.45c0-.07-.09,0-.11,0m-.12.45c.06,0,.19-.15.2-.2M74.63,229a3,3,0,0,0,.12.48m4.43-6.14a7,7,0,0,0-.66-1.66m-2-.66h0a.65.65,0,0,0-.34-.16m0,2.73h0a.5.5,0,0,0,0,.13v0a1.23,1.23,0,0,0,.1.2m-1.82,0a5.85,5.85,0,0,0-.24.81m.55-.56a.25.25,0,0,0-.15.15m-.17,5.13h-.13a3,3,0,0,1-.09.34v0A8.37,8.37,0,0,0,74,232c0,1.19.33,1.81.44,3.69,0,.49.09,2,.11,2.82a8.65,8.65,0,0,0,.21,1.45l.21.18s.56,0,.69-.19v0c0-.2,0-1.56,0-1.83s.11-2.31.14-2.84.06-2.43.06-2.43.85,3.1,1,3.58.4,2.37.47,2.83a4.7,4.7,0,0,0,.21.72l.66.16.41-.21s-.14-1.15-.2-2-.49-3-.53-3.74-.15-2.89-.16-3.28a9.18,9.18,0,0,0-.21-1c0-.13,0-.36,0-.36h-.15m-1.68,2.32a9.42,9.42,0,0,0,.18,1"/><path id="path-2" data-name="path" class="cls-18" d="M94.42,329.38v.24c0,.31-1.09.28-1.09.28v-.17a.31.31,0,0,0-.18,0,7.26,7.26,0,0,1-1.59.17,1.53,1.53,0,0,1-1-.26.51.51,0,0,1,0-.16s0,0,0,0c.14-.36.69-.25.95-.3A1,1,0,0,0,92,329a2.11,2.11,0,0,0,.53-.49,1.48,1.48,0,0,0,.6.37.79.79,0,0,0,.71,0l.39-.31c.19.1.21.51.22.66S94.42,329.38,94.42,329.38Zm1.54-.73s.2-.32.33-.53m-.33.53a3,3,0,0,0-.83.14A.25.25,0,0,0,95,329h0l0,0s0,.12,0,.16a1.27,1.27,0,0,0,.54.16c.34,0,1.07.05,1.31-.16s.42-.39.53-.36l0,.15s.93-.25,1-.48a.76.76,0,0,0-.09-.23.87.87,0,0,0-.09-.38c-.08-.16-.22-.46-.32-.4a2.34,2.34,0,0,1-.51.4,1.7,1.7,0,0,1-.51.06m-1,.74h0s-.08.17,0,.24m-5.38.55s0,0,0,0a1.88,1.88,0,0,0,.71.27c.25,0,1.48-.09,1.79-.13h.05l.81-.09a1.21,1.21,0,0,0,.43-.14M95,329s0,0,0,.06a2.63,2.63,0,0,0,.63.18,2.43,2.43,0,0,0,.86-.06,8.45,8.45,0,0,1,.72-.52c.14,0,1-.36,1.1-.4m-5.8.25c.11-.34.23-.69.37-1.05.06-.13.11-.26.16-.38s0-.33.05-.5,0-.31,0-.45,0-.18,0-.27c-.08-.26-.25-2.65-.24-3a4.06,4.06,0,0,1-.17-1.05,12.94,12.94,0,0,0-.22-1.32c0-.08-.22-.74-.26-.88a.85.85,0,0,1,0-.43,1.15,1.15,0,0,0,0-.33c0-.07.1-.18.1-.18v-.05m3,.3a2.29,2.29,0,0,1-.44.74.71.71,0,0,0-.1.24c0,.1,0,.21-.07.27v0c0,.12,0,1.12,0,1.91a4.35,4.35,0,0,0,0,1.57s0,.63,0,1.23m-.51,3.64a2,2,0,0,0,.06-.32c0-.14.16-1,.19-1.07a10.34,10.34,0,0,0,.25-1.24c0-.12,0-.55,0-1m0,0h0c.27.52.73,1.41.78,1.56s.26.54.26.54l.45,1.11h.05a1.74,1.74,0,0,0,.29-.07l.33-.14a7.37,7.37,0,0,0,.91-.57l0,0s-.48-.87-.6-1.06-.3-.8-.79-1.66a12.07,12.07,0,0,0-1.26-2,2.06,2.06,0,0,0,0-.38s-.08-.83-.1-1-.07-.61-.09-.83a2,2,0,0,1,.09-.6,6.34,6.34,0,0,0,.24-.64l.07-.21m-.07.21.25,0V319m-3-2.74a2.41,2.41,0,0,0-.27.68c0,.19-.06.61-.06.64s0,.06-.08.12a.35.35,0,0,0-.06.16c0,.11.07.09.06.21a3.08,3.08,0,0,0,0,.5s.08.2.23,0h0l0,0c.13-.19.32-.42.39-.5h0a5.14,5.14,0,0,0,.63.32,1,1,0,0,0,.26.08l.12-.19h0c.12.06.8.32,1,.38s.38.15.57.24l.06,0,.16.08h0l0-1a10.58,10.58,0,0,0,0-1.55c0-.09.05-.88.07-1l.25-1h0s0-.07,0-.12,0-1.11-.06-1.21a13,13,0,0,0-.44-1.34c-.1-.17-.35-.49-.37-.53s-.18-.24-.19-.27a1.06,1.06,0,0,0-.69-.07l-.1,0a1.62,1.62,0,0,0-.75.6h0v.12a.4.4,0,0,0-.12.06l-.09.14-.17.35a.89.89,0,0,0-.16.22s0,.29,0,.66a9.44,9.44,0,0,1-.28,1.86.63.63,0,0,0,0,.13c0,.08,0,1,0,1.12m0,0h0m2.39-5.23s0-.25-.15-.29m0,0h0a.86.86,0,0,0-.92.21,5.19,5.19,0,0,0-.46.47l-.09.11a6.35,6.35,0,0,0-.68,1,11.55,11.55,0,0,0-.13,2.23s0,.17,0,.27m3.11,3a2,2,0,0,1,.08.5,2.27,2.27,0,0,0,.33,0h0l.78-.17.17-.05s-.25-.53-.28-.66-.48-1.48-.5-1.6a11.22,11.22,0,0,0-.22-1.22.67.67,0,0,1,0-.23.66.66,0,0,0,0-.09m-2.57-3.08v.18m-.6,1.55a.44.44,0,0,0,.23,0m-.33,2s-.1-.08-.11,0,0,.16.07.15S92.68,315.19,92.67,315.14Zm.07,2.95-.08,0s.07-.28.14-.46l.11-.26.1-.23a8.08,8.08,0,0,0,.15-1,2.18,2.18,0,0,0,.09-.55c0-.28.13-1.65.13-1.65s-.12-.93-.13-1.5a1.5,1.5,0,0,1,.18-.7,2,2,0,0,1,.19-.26m.14,6.83a6.65,6.65,0,0,0,.64-1.4c0-.1.21-.54.21-.63s.21-1.23.22-1.36,0-.25,0-.32a9.93,9.93,0,0,1,.07-1.26,4.08,4.08,0,0,0-.13-1.91,1,1,0,0,0-.68-.28h0m-1.36,6.95a.08.08,0,0,0,0,0l.11.07m0,0a1.44,1.44,0,0,0,.48.21h0m-.53-.21h0v.06a.92.92,0,0,0,.26.55.73.73,0,0,0,.23.13m-.23-.13a.53.53,0,0,0,.23-.3s0-.06,0-.1m2.68.13a3.12,3.12,0,0,0,.12.42l.06,0h0a3.74,3.74,0,0,1,.53-.13h0s.07-.06.07-.09-.06-.19-.09-.33M96.56,320s0-.08,0-.14a.78.78,0,0,1,0-.13l0,0-.08-.08-.08,0,0,0a1.76,1.76,0,0,0,0,.23v0m-.14-.92h0l0,.13a1.58,1.58,0,0,0,0,.32s0,.09,0,.14,0,.22,0,.24a1.51,1.51,0,0,0,0,.32.18.18,0,0,0,.15.1h0m.45.13.12-.05a.43.43,0,0,0,0-.05m0,0s0,0,0-.06a.34.34,0,0,0,0-.09,2.26,2.26,0,0,1,0-.37.5.5,0,0,0,0-.24,3.55,3.55,0,0,1-.06-.4s0-.17,0-.25m-.22.91s0,0,0,0a5.16,5.16,0,0,1-.19-.52,2,2,0,0,0-.1-.22m.13.63a.14.14,0,0,0,.08-.09m.15.69.08-.07a.6.6,0,0,0,.06-.11v-.31m-.23.68h0m.1-.08h0a.72.72,0,0,0,.15-.18,2.09,2.09,0,0,0,0-.24m-.12.47.12-.12,0,0m-.34.19h-.08m.14-.35v0s0,.1,0,.16h0v0h0m-.06.13h0a.15.15,0,0,0,.06-.11v0m2.71,3.34-2.61-3.23h0m-.14-.46-.16,0-.06,0a.59.59,0,0,0-.08.11.78.78,0,0,0,0,.22.11.11,0,0,1,0,.05h0v0l0,0,0,0m0,0h.09m2.8,3.43-2.69-3.36,0,0h0m.36-.13h0l2.59,3.19h0m1-1-.18.12-.08.06h0l-.11.12v.06l0,0-.08-.09h0s-.11-.15-.24-.06a.92.92,0,0,0-.15.17.29.29,0,0,0,0,.18.08.08,0,0,1,0,.08l.09.18-.16.17a.71.71,0,0,0-.12.13l0,0a.43.43,0,0,0,0,.17.6.6,0,0,0,0,.39c.11.23,3.85,4.66,4,4.88s.24.24.24.24a.6.6,0,0,1,.22.13l0,0h0l.07.08a.82.82,0,0,0,.19.1h0s.38.09.42-.09-.18-.16-.21-.16l-.18,0h0s0-.19,0-.22l.37-.3.19-.15h0l.14-.12.05,0,0,0,.16-.15a3,3,0,0,0,.23-.21,2.48,2.48,0,0,1,.32-.33h.1a.56.56,0,0,0,.16.12l.15.05a1.36,1.36,0,0,0,.33.06.18.18,0,0,0,.11-.26c-.07-.11-.12,0-.21-.07l-.18-.05h0s0-.11-.08-.11,0-.17,0-.26h0a.9.9,0,0,0-.12-.39,2.7,2.7,0,0,0-.34-.5c-.12-.15-2.43-2.84-2.67-3.11l-1-1.13a.61.61,0,0,0-.67-.15,4.9,4.9,0,0,0-.61.45l-.12,0m5.62,5.49a.29.29,0,0,0,.28.2.31.31,0,0,0,.31-.32.32.32,0,0,0-.31-.32.29.29,0,0,0-.23.12m-2,2a.3.3,0,0,0,.29.22.31.31,0,0,0,.31-.32.32.32,0,0,0-.31-.32.31.31,0,0,0-.25.13m-3.7-6.89h0a.92.92,0,0,0-.06.35c0,.14.14.25.7.92s3.66,4.17,4,4.59m-4.84-5.74h0a.47.47,0,0,0,0,.44c.12.17,4.31,5,4.71,5.45m-4.76-5.83h0c0,.05-.15.29,0,.45s4.22,4.89,4.71,5.45M100,322.77a.31.31,0,0,0-.08.24.27.27,0,0,0,0,.12c.11.18,3.89,4.48,4.75,5.45M99.9,323h0l-.31.23m.29-.49a.06.06,0,0,0,0-.06l-.06,0-.08.08s0,.07,0,.07l.07.07C99.89,322.83,99.88,322.78,99.88,322.75Zm5.31,3.28-3.19-3.6m3.39,4.11s-3.49-4-3.76-4.24a.52.52,0,0,0-.62-.11c-.08,0-.49.32-.49.32m4,6.23-.08,0a.92.92,0,0,0-.47.22l-.37.33m2.41-2.09s-.45.42-.52.47-.2.25-.14.38m.7-.59a.31.31,0,0,0-.28.26M104.1,329s-.29.08-.29.34m-1.31-2.51a.5.5,0,0,0,.27.24A.15.15,0,0,0,103,327a.34.34,0,0,0-.1-.19c-.1-.08-1.44-1.59-1.47-1.63a.21.21,0,0,0-.15-.09s-.18.12-.16.17A16.63,16.63,0,0,0,102.5,326.87Zm-1.77-2.61-.42-.5a.16.16,0,0,0-.24,0,.17.17,0,0,0,0,.24l.42.51a.17.17,0,0,0,.26-.22Zm0-1.42.46-.31m-1.36.94-.25.24m-7.11-7.43h0v0s0,0,.06,0a.08.08,0,0,0,0-.1.06.06,0,0,0-.06,0s0,0,0,0Zm2.24-5.52h0l0-.08v0c-.08-.1-.36-.09-.6,0s-.62.52-.72.66l0,0a1.49,1.49,0,0,0-.08.23m-.4-2.47v.06c0,.08,0,.31,0,.4s-.29.29-.28.33a.25.25,0,0,0,.16.14c.07,0,0,.16,0,.18a1.3,1.3,0,0,0,.06.12s0,.11,0,.13.06.07.06.12-.08.24.15.27h.18l.14,0,.13,0m1.25-.23,0,.13m-1.32.63a.63.63,0,0,0,0-.27,1.65,1.65,0,0,0-.09-.22m.67-.91s0,.05.17.06.31-.34.32-.39a.33.33,0,0,0-.12-.28h0m0,0a.33.33,0,0,1,.17.11c.06.15-.09.52-.09.65s0,.41.11.41.11,0,.14.06v0h0s1.28-1.31.26-2.15c0,0,0,0,0-.07s-1.61-.92-2.08.68l.07.09a.92.92,0,0,0,.7.39l.19.39.19-.35S94.14,309.24,94.33,309.28Zm2.37,11-.06-.06,0-.05h0m-.33.05,0,0a.07.07,0,0,0,.09.05h0m1.49,7a.38.38,0,0,0,.11.11m-5.3-11.32a4.31,4.31,0,0,0,.48-.51m-.93,2.13s.1,0,.22-.08.32-.3.4-.35m1.52.06a2.94,2.94,0,0,0,.92-.5m-.8.65s.36.24.58.13a.83.83,0,0,0,.32-.22m-.64,2.73a4.92,4.92,0,0,0-1.1-.8m1.17.53a7.18,7.18,0,0,0-.66-.43m-1,6.63a2.19,2.19,0,0,0,.42.71m1.66-4.21s-.26-.09-.35,0m4.64.41a.42.42,0,0,0,.25-.11"/><path class="cls-19" d="M101.63,417.19a2.51,2.51,0,0,0,.94-.8c.45-.76,2.36-10.18,2.76-12.16l3.6-2,0,0h0l0,0h0l0,0,0,0h0l0,0h0l0,0,0,0,0,0,0,0,0,0,0,0,0,0,0,0,.05,0h0l0,0h0l0,0h0l0,0h0l.05,0h0l0,0h0l.05,0h0a4.41,4.41,0,0,0,1.42-2.05h0v0h0v0h0v0h0v0h0v0h0l0,0h0v0H111a5.64,5.64,0,0,0-3.13.37h0l0,0h0l0,0h-.07l0,0h0l0,0h0l0,0-3.6,2c-1.89-.7-10.91-4-11.8-4a2.61,2.61,0,0,0-1.18.39,6.45,6.45,0,0,0-.64.42h0a6.44,6.44,0,0,0-.57.45h0l9.15,5.58-4.71,2.64a22.43,22.43,0,0,0-2.09,1.47h0l-.32-.14-.12-.05,0,0-.08,0-.16-.07-1.3-.54,0,0-.86-.31-.08,0-.27-.07H88.7a.79.79,0,0,0-.29.06h0a1.92,1.92,0,0,0-.25.12h0l-.3.2h0l0,0-.31.25h0l-.16.14h0L90,410.6c-.31.35-.47.64-.4.81v0h0c.1.15.44.16.9.08l.63,3.52h0l.2-.06h0l.37-.13,0,0h0l.34-.16h0l.24-.15h0a1,1,0,0,0,.2-.21l0,0v-.05l.08-.26s0-.06,0-.1c.06-.24.12-.55.18-.89v-.05c.08-.44.16-.94.23-1.39l0-.17v-.13l0-.13c0-.12,0-.23,0-.34v0a22.3,22.3,0,0,0,2.34-1l4.72-2.63,0,10.72h0s.3-.09.69-.25h0C101.15,417.43,101.39,417.32,101.63,417.19Z"/></g></g></g></svg>