<svg xmlns="http://www.w3.org/2000/svg" viewBox="0 0 109.16 69.44"><g id="レイヤー_2" data-name="レイヤー 2"><g id="レイヤー_1-2" data-name="レイヤー 1"><path d="M41.68,0V0H0V59.9H82.8c7.68.27,13.72-1.14,18.12-3.67s7.16-6.28,8-10.35c1.63-8.14-4.45-16.89-16.23-20.15C79.31,22,72.82,16,66.72,10.6S54.65.16,43.71,0Zm2,4c8.29.11,12.8,3,17.67,7.17H43.55V25H79.62a62,62,0,0,0,12,4.64c10.4,2.87,14.52,9.78,13.37,15.5,0,.17-.07.33-.11.5H6.59v6.59H99.86c-.3.2-.61.39-.94.58-3.59,2.07-8.9,3.4-16,3.14H4V4H43.66ZM6.59,11.2V25h10.8V11.2Zm15.6,0V25H33V11.2ZM.26,65.55v3.89H99.37V65.55Z"/></g></g></svg>