<svg xmlns="http://www.w3.org/2000/svg" viewBox="0 0 364.25 538.58"><defs><style>.cls-1{fill:#ece5e1;}.cls-2{font-size:17px;font-family:TsukuBRdGothic-Bold-83pv-RKSJ-H, Tsukushi B Round Gothic;}.cls-10,.cls-17,.cls-2{fill:#231815;}.cls-14,.cls-16,.cls-3,.cls-4,.cls-5,.cls-6,.cls-7,.cls-8,.cls-9{fill:none;}.cls-3{stroke:#4faf48;}.cls-14,.cls-3,.cls-4,.cls-5,.cls-6,.cls-7,.cls-8,.cls-9{stroke-linecap:round;}.cls-15,.cls-16,.cls-3,.cls-4,.cls-5,.cls-6,.cls-7,.cls-8{stroke-miterlimit:10;}.cls-3,.cls-4,.cls-5,.cls-6,.cls-7,.cls-8{stroke-width:1.5px;}.cls-4{stroke:#1a6534;}.cls-5{stroke:#57beb6;}.cls-6{stroke:#3d7fc2;}.cls-7{stroke:#3f499c;}.cls-8{stroke:#9c61a5;}.cls-9{stroke:#231815;}.cls-14,.cls-9{stroke-linejoin:round;}.cls-10{font-size:8px;}.cls-10,.cls-17{font-family:KozGoPr6N-Regular-83pv-RKSJ-H, Kozuka Gothic Pr6N;}.cls-11{letter-spacing:-0.5em;}.cls-12{letter-spacing:0.25em;}.cls-13{letter-spacing:-0.43em;}.cls-14,.cls-15,.cls-16{stroke:#040000;stroke-width:0.1px;}.cls-15{fill:#040000;}.cls-17{font-size:1.23px;}</style></defs><g id="レイヤー_2" data-name="レイヤー 2"><g id="イラスト"><rect class="cls-1" width="364.25" height="538.58"/><text class="cls-2" transform="translate(32.76 27.28)">バス</text><line class="cls-3" x1="31.88" y1="29.02" x2="65.57" y2="29.02"/><text class="cls-2" transform="translate(32.76 105.59)">宿泊</text><line class="cls-4" x1="31.3" y1="108.68" x2="67.71" y2="108.68"/><text class="cls-2" transform="translate(28.26 288.76)">班長・部屋長</text><line class="cls-5" x1="28.26" y1="291.74" x2="130.32" y2="291.74"/><text class="cls-2" transform="translate(26.76 375.44)">ガマ</text><line class="cls-6" x1="27.7" y1="377.75" x2="59.22" y2="377.75"/><text class="cls-2" transform="translate(26.76 437.51)">欠席</text><line class="cls-7" x1="26.76" y1="440.15" x2="59.22" y2="440.15"/><text class="cls-2" transform="translate(26.76 486.62)">スマホ</text><line class="cls-8" x1="26.76" y1="488.66" x2="76.68" y2="488.66"/><line class="cls-9" x1="46.42" y1="84.76" x2="317.78" y2="84.76"/><line class="cls-9" x1="55.42" y1="7.32" x2="326.78" y2="7.32"/><line class="cls-9" x1="46.42" y1="269.48" x2="317.78" y2="269.48"/><line class="cls-9" x1="46.42" y1="357.44" x2="317.78" y2="357.44"/><line class="cls-9" x1="46.42" y1="418.85" x2="317.78" y2="418.85"/><line class="cls-9" x1="46.42" y1="471.22" x2="317.78" y2="471.22"/><line class="cls-9" x1="46.42" y1="529.67" x2="317.78" y2="529.67"/><line class="cls-4" x1="32.76" y1="114.74" x2="32.76" y2="119.03"/><line class="cls-4" x1="34.91" y1="116.88" x2="30.62" y2="116.88"/><line class="cls-4" x1="34.22" y1="115.31" x2="31.3" y2="118.46"/><line class="cls-4" x1="34.33" y1="118.34" x2="31.19" y2="115.43"/><line class="cls-4" x1="32.76" y1="126.78" x2="32.76" y2="131.07"/><line class="cls-4" x1="34.91" y1="128.93" x2="30.62" y2="128.93"/><line class="cls-4" x1="34.22" y1="127.35" x2="31.3" y2="130.5"/><line class="cls-4" x1="34.33" y1="130.39" x2="31.19" y2="127.47"/><line class="cls-4" x1="32.76" y1="150.86" x2="32.76" y2="155.15"/><line class="cls-4" x1="34.91" y1="153.01" x2="30.62" y2="153.01"/><line class="cls-4" x1="34.22" y1="151.43" x2="31.3" y2="154.58"/><line class="cls-4" x1="34.33" y1="154.47" x2="31.19" y2="151.55"/><line class="cls-4" x1="32.76" y1="162.9" x2="32.76" y2="167.19"/><line class="cls-4" x1="34.91" y1="165.05" x2="30.62" y2="165.05"/><line class="cls-4" x1="34.22" y1="163.48" x2="31.3" y2="166.62"/><line class="cls-4" x1="34.33" y1="166.51" x2="31.19" y2="163.59"/><line class="cls-4" x1="32.75" y1="174.73" x2="32.75" y2="179.02"/><line class="cls-4" x1="34.9" y1="176.88" x2="30.61" y2="176.88"/><line class="cls-4" x1="34.21" y1="175.3" x2="31.3" y2="178.45"/><line class="cls-4" x1="34.33" y1="178.33" x2="31.18" y2="175.42"/><line class="cls-4" x1="32.75" y1="186.56" x2="32.75" y2="190.85"/><line class="cls-4" x1="34.9" y1="188.7" x2="30.61" y2="188.7"/><line class="cls-4" x1="34.21" y1="187.13" x2="31.3" y2="190.28"/><line class="cls-4" x1="34.33" y1="190.16" x2="31.18" y2="187.25"/><line class="cls-4" x1="32.75" y1="198.77" x2="32.75" y2="203.06"/><line class="cls-4" x1="34.9" y1="200.91" x2="30.61" y2="200.91"/><line class="cls-4" x1="34.21" y1="199.34" x2="31.3" y2="202.49"/><line class="cls-4" x1="34.33" y1="202.37" x2="31.18" y2="199.45"/><line class="cls-4" x1="32.75" y1="138.82" x2="32.75" y2="143.11"/><line class="cls-4" x1="34.9" y1="140.97" x2="30.61" y2="140.97"/><line class="cls-4" x1="34.21" y1="139.39" x2="31.3" y2="142.54"/><line class="cls-4" x1="34.33" y1="142.43" x2="31.18" y2="139.51"/><line class="cls-4" x1="32.75" y1="222.65" x2="32.75" y2="226.94"/><line class="cls-4" x1="34.9" y1="224.79" x2="30.61" y2="224.79"/><line class="cls-4" x1="34.21" y1="223.22" x2="31.3" y2="226.37"/><line class="cls-4" x1="34.33" y1="226.25" x2="31.18" y2="223.33"/><line class="cls-4" x1="32.75" y1="234.77" x2="32.75" y2="239.06"/><line class="cls-4" x1="34.9" y1="236.91" x2="30.61" y2="236.91"/><line class="cls-4" x1="34.21" y1="235.34" x2="31.3" y2="238.49"/><line class="cls-4" x1="34.33" y1="238.37" x2="31.18" y2="235.46"/><line class="cls-3" x1="32.76" y1="36.3" x2="32.76" y2="40.59"/><line class="cls-3" x1="34.9" y1="38.45" x2="30.61" y2="38.45"/><line class="cls-3" x1="34.22" y1="36.87" x2="31.3" y2="40.02"/><line class="cls-3" x1="34.33" y1="39.91" x2="31.18" y2="36.99"/><line class="cls-3" x1="32.76" y1="48.34" x2="32.76" y2="52.64"/><line class="cls-3" x1="34.9" y1="50.49" x2="30.61" y2="50.49"/><line class="cls-3" x1="34.22" y1="48.92" x2="31.3" y2="52.06"/><line class="cls-3" x1="34.33" y1="51.95" x2="31.18" y2="49.03"/><line class="cls-3" x1="32.76" y1="60.38" x2="32.76" y2="64.68"/><line class="cls-3" x1="34.9" y1="62.53" x2="30.61" y2="62.53"/><line class="cls-3" x1="34.22" y1="60.96" x2="31.3" y2="64.1"/><line class="cls-3" x1="34.33" y1="63.99" x2="31.18" y2="61.07"/><line class="cls-3" x1="32.76" y1="72.43" x2="32.76" y2="76.72"/><line class="cls-3" x1="34.9" y1="74.57" x2="30.61" y2="74.57"/><line class="cls-3" x1="34.22" y1="73" x2="31.3" y2="76.15"/><line class="cls-3" x1="34.33" y1="76.03" x2="31.18" y2="73.11"/><line class="cls-5" x1="32.76" y1="297.51" x2="32.76" y2="301.81"/><line class="cls-5" x1="34.9" y1="299.66" x2="30.61" y2="299.66"/><line class="cls-5" x1="34.22" y1="298.09" x2="31.3" y2="301.23"/><line class="cls-5" x1="34.33" y1="301.12" x2="31.18" y2="298.2"/><line class="cls-5" x1="32.76" y1="309.13" x2="32.76" y2="313.42"/><line class="cls-5" x1="34.9" y1="311.27" x2="30.61" y2="311.27"/><line class="cls-5" x1="34.22" y1="309.7" x2="31.3" y2="312.85"/><line class="cls-5" x1="34.33" y1="312.73" x2="31.18" y2="309.81"/><line class="cls-5" x1="32.76" y1="321.6" x2="32.76" y2="325.89"/><line class="cls-5" x1="34.9" y1="323.74" x2="30.61" y2="323.74"/><line class="cls-5" x1="34.22" y1="322.17" x2="31.3" y2="325.32"/><line class="cls-5" x1="34.33" y1="325.2" x2="31.18" y2="322.28"/><line class="cls-5" x1="32.76" y1="333.22" x2="32.76" y2="337.51"/><line class="cls-5" x1="34.9" y1="335.36" x2="30.61" y2="335.36"/><line class="cls-5" x1="34.22" y1="333.79" x2="31.3" y2="336.94"/><line class="cls-5" x1="34.33" y1="336.82" x2="31.18" y2="333.91"/><line class="cls-5" x1="32.76" y1="344.78" x2="32.76" y2="349.08"/><line class="cls-5" x1="34.9" y1="346.93" x2="30.61" y2="346.93"/><line class="cls-5" x1="34.22" y1="345.36" x2="31.3" y2="348.5"/><line class="cls-5" x1="34.33" y1="348.39" x2="31.18" y2="345.47"/><line class="cls-6" x1="32.76" y1="383.66" x2="32.76" y2="387.95"/><line class="cls-6" x1="34.9" y1="385.81" x2="30.61" y2="385.81"/><line class="cls-6" x1="34.22" y1="384.23" x2="31.3" y2="387.38"/><line class="cls-6" x1="34.33" y1="387.26" x2="31.18" y2="384.35"/><line class="cls-6" x1="32.76" y1="395.81" x2="32.76" y2="400.1"/><line class="cls-6" x1="34.9" y1="397.96" x2="30.61" y2="397.96"/><line class="cls-6" x1="34.22" y1="396.38" x2="31.3" y2="399.53"/><line class="cls-6" x1="34.33" y1="399.41" x2="31.18" y2="396.5"/><line class="cls-6" x1="32.76" y1="407.17" x2="32.76" y2="411.46"/><line class="cls-6" x1="34.9" y1="409.32" x2="30.61" y2="409.32"/><line class="cls-6" x1="34.22" y1="407.74" x2="31.3" y2="410.89"/><line class="cls-6" x1="34.33" y1="410.77" x2="31.18" y2="407.86"/><line class="cls-7" x1="32.76" y1="446.04" x2="32.76" y2="450.33"/><line class="cls-7" x1="34.9" y1="448.19" x2="30.61" y2="448.19"/><line class="cls-7" x1="34.22" y1="446.61" x2="31.3" y2="449.76"/><line class="cls-7" x1="34.33" y1="449.64" x2="31.18" y2="446.73"/><line class="cls-7" x1="32.76" y1="458.19" x2="32.76" y2="462.48"/><line class="cls-7" x1="34.9" y1="460.34" x2="30.61" y2="460.34"/><line class="cls-7" x1="34.22" y1="458.76" x2="31.3" y2="461.91"/><line class="cls-7" x1="34.33" y1="461.8" x2="31.18" y2="458.88"/><line class="cls-8" x1="32.76" y1="494.45" x2="32.76" y2="498.75"/><line class="cls-8" x1="34.9" y1="496.6" x2="30.61" y2="496.6"/><line class="cls-8" x1="34.22" y1="495.03" x2="31.3" y2="498.17"/><line class="cls-8" x1="34.33" y1="498.06" x2="31.18" y2="495.14"/><line class="cls-8" x1="32.76" y1="517.66" x2="32.76" y2="521.96"/><line class="cls-8" x1="34.9" y1="519.81" x2="30.61" y2="519.81"/><line class="cls-8" x1="34.22" y1="518.24" x2="31.3" y2="521.38"/><line class="cls-8" x1="34.33" y1="521.27" x2="31.18" y2="518.35"/><text class="cls-10" transform="translate(39.81 301.92)">連絡事項は全て班長・部屋長から班員に連絡する<tspan class="cls-11" x="176" y="0">。</tspan><tspan x="0" y="12">ホテルに到着後、しおりと筆記用具を持ってしていされた場所に集合し、連絡事項を</tspan><tspan x="0" y="24">書き留め、責任を持って班員全員に伝えること</tspan><tspan class="cls-11" x="168" y="24">。</tspan><tspan x="0" y="36">移動の都度、点呼を取ること</tspan><tspan class="cls-11" x="104" y="36">。</tspan><tspan x="108" y="36">（</tspan><tspan class="cls-12" x="116" y="36">5</tspan><tspan x="122.41" y="36">分前に完了すること</tspan><tspan class="cls-11" x="194.41" y="36">）</tspan><tspan x="0" y="48">班長・部屋長は先生との連絡を常に保ち、班員の行動を把握すること</tspan><tspan class="cls-11" x="248" y="48">。</tspan></text><text class="cls-10" transform="translate(39.31 41.45)">手指用消毒液を乗車時に使用すること<tspan class="cls-11" x="136" y="0">。</tspan><tspan x="0" y="12">ガイドの説明をしっかり聞き、注意をよく守ること</tspan><tspan class="cls-11" x="184" y="12">。</tspan><tspan x="0" y="24">乗務員、添乗員、ガイドの行為を妨げないこと</tspan><tspan class="cls-11" x="168" y="24">。</tspan><tspan x="0" y="36">場内はいつも清潔を心がけ、車内を汚さないようにすること</tspan><tspan class="cls-11" x="216" y="36">。</tspan></text><text class="cls-10" transform="translate(39.31 119.75)">非常口・避難場所など、緊急時における避難経路を確認すること<tspan class="cls-11" x="232" y="0">。</tspan><tspan x="0" y="12">食事、点呼、消灯、起床、出発などの時間を厳守すること</tspan><tspan class="cls-11" x="208" y="12">。</tspan><tspan x="0" y="24">ホテルの食事はバイキングのため</tspan><tspan class="cls-13" x="120" y="24">、</tspan><tspan x="124.59" y="24">マスク及びビニール手袋を着用し料理をとること</tspan><tspan class="cls-11" x="300.59" y="24">。</tspan><tspan x="0" y="36">ホテルのプール、大浴場、電話の使用は禁止とする。ベランダは立入禁止</tspan><tspan class="cls-11" x="264" y="36">。</tspan><tspan x="0" y="48">ホテルのコインランドリーは使用不可。洗濯は、部屋内のバスルームで行うこと</tspan><tspan class="cls-11" x="288" y="48">。</tspan><tspan x="0" y="60">勝手にホテルの外に出ないこと</tspan><tspan class="cls-11" x="112" y="60">。</tspan><tspan x="0" y="72">就寝前点呼から起床時間までは自分の部屋からの出入りは禁止する</tspan><tspan class="cls-11" x="240" y="72">。</tspan><tspan x="0" y="84">ホテルは貸し切りではないので、マナーやエチケットに注意し、移動は静かにするな</tspan><tspan x="0" y="96">ど、他の客の迷惑にならないよう気をつけること</tspan><tspan class="cls-11" x="176" y="96">。</tspan><tspan x="0" y="108">事故や近隣住民への迷惑となる恐れがあるので、部活動の早朝練習は禁止とする</tspan><tspan class="cls-11" x="288" y="108">。</tspan><tspan x="0" y="120">風呂は各部屋のものを使用すること。その際、熱いお湯が出るかもしれないのでやけ</tspan><tspan x="0" y="132">どには注意する。シャワーカーテンをバスタブの内側に入れ、外に熱いお湯がこぼれ</tspan><tspan x="0" y="144">ないようにすること</tspan><tspan class="cls-11" x="72" y="144">。</tspan></text><text class="cls-10" transform="translate(38.31 388.61)">ガマ（防空壕）見学時は必ず軍手を着用し。懐中電灯、タオルを持参すること<tspan class="cls-11" x="280" y="0">。</tspan><tspan x="0" y="12">帽子着用が望ましい。男女ともにジャージ（ハーフパンツ不可）を着用すること</tspan><tspan class="cls-11" x="288" y="12">。</tspan><tspan x="0" y="24">必ず運動靴を着用すること</tspan><tspan class="cls-11" x="96" y="24">。</tspan><tspan x="100" y="24">（ローファーの場合は履き替えること</tspan><tspan class="cls-11" x="236" y="24">）</tspan></text><text class="cls-10" transform="translate(38.31 450.68)">出発当日に緊急連絡が発生した場合は学校<tspan class="cls-12" x="152" y="0">へ</tspan><tspan x="162" y="0">7:0</tspan><tspan class="cls-12" x="172.56" y="0">0</tspan><tspan x="178.97" y="0">までに連絡すること</tspan><tspan class="cls-11" x="250.97" y="0">。</tspan><tspan x="0" y="12">当日欠席した場合は翌日（体調回復後）から学校に登校すること</tspan><tspan class="cls-11" x="232" y="12">。</tspan></text><text class="cls-10" transform="translate(38.31 498.79)">緊急連絡用として修学旅行期間の携帯電話・スマートフォンの持ち込みを許可する<tspan class="cls-11" x="296" y="0">。</tspan><tspan x="0" y="12">ただし不適切・不必要な使用は絶対にしないこと</tspan><tspan class="cls-11" x="176" y="12">。</tspan><tspan x="0" y="24">個人情報（承諾を得ていない動画・画像を含む）</tspan><tspan class="cls-12" x="176" y="24">を</tspan><tspan x="186" y="24">SN</tspan><tspan class="cls-12" x="195.87" y="24">S</tspan><tspan x="202.09" y="24">等に掲載することは厳禁</tspan><tspan class="cls-11" x="290.09" y="24">。</tspan></text><path id="path" class="cls-14" d="M86.65,14.25a1.11,1.11,0,0,1-.18.26h0c-.07.06-.23.17-.26.25s.37.48.52.61l.2.16,0,0c.28.21.7.49.91.45s.14-.2.1-.37m-3.73,2c0-.39.18-1.33.21-1.49a1.88,1.88,0,0,1,.43-.75A4.82,4.82,0,0,1,85.6,15l.44-.26a3.69,3.69,0,0,1,.43-.2M84.75,16s.12-.12.57-.06.61.71.74,1a2.58,2.58,0,0,1,0,1m3.28,4.89s.09.13.16.25l0,0a.31.31,0,0,1,.05.11s0,.07,0,.12a2.18,2.18,0,0,0,.08.24,3.24,3.24,0,0,1,.19.37.1.1,0,0,1-.1.15c-.12,0-.19-.12-.22-.17s-.18-.32-.22-.39v0c0-.08-.09-.2-.11-.23l-.13-.2h0v0l0-.07s-.09-.12-.07-.08a.76.76,0,0,0,.08.15v0h0l0,.06a.93.93,0,0,1,0,.13.81.81,0,0,0,.09.29l0,.07a.92.92,0,0,1,.05.29c0,.05-.1.06-.2,0s-.17-.3-.19-.35v0a1,1,0,0,1-.06-.14,1.56,1.56,0,0,0,0-.16l0-.05S88.6,23,88.57,23s-.18-.14-.25-.21h0L88,22.5l-.25-.26a3.26,3.26,0,0,1-.29-.36,5.71,5.71,0,0,0-1-.48s-.25-.11-.51-.25a9,9,0,0,1-.8-.42,4.55,4.55,0,0,1-.67-.45.73.73,0,0,1-.15-.17,2.07,2.07,0,0,1-.1-.88c0-.2,0-.7,0-1.07m5.24,4.35a1.83,1.83,0,0,0,.25.35l.08.1.05.07a2.41,2.41,0,0,1,.18.47l0,.2a2,2,0,0,1,.05.22c0,.08,0,.19-.07.2s-.15-.06-.2-.14a.75.75,0,0,1-.07-.24l-.18-.41,0,0a1.11,1.11,0,0,0-.15-.12M85,19.37a1.12,1.12,0,0,1,.6.11h0c.18.11.93.76,1.1.89s1.28.64,1.4.7a3.08,3.08,0,0,1,.41.35.75.75,0,0,0,.16.12l.55.36.14.08a.58.58,0,0,1,.24.22h0a.77.77,0,0,0,.09.13l.32.49h0c0,.05.06.16.1.26s.09.29.12.36,0,.26,0,.28a.17.17,0,0,1-.11,0m-4.25-5.28c0,.15,0,.3,0,.37s-.15.51-.19.69m4.27.57a7.52,7.52,0,0,1-.41-.85,3,3,0,0,1-.2-.55h0c0-.06,0-.16,0-.28s0-.25,0-.38,0-.53,0-.69A12.9,12.9,0,0,0,89.05,16m1.32,4.44a1.2,1.2,0,0,0,.51.13l0,0a3.94,3.94,0,0,1-.69,1.05L90,21.9l-.31.3m0-4c-.13-.08-.25-.18-.33-.24m-.41-2.75a.75.75,0,0,0,.12.22c.06,0,.27.3.32.34a1.28,1.28,0,0,1,.29.17l.21.24a2.08,2.08,0,0,1,.35.4h0l.12.28,0,.12.4.88a5.36,5.36,0,0,0,.25.62m-1-4.29a2.23,2.23,0,0,0,.09.23s.05.27.07.34a3.12,3.12,0,0,1,.15.48,1,1,0,0,0,.15.39,1,1,0,0,1,.15.23,9.39,9.39,0,0,0,.64,1c.11.14.61.83.71.95a3.09,3.09,0,0,1,.39.84.43.43,0,0,1,0,.22.7.7,0,0,1-.17.24.63.63,0,0,1-.2.13A1.78,1.78,0,0,1,91,19l-.24-.14-.33-.19-.33-.19-.22-.12h0m-2.57-4.15c-.06.07-.13.2-.22.21a.87.87,0,0,1-.46-.17h0c0-.08-.17-.58-.25-.76a2.48,2.48,0,0,1-.29-1,.75.75,0,0,1,0-.2,1.37,1.37,0,0,1,.17-.46h0l0-.07,0-.1a1.78,1.78,0,0,1,1.25-.54,2.5,2.5,0,0,1,1.18.2,1.89,1.89,0,0,1,1,.86c0,.08.31.74,0,1.08l0,0M88,14.54a.28.28,0,0,1-.2.09.54.54,0,0,1-.43-.34.14.14,0,0,1,0-.06.31.31,0,0,1,0-.09.38.38,0,0,1,.13-.29c.12-.1.31,0,.31,0s.36.17.4.27l.17.4a6.11,6.11,0,0,1,.26-.69c.08-.12.35-.33.4-.58a3.27,3.27,0,0,0,.1-.52,2.72,2.72,0,0,0,.7.52v0h0a.38.38,0,0,0,0,.22c0,.07.23.43.27.51a.25.25,0,0,1,0,.19l-.06.06-.17,0h0a.52.52,0,0,0-.07.15l0,.06s0,.07,0,.07l-.08.14s-.08.07-.13.12-.27.36-.41.37a.52.52,0,0,1-.17,0,3,3,0,0,0-.39-.08h0a1.26,1.26,0,0,0-.48.43l0,.06a1.44,1.44,0,0,0-.07.18m1.9-1.51h0a.81.81,0,0,1,.06.13.24.24,0,0,0,0,.07m-.17,0a.44.44,0,0,1,0,.08m.23,1a.73.73,0,0,1,0-.25,2.22,2.22,0,0,1,0-.48m1.26,7,.13.06.19.07c.45.16,1.16.34,1.34.38a12.34,12.34,0,0,1,2.41.55,1.13,1.13,0,0,1,.27.3,3,3,0,0,1,.37.8c.07.26.31,1.82.48,2.31A11.19,11.19,0,0,0,97,27.92s.06.07.09.12a3.53,3.53,0,0,1,.23.27c.23.27.5.57.55.62s0,.07,0,.21v.05h0a.57.57,0,0,1-.07.22,1.58,1.58,0,0,1-.22.29,1.31,1.31,0,0,1-.53.2,6,6,0,0,1-1.36.05h-.09a6.06,6.06,0,0,0-.36-.94c-.09-.17-.3-.62-.57-1.08A14.5,14.5,0,0,1,94,25.49c-.06-.24-.09-.41-.1-.45s-.11-.18-.11-.18a1.8,1.8,0,0,1-.42,0c-.46,0-1.2-.08-1.86-.15-1-.11-2.29-.34-2.29-.34a4.09,4.09,0,0,1-1.54-.48h0m7.86-.72c.34,0,.58-.07.58-.07a17.86,17.86,0,0,0,.27,1.92c.16.63.55,2.1.56,2.29a5.83,5.83,0,0,0,.16.69m-6.26-7.39c.29.05,1,.16,1.31.19s2.44,0,3.38.07,1.93-.15,2.27.72.92,4.1,1.06,4.42.48,1.12.5,1.26a.73.73,0,0,1,0,.32l0,0a1.26,1.26,0,0,1-.11.17A1.13,1.13,0,0,1,99,28a.58.58,0,0,1-.26.13h-.06l-.43.1-.23,0a2.69,2.69,0,0,1-.7,0m-11-16.61a.69.69,0,0,0-.23-.07,7.71,7.71,0,0,0-.81.11l-.13,0L83.78,12l-1.42.28a1.06,1.06,0,0,1,.62.43,1.88,1.88,0,0,1,.4,1.44,11.24,11.24,0,0,0-.25,2,7.4,7.4,0,0,0,.63,3c.12.3.3.68.5,1.09M94,25.49,92.7,27.55l0,0v-.05c0-.09,0-.33,0-.53a1.08,1.08,0,0,0-.68-.78c-.34-.16-4.21-1.34-5.15-1.62a.48.48,0,0,1-.16-.08.44.44,0,0,1-.14-.16c-.06-.1-.15-.25-.27-.43M86,23.43c-.23-.4-.6-1.09-1-1.82M83.78,12a1.26,1.26,0,0,1,.5.47.77.77,0,0,1,.09.28,6.67,6.67,0,0,1,0,.68c0,.29,0,.42,0,.85l1.49-.42s0-.25,0-.72a6.82,6.82,0,0,0-.06-.78,1,1,0,0,0-.09-.27,1.21,1.21,0,0,0-.37-.38m.67.59-.21.06-1.45.35-.72.18m8.69,6c.73.13,1.27.24,1.35.27s.07.17,0,.3a1.13,1.13,0,0,1-.55.49c-.17,0-2.06-.42-3.63-.73m-.22-.83.84.13m-5.89,2.2.37.18,1.82.91,1.88,1h0m-4.39-2.7.34.13.23.09m4.37,3.32c-.09,0-.2-.09-.35-.16l-.5-.25L87.69,23l-.62-.32-.73-.39L85,21.61l-.37-.21m5,1.93-.08.07m-.28.17-.12.05m3-4.51a14.41,14.41,0,0,1,1.51.33m-4.39-.79,1.49.23m2.6,6L92.67,26m-.27,2-4.64,6.67,0,0a95.74,95.74,0,0,1-7.59-6.34,7.24,7.24,0,0,1-.4-.68c-1.1-2-3.86-7.7-4.34-9.2-.57-1.74-1.67-4.81-.76-5,.24-.06,1.32-.25,2.54-.45,1.06-.18,2.22-.36,3-.48.53-.08.92-.13,1-.13a1.79,1.79,0,0,1,.72.19h0a1.56,1.56,0,0,1,.88,1.16A11.74,11.74,0,0,1,82.75,16a12.87,12.87,0,0,0,.64,3c.08.17.27.56.53,1.06l.32.64.37.7c.38.75.79,1.55,1.12,2.18l.27.52c.07.12.13.24.18.34l.2.39h0S91.54,26.39,92,26.7a1.06,1.06,0,0,1,.42.75v.05A1.51,1.51,0,0,1,92.4,28Zm-.81-.52L88,32.24m-.23,2.41a2.82,2.82,0,0,0-1.26-1.6L81,28.42a3.06,3.06,0,0,1-.36-.36,2.8,2.8,0,0,1-.31-.5c-.81-1.69-3.41-7.09-3.7-8A19.92,19.92,0,0,1,75.87,15a1.38,1.38,0,0,0-1.23-1.56M86.36,24.84l-5.73,3.22-.89-.39M87.58,24l-.91.53-.49-.09m-6-11.94a2.29,2.29,0,0,1,.67.84.34.34,0,0,1,0,.12,3.36,3.36,0,0,1,0,.4c0,.35.06,1.41.06,1.41l-2.73.58s0-1,0-1.75V14a.87.87,0,0,0,0-.22,1.66,1.66,0,0,0-1-.84m-.43,1.38L78.23,14l2.69-.58.81-.17m13.9-2.95a1.47,1.47,0,0,1,.26.85v3.33a1.56,1.56,0,0,1-1.56,1.56h-.81A1.56,1.56,0,0,1,92,14.52V11.19a1.47,1.47,0,0,1,.26-.85,1.55,1.55,0,0,1,1.3-.71h.81A1.55,1.55,0,0,1,95.63,10.34Zm0,0H92.22m11.37-.23a1.74,1.74,0,0,1,.25.94l0,1.75-.06,1.84a1.69,1.69,0,0,1-1.27,1.58h0a1.38,1.38,0,0,1-.46.05h-.37l-.5,0a1.24,1.24,0,0,1-.33,0,1.69,1.69,0,0,1-1.31-1.69l0-1.76.06-1.83a1.67,1.67,0,0,1,.26-.86L99.9,10a1.69,1.69,0,0,1,.95-.66,1.86,1.86,0,0,1,.48-.06h.38l.49,0a1.12,1.12,0,0,1,.32,0h0A1.71,1.71,0,0,1,103.59,10.11Zm0,0h-.06l-1.84-.06L99.9,10M85.24,11.74l0-.51v-.11a1.42,1.42,0,0,1,.21-.79,1.56,1.56,0,0,1,.5-.49,1.41,1.41,0,0,1,.68-.19l.74,0a1.45,1.45,0,0,1,1.21.61l0,.06a.05.05,0,0,1,0,0,1.46,1.46,0,0,1,.18.48,2.12,2.12,0,0,1,0,.53m-3.41-1,3.13-.1m8.18-1.31s.19,2.38.16,3.82-.14,4.42-.21,5m1.74-.1c-.1-.76-.14-3.07-.11-4.85,0-.95.35-3.89.35-3.89m-7.81,6.29s-.08-1.24-.08-2.08,0-3.92,0-3.92m-1.41.11s.09,1,.09,1.27m9.11,19.64a2.61,2.61,0,0,0,.24.22c.22.2.45.4.51.44a5.79,5.79,0,0,0,.74.4.91.91,0,0,1,.47.52.73.73,0,0,1-.32.46,3.51,3.51,0,0,1-1.6.17l-.14,0a8.1,8.1,0,0,1-1.34-.84c-.16-.09-.58-.3-.93-.45a1,1,0,0,1-.52-.6c0-.05,0-.35.06-.59m2.83.31c-.12-.1-.21-.19-.24-.22a.51.51,0,0,1-.08-.14s-.06-.12-.1-.2-.15-.35-.23-.51h0m1.61-.89,0-.08a3,3,0,0,1-.15-.46h0a.22.22,0,0,0,0-.1m.21.65,0,.06.08.17.16.26a1.07,1.07,0,0,0,.2.23l.11.09.4.27c.41.25.91.57.95.79a.61.61,0,0,1,0,.27.33.33,0,0,1-.2.25,1.28,1.28,0,0,1-.84,0,4.51,4.51,0,0,1-.52-.12,1.49,1.49,0,0,1-.56-.31,3.19,3.19,0,0,0-.8-.57,1.43,1.43,0,0,0-.4,0m.61-1.56a1.67,1.67,0,0,1,.11.23c0,.09.1.2.15.28a.67.67,0,0,0,.13.19l.1.09.25.22.21.19.32.31a.82.82,0,0,1,.13.17c0,.12-.2.51-.25.8m.61-1.24a.36.36,0,0,1-.09.24.65.65,0,0,1-.4,0m1.44.75v0c0,.31-.3.52-.58.58a3.22,3.22,0,0,1-1.27-.19,4.71,4.71,0,0,1-1-.79,1.18,1.18,0,0,0-.41-.14m-1.15,0a.5.5,0,0,1,.17.12l0,.05.25.21a1.89,1.89,0,0,0,.37.24h0a1.56,1.56,0,0,1,.31.23,1.8,1.8,0,0,1,.21.19,3,3,0,0,1,.4.43.37.37,0,0,1,.06.1c.09.19-.29.61-.3,1m.71-1.55s0,.3-.11.4a.53.53,0,0,1-.36.05m1.68.47c.06.58-.37.77-.7.89a2.55,2.55,0,0,1-1.5,0,2.22,2.22,0,0,1-1.14-.84.79.79,0,0,0-.43-.27,1,1,0,0,1-.86-.25.69.69,0,0,1-.22-.8M88,23.19a1,1,0,0,0-.24.38,1.42,1.42,0,0,0-.08.35h0v.13L87.58,24a4,4,0,0,1-.66-.47M86.6,23c-.08-.2-.17-.44-.26-.7M86.08,18l0,.27a.11.11,0,0,1-.09.09l-.07,0a3.2,3.2,0,0,1-.9,0,1.79,1.79,0,0,1-.7-.29l-.07-.05a.12.12,0,0,1,0-.1l0-.29s0,0,0,0h0a4.12,4.12,0,0,0,.8.33,2.65,2.65,0,0,0,1,0h0A0,0,0,0,1,86.08,18Zm4.27-1a2.18,2.18,0,0,0-.3.42,2.24,2.24,0,0,0-.13.8h0v.1s0,0,0,0a.07.07,0,0,1-.09,0l-.17-.11a.08.08,0,0,1,0-.05h0a2.11,2.11,0,0,1,0-.81,2,2,0,0,1,.51-.8m8.65,13.86h0l-.06,0-.19-.14-.23-.22-.19-.2,0,0L98,29.63l-.13-.22m1.36-1.59.12.17.17.25,0,.06h0l0,.06M82,12.56a.49.49,0,0,1,.41-.27M92.42,27.5l.25.09h0m-2.93-5.26c.07.07.13.12.17.17a.91.91,0,0,1,.15.32m8,6.68a.56.56,0,0,1,0,.12.94.94,0,0,1-.67.44h-.09m.93-.27a.32.32,0,0,1,0,.07.39.39,0,0,1-.1.19,1.65,1.65,0,0,1-.48.21l-.07,0m.84-.27v0a.37.37,0,0,1-.06.22,1.54,1.54,0,0,1-.34.22,1,1,0,0,1-.17.07m.81-.33s0,0,0,0a.5.5,0,0,1-.11.24,1,1,0,0,1-.21.21l-.23.12m.74-.43h0a.56.56,0,0,1-.14.36.5.5,0,0,1-.16.14.55.55,0,0,1-.14,0m1-3.23a.51.51,0,0,1,0,.23.51.51,0,0,1-.09.18,1.18,1.18,0,0,1-.37.2l-.22.06m.85-.21v0a.65.65,0,0,1-.15.22,1,1,0,0,1-.33.19,1.3,1.3,0,0,1-.22.07m.85-.19a1,1,0,0,1-.19.24.78.78,0,0,1-.21.16.66.66,0,0,1-.15.07m.71-.21a.39.39,0,0,1-.09.21,1.43,1.43,0,0,1-.22.15l-.14,0M100,29a.49.49,0,0,1,0,.16.83.83,0,0,1-.25.16l-.11.06m-3.68-5.17A8.41,8.41,0,0,1,96,25.37m-1.82-.81.72.42m-7.83-2.27L86.6,23l-.63.41-.24.15m3.11-2.14h0l-.12.1m-1,1.49-.77.5-.66.41L86,24.1m3.36-2.27-.09.07m-.43-.46a.11.11,0,0,1,0-.06.07.07,0,0,1,0-.08l.48-.49a.2.2,0,0,1,.19,0h0a.36.36,0,0,1,.23.11.48.48,0,0,1,.17.24s0,0,0,.06a.24.24,0,0,1,0,.12,3.18,3.18,0,0,1-.42.5.21.21,0,0,1-.17,0l-.07,0a1,1,0,0,0-.2-.21l-.23-.13Zm.68-.68h0a2.7,2.7,0,0,0,.4-.71A.46.46,0,0,1,90,20s0-.05.08,0l.14.11.19.17a.18.18,0,0,1,0,.21s0,0,0,0a4.71,4.71,0,0,1-.42.7m-1-2.1s.21,1-.09,1.32M103,17a13.72,13.72,0,0,1-3.08-.16m-4.37-.06c-.57.38-2.76.09-3.28-.05m2.72-5-1.55,2.09m1.41-.88L94,14.06m8.83-1.86-1.38,2.2m1.48-1.08-.67.94"/><ellipse id="face" class="cls-15" cx="97.5" cy="13.68" rx="0.16" ry="0.11" transform="translate(1.01 33.25) rotate(-19.45)"/><path id="path-2" data-name="path" class="cls-14" d="M77.27,363.85c.66-1,1.13-1.55,2-1.58,1.54,0,2.36.57,3.61.29s1.87-1.1,3.25-1.34a4.53,4.53,0,0,1,2.28.12s3.28-.41,3.81-.45,4.18.61,5.12.57a4.9,4.9,0,0,1,2.44.63l.52.27c1.22.65,1.38.81,2,.81s2-.12,4.14,1.95a17.21,17.21,0,0,1,2.13,2.78h0c1.61,2.45,3.33,5.59,4,6.83l.19.34a.15.15,0,0,1-.12.21l-2.14.17-9.84.78-18.91,1.51h-.3l-4-.46-3.07-.36a.48.48,0,0,1-.17-.05l-5.79-2.41.63-.67c1.34-1.47,4.52-5,6.19-7.12l0,0c.57-.75,1-1.4,1.38-2M99,363.15l-1.28-.09c-1-.06-1.84-.06-2.57,0h0m11.38,2.1a15.4,15.4,0,0,0-4.76-1.59l-.58-.1m-9.06-.14-.49,0-.79.09c-2.56.27-4.1,1.33-4.74,3.19-.32.94-1.45,3.78-2.48,6.35-.61,1.52-1.19,2.94-1.55,3.83l-.38.94h0m4.42-11.13s-2.68-1.85-3.94-2.82a7,7,0,0,0-2.84-1.53m12.31,1.07a16.44,16.44,0,0,0-3.17-2m13.3,2.19a11.8,11.8,0,0,0-1.93-1.44M69.13,373.78l.43.18h0l5.8,2.34s.92-1.23,2.09-2.9c1.83-2.62,4.27-6.32,4.68-7.95m.45-.89c-.11,0-.29.11-.42.34s-.18.48-.08.54h0c.11,0,.27-.13.39-.34s.17-.48.07-.54m0,0h0a18.85,18.85,0,0,0-5.32-.71.5.5,0,0,0-.23.06c-.45.29-.67.71-.47.73h.17a18.69,18.69,0,0,1,2.11.14,26.42,26.42,0,0,1,3.24.65m10.38-1.7h0c.37.81,1,2.24,1.47,3.6a16.73,16.73,0,0,1,.53,1.68c.24.93.56,2.26.86,3.5.43,1.78.81,3.38.81,3.38l4.08-.34,3.35-.27s-.23-1.27-.56-3a73.4,73.4,0,0,0-2-8.52m-8.84-.65a.21.21,0,0,0-.07.15.51.51,0,0,0,0,.23c.08.16.22.26.33.22h0c.11-.05.13-.22,0-.39a.4.4,0,0,0-.21-.23H92.2l0,0m.27.61h0a38.83,38.83,0,0,1,4.45-.19c1.85.07,3.67.21,4.09.23h.08c.18,0,.18-.21.07-.36a.35.35,0,0,0-.26-.16h-.13c-.27,0-.93-.07-1.8-.11h0M95.12,363h0c-1,0-2,0-2.81.1M75.37,376.3l2.77.21,3.87.3h0l14.09-.89m16.49-1.18-2.6.16-6.46.41m-18.4-.64,9.33-.37m12.07-7.57a7.79,7.79,0,0,0-3.92-1.59"/><path id="path-3" data-name="path" class="cls-14" d="M83.41,425.93l2.51.85a3.6,3.6,0,0,1,1,.63.49.49,0,0,1,.33.18,4.89,4.89,0,0,1,.39,1.5c0,.33,0,2,0,2.34,0,.13,0,.6.1,1.12.08.8.19,1.74.19,1.85a8.69,8.69,0,0,0,.11,1.23,4.08,4.08,0,0,1-.22,1.61,4.79,4.79,0,0,1-1,1.33.83.83,0,0,1-.44.26,2.36,2.36,0,0,1-.77-.26,9.77,9.77,0,0,1-.94-.55l-.17-.13c-.4-.34-2.72-2.75-3.08-3.22-.22-.29-.84-1.17-1.27-1.79l-.45-.64a2.72,2.72,0,0,1,.26-.4,2.67,2.67,0,0,1,.66-.63,4,4,0,0,1,1-.48l.21-.06s.8.79,1.22,1.25l.16.18.1.12a11.38,11.38,0,0,0,1.26,1.22,2.1,2.1,0,0,0,.41.29,7.85,7.85,0,0,1,.74.51c.49.35,1,.75,1.13.81m-11.56,1.64c0-.59-.06-1.23-.08-1.61M84.7,438v.55m.94,0H77.49m20.34,0h-11m-14.92,0H70.37a.33.33,0,0,0-.24.14l-2.07,2.91a.39.39,0,0,0-.07.23v.65a.13.13,0,0,0,.13.13H98.67m-28.21-1.9.11,0,1-.34-.47-.12-.92.32Zm.11,0v.29h0l1-.34v-.3m-1.39.2a.55.55,0,0,0-.13.08l0,0c0,.05,0,.19,0,.24a.68.68,0,0,0,.33.1l.21,0m-.49-.34a.27.27,0,0,0,.09.07.68.68,0,0,0,.27,0m2.91-1.5a.85.85,0,0,1,.2.31,1.22,1.22,0,0,0,.15.33.36.36,0,0,0,0,.09.66.66,0,0,0,.17.21,2.89,2.89,0,0,0,.78.2c.09,0,.48.08.72.13l.13,0a1.33,1.33,0,0,0,.56,0c.1,0,.22-.1.21-.24s.39.12.48,0a.62.62,0,0,0,.08-.21s.37.29.58.09-.19-.42-.24-.47a.53.53,0,0,0,.19,0,.28.28,0,0,0,.11-.08c.07-.09,0-.32-.14-.47a.81.81,0,0,0-.11-.13l-.55-.48h0a2.06,2.06,0,0,0-.4-.36l-.38-.21-.15-.08-.1,0m1.69,1.22a1.22,1.22,0,0,0-.24-.3h0m.27.31,0,0a.79.79,0,0,0,.13.14m0,0a.46.46,0,0,0,.18.11.17.17,0,0,0,.18-.15c0-.07,0-.16-.1-.23l-.13-.13,0-.05c0-.07-.09-.2-.14-.27l0-.06c-.09,0-.4-.11-.59-.16l-.17-.06m5.95-10.52h0l0,0a6.56,6.56,0,0,0,.47-1.18,1.65,1.65,0,0,1,.07-.21l0-.16c0-.08,0-.19.07-.31l.06-.3,0-.12c0-.2.08-.42.12-.61l0-.19c0-.19.06-.32.06-.32s0-.07,0-.21m-5.64.18.22.74c0,.1.06.18.08.26h0l.12.35v.05c0,.15.17.59.28.9h0a1.63,1.63,0,0,0,.11.29c0,.07.15.25.29.46l.44.64m3.12-.26V428h0a1.45,1.45,0,0,1-.06.47c-.08.12-.54.51-.65.67h0s0,0,0,0a5.61,5.61,0,0,0-.25.9v.65m-3-1.1a.29.29,0,0,1,0-.29c.1-.13.39-.07.39-.07a.5.5,0,0,1,0-.33.7.7,0,0,1,.27-.15l.1,0a.46.46,0,0,1-.12-.21.7.7,0,0,1,0-.16v-.1a.35.35,0,0,1,0-.13.14.14,0,0,1,.07-.1.06.06,0,0,1,.06,0h.09a.91.91,0,0,1,.37.18c.17.1.48.32.6.38s.43.31.59.31a.92.92,0,0,0,.65-.25,7.08,7.08,0,0,1,.61-.54,1.86,1.86,0,0,0,.23-.32M80,431.84a1.12,1.12,0,0,1-.22-.11c-.17-.12-1-1.2-1-1.2a1.31,1.31,0,0,0-.26-.29c-.12-.07-.42-.35-.28-.56s.42-.06.43-.05h0M78,424.32h0a1.73,1.73,0,0,0-.17-.21h0c-.07-.07-.14-.11-.19-.05s0,.45.11.55.29.78.37.88a.73.73,0,0,0,.18.22l.07,0h.06m5-.25.1-.15c.08-.1.28-.77.37-.87s.23-.4.11-.56-.1,0-.16,0a1,1,0,0,0-.19.22m-3,3.74s.29.32.55.32.48-.38.48-.38m-7.22,10.34a2,2,0,0,1-.4.19,2.7,2.7,0,0,0-.19.22,5.08,5.08,0,0,0-.42.56l-.11.2a.61.61,0,0,0,0,.65c.08.07.23,0,.31,0m1.37-4.07a2.85,2.85,0,0,0-.6-.22,5.35,5.35,0,0,0-1.46-.15m5.3-9.82h0c-.12,0-1,.18-1.86.38a10.78,10.78,0,0,0-2.22.65.49.49,0,0,0-.51.29,17.15,17.15,0,0,0-.63,2.31c0,.12-.08.54-.15,1-.1.71-.23,1.59-.33,2,0,.05,0,.11,0,.18-.19.85-.55,2.94-.61,3.06a13.46,13.46,0,0,0,0,3,1.16,1.16,0,0,0,.06.22,2.9,2.9,0,0,0,1.33,1.29,1,1,0,0,0,.42,0m1.62-3.33,0,0h0l-.11-.29a3.57,3.57,0,0,0-.17-.49h0l.2-.82c.19-.8.45-1.95.47-2.3,0-.14,0-.27,0-.4a12,12,0,0,0-1.1-4.92m11.91.21s-.18.08-.79,1.11a11,11,0,0,0-1.28,3.74c0,.24.1.62.14.92M78,426.38a31.89,31.89,0,0,0-3.23.65m11.37.35A12.25,12.25,0,0,0,84,426.6m-3.78,6.28c-.05.78-.2,3.05-.16,4.09,0,.58,0,1.15.07,1.6m.33-3.62a.28.28,0,1,0,.27.28A.27.27,0,0,0,80.42,435Zm.07,2.45a.26.26,0,0,0-.26.26.26.26,0,1,0,.52,0A.26.26,0,0,0,80.49,437.4Zm-1.8-10.78h0a4.58,4.58,0,0,0,.64,1.66m3.72-1a1.78,1.78,0,0,0,.21-.65,2,2,0,0,0,0-.4m-.58,1.8h0a8,8,0,0,0,.4-.74m-4.7-1.52a4.17,4.17,0,0,0,.09,1.15,5.11,5.11,0,0,0,.93,1.91m2.57.35h0a3.06,3.06,0,0,0,1.54-2.49c0-.17,0-.47-.07-.72s0-.26,0-.34m-4.27,1.78a3.6,3.6,0,0,0,.34.68m3.62-.8h0a4.13,4.13,0,0,0,.07-.68m-.06,1a1.62,1.62,0,0,0,.26-1.29m3.3,8.25-.85-.27m-11.31,1.44a3.74,3.74,0,0,0-1.28-.86m10.33-10c-.1-.11-.24-.35-.32-.35s-.66,0-.5,0,.2.2-.17.23-1.08.05-.92.1.2.21-.11.2-.93-.21-1-.14.2.2.26.37-.87-.1-1.24-.13-.88-.29-1.07-.28-.14.33-.2.43h0m5.53-1.4c0-.37-.11-1.3-.11-1.4s-.11-.54,0-.46,0-.17-.11-.24-.48-.93-.67-1.11a10.65,10.65,0,0,0-1-.76c-.06,0-.09-.14-.18-.17s-.42,0-.43-.09-.25-.22-.36-.22.08.15.09.24-1.69.29-2.07.49a3.8,3.8,0,0,0-1,1.23c-.06.17-.24,1.15-.4,1.24s-.24.45-.16.39.23-.14.24.06.12.73.17,1h0m-.44,15h0l-.27-.31-.19-.22-.23-.28h0l-1.32-1.55h0l-.39-.46a.28.28,0,0,0-.2.05.22.22,0,0,0-.08.2l.7.82.23.28h0l.19.22.14.17m1.47,1.73.39.46,0,0,.39.19s0,0,0,0l-.14-.4,0,0-.55-.65h0M78,440a.14.14,0,0,0-.09,0,.2.2,0,0,0-.08.09m-2.44.47-.11.7h8.45L83,438.83H77.63m-8.94,3H98.74m-11-9.29h9.36m-24.54,0h-1a.46.46,0,0,0-.45.43L71,438.57m15.85-6.14c.34-.12.82-1,.82-1m-10.41,8.34s-.67-.6-.78-.65l-.94-.57m1.38,1.6c-.1-.09-.56-.37-.68-.46s-1-.49-1-.49m-.22.69.94.36.4.14m2.33-10.76.24.14m.19-.5.25.06m.57-.5a.76.76,0,0,0-.25-.06l-.17,0m.81,3.68c-.07-.09-.17-.14-.23-.1s0,.15,0,.25.17.14.23.1S80.34,432.53,80.28,432.43Zm.59.72c-.07-.1-.17-.15-.23-.11s0,.16,0,.25.16.15.22.11S80.94,433.25,80.87,433.15Zm-1.42-4.62.19.24M74.38,439a.31.31,0,0,0-.16.14.32.32,0,0,0,0,.25v.23a.37.37,0,0,0-.14.21.51.51,0,0,0,0,.26m1.53-2.49-.22,0a2.65,2.65,0,0,0-.39,0,5.68,5.68,0,0,0-.48.49h0l-.05,0h0a.42.42,0,0,0-.13.3m9-6.24H84v-.3H83.1m-7.36.46h0a3.71,3.71,0,0,0-.72-1.44"/><path id="path-4" data-name="path" class="cls-14" d="M90.09,489.67l-4.21-4.07a1.11,1.11,0,0,1,0-1.57l9.87-10.23a1.11,1.11,0,0,1,1.57,0l4.21,4.06a1.11,1.11,0,0,1,0,1.58l-9.86,10.23A1.13,1.13,0,0,1,90.09,489.67Zm7.47-14.84a.09.09,0,0,0,0-.08.31.31,0,0,0,0-.08l-.12-.14L97,474.1a.65.65,0,0,0-.93,0l-9.87,10.25a.64.64,0,0,0,0,.92l4.18,4a.66.66,0,0,0,.93,0l9.88-10.25a.65.65,0,0,0,0-.92l-.45-.44-.14-.11a.11.11,0,0,0-.14,0l-.08.08a.31.31,0,0,1-.24.1.35.35,0,0,1-.25-.1l-2.38-2.29a.35.35,0,0,1,0-.49Zm1.76,1.77a0,0,0,0,0,0-.07l-.63-.6a0,0,0,0,0-.07.07l.62.6A.06.06,0,0,0,99.32,476.6Zm.34.2a.11.11,0,0,0-.15,0,.09.09,0,0,0,0,.14.1.1,0,1,0,.14-.14Z"/><rect class="cls-16" x="82.88" y="105.49" width="2.07" height="2.07"/><rect class="cls-16" x="86.4" y="105.49" width="2.07" height="2.07"/><rect class="cls-16" x="89.92" y="105.49" width="2.07" height="2.07"/><polygon class="cls-16" points="80.44 106.16 80.44 109.68 92.49 109.68 92.49 89.95 80.44 89.95 80.44 104.58 80.44 106.16"/><rect class="cls-16" x="81.88" y="95.62" width="2.07" height="2.07"/><rect class="cls-16" x="85.4" y="95.62" width="2.07" height="2.07"/><rect class="cls-16" x="88.92" y="95.62" width="2.07" height="2.07"/><rect class="cls-16" x="81.88" y="92.3" width="2.07" height="2.07"/><rect class="cls-16" x="85.4" y="92.3" width="2.07" height="2.07"/><rect class="cls-16" x="88.92" y="92.3" width="2.07" height="2.07"/><rect class="cls-16" x="81.88" y="98.94" width="2.07" height="2.07"/><rect class="cls-16" x="85.4" y="98.94" width="2.07" height="2.07"/><rect class="cls-16" x="88.92" y="98.94" width="2.07" height="2.07"/><rect class="cls-16" x="81.88" y="102.26" width="2.07" height="2.07"/><rect class="cls-16" x="85.4" y="102.26" width="2.07" height="2.07"/><rect class="cls-16" x="88.92" y="102.26" width="2.07" height="2.07"/><polyline class="cls-16" points="92.49 92.03 93.4 92.03 93.4 97.69 92.49 97.69"/><rect class="cls-16" x="93.4" y="91.19" width="2.31" height="7.48"/><text class="cls-17" transform="translate(93.96 92.69) scale(1.34 1)">H</text><text class="cls-17" transform="translate(93.96 94.09) scale(1.34 1)">O</text><text class="cls-17" transform="translate(94.12 95.51) scale(1.34 1)">T</text><text class="cls-17" transform="translate(94.12 96.91) scale(1.34 1)">E</text><text class="cls-17" transform="translate(94.17 98.23) scale(1.34 1)">L</text><path id="path-5" data-name="path" class="cls-14" d="M145.07,277.73v-.05a9.59,9.59,0,0,0-.29-1.16c-.19.14-.36-.13-.47-.26a1.51,1.51,0,0,1-.11-1,.13.13,0,0,1,.18-.07.31.31,0,0,1,.14.09,1.07,1.07,0,0,1,.14.22l.12.38a7.54,7.54,0,0,1,0-.86.65.65,0,0,1,.21-.25.18.18,0,0,0,.06-.09l.13-.48a.22.22,0,0,1,.18-.2,5.58,5.58,0,0,1,1.34-.06,2.94,2.94,0,0,1,1.2.66,2.79,2.79,0,0,1,.25.92m-3,1.62a5.17,5.17,0,0,0,.74.74,1,1,0,0,0,1.2.15,1.92,1.92,0,0,0,.5-.52h0a2.64,2.64,0,0,0,.23-.42c.05-.15.12-.43.18-.72a3.69,3.69,0,0,0,.1-.68l0-.17,0-.4a.08.08,0,0,1,.09-.06h0a.2.2,0,0,1,.14.17c0,.25,0,1.07-.39,1.14m.25-1.31a2.54,2.54,0,0,0,0-1.39,1.52,1.52,0,0,0-.95-1,3.8,3.8,0,0,0-2.15-.1,1.06,1.06,0,0,0-.56.58,1.47,1.47,0,0,0-.23.19,2.84,2.84,0,0,0-.16,1.09c0,.14.1.5.14.75m3.29,2.32h0a2.88,2.88,0,0,0-.11.57.92.92,0,0,0,0,.16m-2.48-.59a.36.36,0,0,0-.06.11,2.83,2.83,0,0,0-.07.28.52.52,0,0,0,0,.11m2.1,1a2.05,2.05,0,0,1,.19-.2c-.13-.11-1-.6-1.57-.94m-.21-.12-.35-.21h0m2.61,2.15c0-.24,0-.63,0-.82a.2.2,0,0,0,0-.07,2.24,2.24,0,0,0-.05-.37,3.49,3.49,0,0,0-.11-.51m0,.14v0h0a2.53,2.53,0,0,1-.12.36l-.22.37s.24,0,.3.14a1.39,1.39,0,0,1,.07.34m.05.34c0-.11,0-.23-.05-.34m-.59,0a.44.44,0,0,1,.06.16.1.1,0,0,0,.1.06,1.22,1.22,0,0,1,.33-.07s.08-.06.1-.15h0m-.43.22,0,.32a.13.13,0,0,0,0,.06c0,.13.09.77.13,1.24m1.57,2.62a26.94,26.94,0,0,0-1-3.83,1.86,1.86,0,0,0-.13-.23l0-.06-.15-.19m-2.54-1.56c-.07,0-.2,0-.26.07s-.45.62-.45.62l.48.84.11,0m3.8,5.65c-.37-.67-1.55-2.8-1.81-3.14l-.83-1m-.78-2.65-.28-.25-.07-.05m3.81,6.82c-.3-.78-.89-2.3-1.08-2.86a5.81,5.81,0,0,0-.35-.77c-.16-.31-.36-.66-.56-1m-.1-.17,0,0m1.15-1.34a4.19,4.19,0,0,1,.69.47l0,0c.14.13.58.44.58.44l-.24.19m-.17,6.12s.25-.83.39-1.24a18.88,18.88,0,0,0,.45-3.69,3,3,0,0,0-.26-1.06l-.41-.13-.29-.1m-.75-.74a1.9,1.9,0,0,1,.75.74l0,.09a8.06,8.06,0,0,1,.51,2.23c0,.23-.1,1-.21,1.82,0,.36-.1.71-.14,1,0,.09,0,.18,0,.27h0c0,.26-.05.46-.05.52V286a16.41,16.41,0,0,0,.14,2.06c.07.31.31,1.15.52,1.88.16.55.31,1,.36,1.2.12.37.3.94.41,1.17s.32.51.52.55h.42a.1.1,0,0,0,.09-.1c0-.11,0-.31-.07-.54s0-.27,0-.4l-.08-.73a32.56,32.56,0,0,0-.71-3.27,2.32,2.32,0,0,1-.16-1c0-.23-.07-2.16,0-2.57s.12-3.3.13-3.46m1.74,11.07c.06,0,.14-.05.14-.11s-.17-1.43-.26-1.84-.48-3.1-.54-3.6-.22-1.83-.27-2.28-.19-1.7-.29-2.17a8.38,8.38,0,0,0-.44-1.69c-.2-.4-.37-.33-.46-.35s-1-.47-1.32-.6m1.15,8.6c.09-.12.43-1,.43-1m1.93,5a.14.14,0,0,0-.08,0,1.08,1.08,0,0,0-.46-.07,1.14,1.14,0,0,0-.44.13m.89.38a.07.07,0,0,0,0-.06s0-.15,0-.26a.41.41,0,0,0,0-.12m0,.36h0l-.43,0a1.93,1.93,0,0,0-.38.08m-2-4.54c-.07,0-.11.14-.08.29s.11.26.19.24.1-.14.08-.29S149,287.67,148.9,287.69Zm1.94,5.18h0a1.8,1.8,0,0,0,.1.18s.05.08.07.13l.06.13c0,.07.05.14.07.2a.74.74,0,0,1,0,.12s0,.05,0,.08a1.77,1.77,0,0,0,.21.52l0,0c.08.06.19.08.24,0a.26.26,0,0,0,0-.14,1.1,1.1,0,0,0-.05-.29c0-.18-.09-.36-.11-.46h0a1,1,0,0,1,.06-.48m-.41.81a.12.12,0,0,0-.14.13,1.2,1.2,0,0,0,.13.25h0c.06.08.11.15.15.16l.1,0m.24,0,.16,0c.13,0,.16-.21.19-.3s.14-.53.16-.63a.47.47,0,0,0-.06-.35c-.05-.1-.22-.52-.31-.76a.36.36,0,0,1,0-.09m-.12,1.72c0-.06.07-.16.05-.19a2.13,2.13,0,0,0-.16-.27m-.39.13a.21.21,0,0,0-.11.1.51.51,0,0,0-.06.25.1.1,0,0,0,0,.08l.17.15h0m-.1-.78a1.23,1.23,0,0,0-.19.38h0v0a.19.19,0,0,0,.09.13m0-.68c-.07.06-.24.28-.23.36s.06.11.1.15h0m-6.66-14.93-1.41.72a.69.69,0,0,0-.64.49,2.73,2.73,0,0,0-.08,1.45,4.55,4.55,0,0,1,.19.94c0,.13-.13.45,0,.58s.14.61.24.88a4.5,4.5,0,0,0,.85,1.35,1.46,1.46,0,0,0,1.46,0,2.11,2.11,0,0,0,.73-1c.12-.36.47-1.87.23-2.2m-1.3-.74a1.71,1.71,0,0,0-.35.44c-.2.33-.43.76-.59,1.08l-.24.47m.83-1.55a4.85,4.85,0,0,0-.73-1.94m6.06,2.11.41,0v-.17l-.35-.05m-3.84,1.13c0-.22.07-.53.1-.83a4.55,4.55,0,0,0,0-.62.48.48,0,0,0-.07-.21m-1-.28,0,0a1.76,1.76,0,0,0-.17.34h0a1.12,1.12,0,0,0-.05.13m2.05-2.18s0,.09,0,.2h0a.86.86,0,0,0,0,.28.17.17,0,0,0,.06.11s0,0,0,0h0a.15.15,0,0,0,.16,0,3.3,3.3,0,0,0,.19-.36.36.36,0,0,0,0-.09.16.16,0,0,0,0-.19h0a.31.31,0,0,0-.18-.11,2.69,2.69,0,0,0-.77,0,.88.88,0,0,1-.32-.23.66.66,0,0,1-.1-.4,1.55,1.55,0,0,0,0-.43.18.18,0,0,0-.16-.13h-.05c-.18,0-.16.29-.2.43l0,.06a4.41,4.41,0,0,0-.25.58.54.54,0,0,1-.1.3.39.39,0,0,0,0,.26v.05a6.47,6.47,0,0,1,.07.65c0,.11-.1.38-.15.6l0,.18c0,.15,0,.49,0,.68m1.4-1.17a1.8,1.8,0,0,1,0,.37.32.32,0,0,1-.09.15.37.37,0,0,1-.19.07h0l0,0a.67.67,0,0,0-.15.32,2.08,2.08,0,0,0,0,.67m.6-1.6.29,0m-.49.05.13,0h.07m0,0h0a.55.55,0,0,0,.21,0,.27.27,0,0,0,.25-.17.23.23,0,0,0,0-.09.21.21,0,0,0,0-.08s0-.07-.1-.09H146m.55-.36h-.76m.66.4,0,0a.23.23,0,0,0,.1-.15.39.39,0,0,0,0-.16h0m-.1-.42h0l-.09-.1a3.6,3.6,0,0,0-.82-.13.48.48,0,0,1-.16-.06m1.05.67s0-.08,0-.1m-.34.1a.17.17,0,0,1,0-.07l-.26.06m-.64.57a.19.19,0,0,0,.22.18m.25.66a1.7,1.7,0,0,1-.07.88.33.33,0,0,1-.1.11.73.73,0,0,1-.48.13c-.15,0-.32-.38-.39-.56h0m-.22-.41v.05h0a4.79,4.79,0,0,0,0,.85,2.08,2.08,0,0,0,.5,1,.93.93,0,0,0,.75-.39l0-.08m-.79.47-.79,1.74m.28-1.47.08,0s.06,0,.07,0,0-.1-.05-.14-.12,0-.15,0,0,.06,0,.1A.08.08,0,0,1,144.47,283.47Zm0,.15.06,0s0-.06,0-.1m-.12-.07a0,0,0,0,0-.06,0s0,.05,0,.09l0,0a.16.16,0,0,0,.09,0m-.13-.08s0,0-.06,0,0,.05,0,.08l.05.06.08,0a.08.08,0,0,0,.07,0s0-.06,0-.09h0m-.19,0a.07.07,0,0,0-.06,0s0,.09.05.13.12.05.15,0a.1.1,0,0,0,0-.09m-1.17-2.38a5.8,5.8,0,0,0-.77.86m1.08.55a3.24,3.24,0,0,0-.53.17m.35,2.24s.5,1.69.51,1.88-.18,1.17-.28,1.79-.08,3.18-.08,3.53a3.39,3.39,0,0,0,0,.88.62.62,0,0,0,.21,0c.49,0,1.65,0,2.14-.07s2.63-.26,2.86-1.18c.14-.58.32-1.48.42-2.06m-4.71-1.28a3.07,3.07,0,0,0,1.3.21c.52,0,1.33-.15,1.34-.31s0-.59-.07-.59l-1.19,0c-.53,0-1.44,0-1.44,0S144.34,288.49,144.51,288.68Z"/><g id="face-2" data-name="face"><line class="cls-14" x1="146.14" y1="275.04" x2="145.59" y2="275.01"/><line class="cls-14" x1="147.11" y1="275.05" x2="147.63" y2="275.02"/><ellipse class="cls-15" cx="145.88" cy="275.46" rx="0.21" ry="0.15"/><ellipse class="cls-15" cx="147.37" cy="275.44" rx="0.21" ry="0.15"/><path class="cls-14" d="M146.53,276.47a.16.16,0,0,0,.17.14.17.17,0,0,0,.16-.14"/><path class="cls-14" d="M146.29,277.16a2.06,2.06,0,0,0,.4,0,1.41,1.41,0,0,0,.4-.06"/></g></g></g></svg>